%TF.GenerationSoftware,KiCad,Pcbnew,(5.1.6-0-10_14)*%
%TF.CreationDate,2020-10-03T22:08:30-04:00*%
%TF.ProjectId,weather_external,77656174-6865-4725-9f65-787465726e61,rev?*%
%TF.SameCoordinates,Original*%
%TF.FileFunction,Soldermask,Top*%
%TF.FilePolarity,Negative*%
%FSLAX46Y46*%
G04 Gerber Fmt 4.6, Leading zero omitted, Abs format (unit mm)*
G04 Created by KiCad (PCBNEW (5.1.6-0-10_14)) date 2020-10-03 22:08:30*
%MOMM*%
%LPD*%
G01*
G04 APERTURE LIST*
%ADD10R,1.600000X1.100000*%
%ADD11C,1.700000*%
%ADD12R,1.700000X1.700000*%
%ADD13O,1.800000X1.800000*%
%ADD14R,1.800000X1.800000*%
%ADD15C,1.600000*%
%ADD16R,1.600000X1.600000*%
%ADD17R,0.900000X1.000000*%
%ADD18O,1.700000X1.700000*%
%ADD19O,1.500000X1.500000*%
%ADD20C,1.500000*%
%ADD21C,2.100000*%
G04 APERTURE END LIST*
D10*
%TO.C,JP1*%
X161900000Y-78850000D03*
X161900000Y-80150000D03*
%TD*%
D11*
%TO.C,Atmega328*%
X152400000Y-73660000D03*
X152400000Y-76200000D03*
X152400000Y-78740000D03*
X152400000Y-81280000D03*
X152400000Y-83820000D03*
X152400000Y-86360000D03*
X152400000Y-88900000D03*
X152400000Y-91440000D03*
X152400000Y-93980000D03*
X152400000Y-96520000D03*
X152400000Y-99060000D03*
X152400000Y-101600000D03*
X152400000Y-104140000D03*
X152400000Y-106680000D03*
X144780000Y-106680000D03*
X144780000Y-104140000D03*
X144780000Y-101600000D03*
X144780000Y-99060000D03*
X144780000Y-96520000D03*
X144780000Y-93980000D03*
X144780000Y-91440000D03*
X144780000Y-88900000D03*
X144780000Y-86360000D03*
X144780000Y-83820000D03*
X144780000Y-81280000D03*
X144780000Y-78740000D03*
X144780000Y-76200000D03*
D12*
X144780000Y-73660000D03*
%TD*%
D11*
%TO.C,C7*%
X132600000Y-98500000D03*
X135100000Y-98500000D03*
%TD*%
%TO.C,C6*%
X162300000Y-107800000D03*
X164800000Y-107800000D03*
%TD*%
D13*
%TO.C,NRF24L01*%
X159860000Y-92280000D03*
X162400000Y-92280000D03*
X159860000Y-94820000D03*
X162400000Y-94820000D03*
X159860000Y-97360000D03*
X162400000Y-97360000D03*
X159860000Y-99900000D03*
D14*
X162400000Y-99900000D03*
%TD*%
D15*
%TO.C,DHT11*%
X134300000Y-84680000D03*
X134300000Y-87220000D03*
X134300000Y-89760000D03*
D16*
X134300000Y-92300000D03*
%TD*%
D17*
%TO.C,U4*%
X157900000Y-78700000D03*
X158850000Y-80700000D03*
X156950000Y-80700000D03*
%TD*%
%TO.C,D1*%
G36*
G01*
X158262980Y-107192200D02*
X158262980Y-107717200D01*
G75*
G02*
X158000480Y-107979700I-262500J0D01*
G01*
X157375480Y-107979700D01*
G75*
G02*
X157112980Y-107717200I0J262500D01*
G01*
X157112980Y-107192200D01*
G75*
G02*
X157375480Y-106929700I262500J0D01*
G01*
X158000480Y-106929700D01*
G75*
G02*
X158262980Y-107192200I0J-262500D01*
G01*
G37*
G36*
G01*
X160012980Y-107192200D02*
X160012980Y-107717200D01*
G75*
G02*
X159750480Y-107979700I-262500J0D01*
G01*
X159125480Y-107979700D01*
G75*
G02*
X158862980Y-107717200I0J262500D01*
G01*
X158862980Y-107192200D01*
G75*
G02*
X159125480Y-106929700I262500J0D01*
G01*
X159750480Y-106929700D01*
G75*
G02*
X160012980Y-107192200I0J-262500D01*
G01*
G37*
%TD*%
D18*
%TO.C,NE555*%
X150400000Y-58180000D03*
X158020000Y-65800000D03*
X152940000Y-58180000D03*
X155480000Y-65800000D03*
X155480000Y-58180000D03*
X152940000Y-65800000D03*
X158020000Y-58180000D03*
D12*
X150400000Y-65800000D03*
%TD*%
D19*
%TO.C,R4*%
X146950900Y-65792160D03*
D20*
X146950900Y-58172160D03*
%TD*%
D19*
%TO.C,R3*%
X144098480Y-65792160D03*
D20*
X144098480Y-58172160D03*
%TD*%
D11*
%TO.C,C5*%
X157000000Y-70800000D03*
D12*
X159000000Y-70800000D03*
%TD*%
D13*
%TO.C,J3*%
X141439900Y-71561960D03*
X141439900Y-74101960D03*
D14*
X141439900Y-76641960D03*
%TD*%
D13*
%TO.C,J4*%
X163000000Y-60760000D03*
D14*
X163000000Y-63300000D03*
%TD*%
D13*
%TO.C,J2*%
X137728960Y-73825100D03*
D14*
X137728960Y-76365100D03*
%TD*%
D21*
%TO.C,SW1*%
X138917820Y-62918340D03*
X138917820Y-67418340D03*
X132417820Y-62918340D03*
X132417820Y-67418340D03*
%TD*%
D11*
%TO.C,C4*%
X139679040Y-79766160D03*
X142179040Y-79766160D03*
%TD*%
D19*
%TO.C,R2*%
X162184080Y-104272080D03*
D20*
X154564080Y-104272080D03*
%TD*%
D15*
%TO.C,16Mhz*%
X140256260Y-99240680D03*
X140256260Y-94340680D03*
%TD*%
D19*
%TO.C,R1*%
X142062200Y-81991200D03*
D20*
X142062200Y-89611200D03*
%TD*%
D11*
%TO.C,C3*%
X155500000Y-86700000D03*
D12*
X157500000Y-86700000D03*
%TD*%
D11*
%TO.C,C2*%
X142107920Y-104187620D03*
X142107920Y-106687620D03*
%TD*%
%TO.C,C1*%
X139291060Y-106721280D03*
X139291060Y-104221280D03*
%TD*%
M02*
