%TF.GenerationSoftware,KiCad,Pcbnew,(5.1.6-0-10_14)*%
%TF.CreationDate,2020-10-03T22:08:30-04:00*%
%TF.ProjectId,weather_external,77656174-6865-4725-9f65-787465726e61,rev?*%
%TF.SameCoordinates,Original*%
%TF.FileFunction,Copper,L1,Top*%
%TF.FilePolarity,Positive*%
%FSLAX46Y46*%
G04 Gerber Fmt 4.6, Leading zero omitted, Abs format (unit mm)*
G04 Created by KiCad (PCBNEW (5.1.6-0-10_14)) date 2020-10-03 22:08:30*
%MOMM*%
%LPD*%
G01*
G04 APERTURE LIST*
%TA.AperFunction,SMDPad,CuDef*%
%ADD10R,1.500000X1.000000*%
%TD*%
%TA.AperFunction,ComponentPad*%
%ADD11C,1.600000*%
%TD*%
%TA.AperFunction,ComponentPad*%
%ADD12R,1.600000X1.600000*%
%TD*%
%TA.AperFunction,ComponentPad*%
%ADD13O,1.700000X1.700000*%
%TD*%
%TA.AperFunction,ComponentPad*%
%ADD14R,1.700000X1.700000*%
%TD*%
%TA.AperFunction,ComponentPad*%
%ADD15C,1.500000*%
%TD*%
%TA.AperFunction,ComponentPad*%
%ADD16R,1.500000X1.500000*%
%TD*%
%TA.AperFunction,SMDPad,CuDef*%
%ADD17R,0.800000X0.900000*%
%TD*%
%TA.AperFunction,ComponentPad*%
%ADD18O,1.600000X1.600000*%
%TD*%
%TA.AperFunction,ComponentPad*%
%ADD19O,1.400000X1.400000*%
%TD*%
%TA.AperFunction,ComponentPad*%
%ADD20C,1.400000*%
%TD*%
%TA.AperFunction,ComponentPad*%
%ADD21C,2.000000*%
%TD*%
%TA.AperFunction,Conductor*%
%ADD22C,0.250000*%
%TD*%
%TA.AperFunction,Conductor*%
%ADD23C,0.254000*%
%TD*%
G04 APERTURE END LIST*
D10*
%TO.P,JP1,1*%
%TO.N,VCC*%
X161900000Y-78850000D03*
%TO.P,JP1,2*%
%TO.N,Net-(C6-Pad1)*%
X161900000Y-80150000D03*
%TD*%
D11*
%TO.P,Atmega328,28*%
%TO.N,N/C*%
X152400000Y-73660000D03*
%TO.P,Atmega328,27*%
X152400000Y-76200000D03*
%TO.P,Atmega328,26*%
X152400000Y-78740000D03*
%TO.P,Atmega328,25*%
X152400000Y-81280000D03*
%TO.P,Atmega328,24*%
X152400000Y-83820000D03*
%TO.P,Atmega328,23*%
X152400000Y-86360000D03*
%TO.P,Atmega328,22*%
%TO.N,GND*%
X152400000Y-88900000D03*
%TO.P,Atmega328,21*%
%TO.N,N/C*%
X152400000Y-91440000D03*
%TO.P,Atmega328,20*%
%TO.N,VCC*%
X152400000Y-93980000D03*
%TO.P,Atmega328,19*%
%TO.N,Net-(J5-Pad5)*%
X152400000Y-96520000D03*
%TO.P,Atmega328,18*%
%TO.N,Net-(J5-Pad7)*%
X152400000Y-99060000D03*
%TO.P,Atmega328,17*%
%TO.N,Net-(J5-Pad6)*%
X152400000Y-101600000D03*
%TO.P,Atmega328,16*%
%TO.N,Net-(J5-Pad4)*%
X152400000Y-104140000D03*
%TO.P,Atmega328,15*%
%TO.N,N/C*%
X152400000Y-106680000D03*
%TO.P,Atmega328,14*%
%TO.N,Net-(J5-Pad3)*%
X144780000Y-106680000D03*
%TO.P,Atmega328,13*%
%TO.N,Net-(C7-Pad2)*%
X144780000Y-104140000D03*
%TO.P,Atmega328,12*%
%TO.N,Net-(U1-Pad12)*%
X144780000Y-101600000D03*
%TO.P,Atmega328,11*%
%TO.N,N/C*%
X144780000Y-99060000D03*
%TO.P,Atmega328,10*%
%TO.N,Net-(C2-Pad2)*%
X144780000Y-96520000D03*
%TO.P,Atmega328,9*%
%TO.N,Net-(C1-Pad1)*%
X144780000Y-93980000D03*
%TO.P,Atmega328,8*%
%TO.N,GND*%
X144780000Y-91440000D03*
%TO.P,Atmega328,7*%
%TO.N,VCC*%
X144780000Y-88900000D03*
%TO.P,Atmega328,6*%
%TO.N,N/C*%
X144780000Y-86360000D03*
%TO.P,Atmega328,5*%
%TO.N,Net-(R2-Pad1)*%
X144780000Y-83820000D03*
%TO.P,Atmega328,4*%
%TO.N,Net-(U1-Pad4)*%
X144780000Y-81280000D03*
%TO.P,Atmega328,3*%
%TO.N,Net-(J3-Pad1)*%
X144780000Y-78740000D03*
%TO.P,Atmega328,2*%
%TO.N,Net-(J3-Pad2)*%
X144780000Y-76200000D03*
D12*
%TO.P,Atmega328,1*%
%TO.N,Net-(C4-Pad1)*%
X144780000Y-73660000D03*
%TD*%
D11*
%TO.P,C7,2*%
%TO.N,Net-(C7-Pad2)*%
X132600000Y-98500000D03*
%TO.P,C7,1*%
%TO.N,GND*%
X135100000Y-98500000D03*
%TD*%
%TO.P,C6,2*%
%TO.N,GND*%
X162300000Y-107800000D03*
%TO.P,C6,1*%
%TO.N,Net-(C6-Pad1)*%
X164800000Y-107800000D03*
%TD*%
D13*
%TO.P,NRF24L01,8*%
%TO.N,N/C*%
X159860000Y-92280000D03*
%TO.P,NRF24L01,7*%
%TO.N,Net-(J5-Pad7)*%
X162400000Y-92280000D03*
%TO.P,NRF24L01,6*%
%TO.N,Net-(J5-Pad6)*%
X159860000Y-94820000D03*
%TO.P,NRF24L01,5*%
%TO.N,Net-(J5-Pad5)*%
X162400000Y-94820000D03*
%TO.P,NRF24L01,4*%
%TO.N,Net-(J5-Pad4)*%
X159860000Y-97360000D03*
%TO.P,NRF24L01,3*%
%TO.N,Net-(J5-Pad3)*%
X162400000Y-97360000D03*
%TO.P,NRF24L01,2*%
%TO.N,Net-(C6-Pad1)*%
X159860000Y-99900000D03*
D14*
%TO.P,NRF24L01,1*%
%TO.N,GND*%
X162400000Y-99900000D03*
%TD*%
D15*
%TO.P,DHT11,4*%
%TO.N,GND*%
X134300000Y-84680000D03*
%TO.P,DHT11,3*%
%TO.N,N/C*%
X134300000Y-87220000D03*
%TO.P,DHT11,2*%
%TO.N,Net-(U1-Pad12)*%
X134300000Y-89760000D03*
D16*
%TO.P,DHT11,1*%
%TO.N,Net-(C7-Pad2)*%
X134300000Y-92300000D03*
%TD*%
D17*
%TO.P,U4,3*%
%TO.N,VCC*%
X157900000Y-78700000D03*
%TO.P,U4,2*%
%TO.N,Net-(C6-Pad1)*%
X158850000Y-80700000D03*
%TO.P,U4,1*%
%TO.N,GND*%
X156950000Y-80700000D03*
%TD*%
%TO.P,D1,2*%
%TO.N,GND*%
%TA.AperFunction,SMDPad,CuDef*%
G36*
G01*
X158212980Y-107217200D02*
X158212980Y-107692200D01*
G75*
G02*
X157975480Y-107929700I-237500J0D01*
G01*
X157400480Y-107929700D01*
G75*
G02*
X157162980Y-107692200I0J237500D01*
G01*
X157162980Y-107217200D01*
G75*
G02*
X157400480Y-106979700I237500J0D01*
G01*
X157975480Y-106979700D01*
G75*
G02*
X158212980Y-107217200I0J-237500D01*
G01*
G37*
%TD.AperFunction*%
%TO.P,D1,1*%
%TO.N,Net-(D1-Pad1)*%
%TA.AperFunction,SMDPad,CuDef*%
G36*
G01*
X159962980Y-107217200D02*
X159962980Y-107692200D01*
G75*
G02*
X159725480Y-107929700I-237500J0D01*
G01*
X159150480Y-107929700D01*
G75*
G02*
X158912980Y-107692200I0J237500D01*
G01*
X158912980Y-107217200D01*
G75*
G02*
X159150480Y-106979700I237500J0D01*
G01*
X159725480Y-106979700D01*
G75*
G02*
X159962980Y-107217200I0J-237500D01*
G01*
G37*
%TD.AperFunction*%
%TD*%
D18*
%TO.P,NE555,8*%
%TO.N,VCC*%
X150400000Y-58180000D03*
%TO.P,NE555,4*%
X158020000Y-65800000D03*
%TO.P,NE555,7*%
%TO.N,Net-(R3-Pad1)*%
X152940000Y-58180000D03*
%TO.P,NE555,3*%
%TO.N,Net-(U1-Pad4)*%
X155480000Y-65800000D03*
%TO.P,NE555,6*%
%TO.N,Net-(C5-Pad1)*%
X155480000Y-58180000D03*
%TO.P,NE555,2*%
X152940000Y-65800000D03*
%TO.P,NE555,5*%
%TO.N,N/C*%
X158020000Y-58180000D03*
D12*
%TO.P,NE555,1*%
%TO.N,GND*%
X150400000Y-65800000D03*
%TD*%
D19*
%TO.P,R4,2*%
%TO.N,Net-(R3-Pad1)*%
X146950900Y-65792160D03*
D20*
%TO.P,R4,1*%
%TO.N,VCC*%
X146950900Y-58172160D03*
%TD*%
D19*
%TO.P,R3,2*%
%TO.N,Net-(C5-Pad1)*%
X144098480Y-65792160D03*
D20*
%TO.P,R3,1*%
%TO.N,Net-(R3-Pad1)*%
X144098480Y-58172160D03*
%TD*%
D11*
%TO.P,C5,2*%
%TO.N,GND*%
X157000000Y-70800000D03*
D12*
%TO.P,C5,1*%
%TO.N,Net-(C5-Pad1)*%
X159000000Y-70800000D03*
%TD*%
D13*
%TO.P,J3,3*%
%TO.N,Net-(C4-Pad2)*%
X141439900Y-71561960D03*
%TO.P,J3,2*%
%TO.N,Net-(J3-Pad2)*%
X141439900Y-74101960D03*
D14*
%TO.P,J3,1*%
%TO.N,Net-(J3-Pad1)*%
X141439900Y-76641960D03*
%TD*%
D13*
%TO.P,J4,2*%
%TO.N,VCC*%
X163000000Y-60760000D03*
D14*
%TO.P,J4,1*%
%TO.N,GND*%
X163000000Y-63300000D03*
%TD*%
D13*
%TO.P,J2,2*%
%TO.N,GND*%
X137728960Y-73825100D03*
D14*
%TO.P,J2,1*%
%TO.N,VCC*%
X137728960Y-76365100D03*
%TD*%
D21*
%TO.P,SW1,1*%
%TO.N,GND*%
X138917820Y-62918340D03*
%TO.P,SW1,2*%
%TO.N,Net-(C4-Pad1)*%
X138917820Y-67418340D03*
%TO.P,SW1,1*%
%TO.N,GND*%
X132417820Y-62918340D03*
%TO.P,SW1,2*%
%TO.N,Net-(C4-Pad1)*%
X132417820Y-67418340D03*
%TD*%
D11*
%TO.P,C4,2*%
%TO.N,Net-(C4-Pad2)*%
X139679040Y-79766160D03*
%TO.P,C4,1*%
%TO.N,Net-(C4-Pad1)*%
X142179040Y-79766160D03*
%TD*%
D19*
%TO.P,R2,2*%
%TO.N,Net-(D1-Pad1)*%
X162184080Y-104272080D03*
D20*
%TO.P,R2,1*%
%TO.N,Net-(R2-Pad1)*%
X154564080Y-104272080D03*
%TD*%
D15*
%TO.P,16Mhz,2*%
%TO.N,Net-(C2-Pad2)*%
X140256260Y-99240680D03*
%TO.P,16Mhz,1*%
%TO.N,Net-(C1-Pad1)*%
X140256260Y-94340680D03*
%TD*%
D19*
%TO.P,R1,2*%
%TO.N,Net-(C4-Pad1)*%
X142062200Y-81991200D03*
D20*
%TO.P,R1,1*%
%TO.N,VCC*%
X142062200Y-89611200D03*
%TD*%
D11*
%TO.P,C3,2*%
%TO.N,GND*%
X155500000Y-86700000D03*
D12*
%TO.P,C3,1*%
%TO.N,VCC*%
X157500000Y-86700000D03*
%TD*%
D11*
%TO.P,C2,2*%
%TO.N,Net-(C2-Pad2)*%
X142107920Y-104187620D03*
%TO.P,C2,1*%
%TO.N,GND*%
X142107920Y-106687620D03*
%TD*%
%TO.P,C1,2*%
%TO.N,GND*%
X139291060Y-106721280D03*
%TO.P,C1,1*%
%TO.N,Net-(C1-Pad1)*%
X139291060Y-104221280D03*
%TD*%
D22*
%TO.N,VCC*%
X144780000Y-88900000D02*
X149860000Y-88900000D01*
X149860000Y-91440000D02*
X149860000Y-88900000D01*
X152400000Y-93980000D02*
X149860000Y-91440000D01*
X152796240Y-93583760D02*
X152400000Y-93980000D01*
X144068800Y-89611200D02*
X144780000Y-88900000D01*
X142062200Y-89611200D02*
X144068800Y-89611200D01*
X138404600Y-77040740D02*
X137728960Y-76365100D01*
X158020000Y-65800000D02*
X150400000Y-58180000D01*
X137728960Y-85277960D02*
X137728960Y-76365100D01*
X142062200Y-89611200D02*
X137728960Y-85277960D01*
X160125001Y-76474999D02*
X157900000Y-78700000D01*
X160125001Y-67905001D02*
X160125001Y-76474999D01*
X159910000Y-67690000D02*
X160125001Y-67905001D01*
X158020000Y-65800000D02*
X159910000Y-67690000D01*
X158020000Y-65740000D02*
X158020000Y-65800000D01*
X163000000Y-60760000D02*
X158020000Y-65740000D01*
X157900000Y-86300000D02*
X157900000Y-78700000D01*
X157500000Y-86700000D02*
X157900000Y-86300000D01*
X157500000Y-88880000D02*
X157500000Y-86700000D01*
X152400000Y-93980000D02*
X157500000Y-88880000D01*
X160125001Y-77075001D02*
X161900000Y-78850000D01*
X160125001Y-76474999D02*
X160125001Y-77075001D01*
%TO.N,Net-(C1-Pad1)*%
X140616940Y-93980000D02*
X140256260Y-94340680D01*
X139181259Y-104111479D02*
X139291060Y-104221280D01*
X144419320Y-94340680D02*
X144780000Y-93980000D01*
X140256260Y-94340680D02*
X144419320Y-94340680D01*
%TO.N,Net-(C2-Pad2)*%
X142976940Y-96520000D02*
X140256260Y-99240680D01*
X144780000Y-96520000D02*
X142976940Y-96520000D01*
%TO.N,Net-(D1-Pad1)*%
X162184080Y-105321100D02*
X160050480Y-107454700D01*
X162184080Y-104272080D02*
X162184080Y-105321100D01*
X160050480Y-107454700D02*
X159437980Y-107454700D01*
%TO.N,Net-(C4-Pad2)*%
X140679170Y-72322690D02*
X141439900Y-71561960D01*
X140679170Y-73061830D02*
X140679170Y-72322690D01*
X139671420Y-74069580D02*
X140679170Y-73061830D01*
X139671420Y-79758540D02*
X139679040Y-79766160D01*
X139671420Y-79529940D02*
X139671420Y-78401540D01*
X139671420Y-78401540D02*
X139671420Y-79758540D01*
X139671420Y-78401540D02*
X139671420Y-74069580D01*
%TO.N,Net-(C4-Pad1)*%
X142062200Y-79639160D02*
X142171420Y-79529940D01*
X142062200Y-81991200D02*
X142062200Y-79639160D01*
X143290541Y-75149459D02*
X144780000Y-73660000D01*
X143290541Y-78410819D02*
X143290541Y-75149459D01*
X142171420Y-79529940D02*
X143290541Y-78410819D01*
X139588340Y-67418340D02*
X138917820Y-67418340D01*
X144780000Y-72610000D02*
X139588340Y-67418340D01*
X144780000Y-73660000D02*
X144780000Y-72610000D01*
X138917820Y-67418340D02*
X132417820Y-67418340D01*
%TO.N,Net-(J5-Pad3)*%
X145905001Y-107805001D02*
X144780000Y-106680000D01*
X153694001Y-107805001D02*
X145905001Y-107805001D01*
X161035001Y-100464001D02*
X153694001Y-107805001D01*
X161035001Y-98724999D02*
X161035001Y-100464001D01*
X162400000Y-97360000D02*
X161035001Y-98724999D01*
%TO.N,Net-(C5-Pad1)*%
X156814999Y-69674999D02*
X152940000Y-65800000D01*
X157874999Y-69674999D02*
X156814999Y-69674999D01*
X159000000Y-70800000D02*
X157874999Y-69674999D01*
%TO.N,Net-(U1-Pad12)*%
X134300000Y-89760000D02*
X137100000Y-92560000D01*
X137100000Y-92560000D02*
X137100000Y-98800000D01*
X139900000Y-101600000D02*
X144780000Y-101600000D01*
X137100000Y-98800000D02*
X139900000Y-101600000D01*
%TO.N,Net-(J5-Pad7)*%
X161224999Y-93455001D02*
X158004999Y-93455001D01*
X158004999Y-93455001D02*
X152400000Y-99060000D01*
X162400000Y-92280000D02*
X161224999Y-93455001D01*
%TO.N,Net-(J5-Pad6)*%
X153080000Y-101600000D02*
X152400000Y-101600000D01*
X159860000Y-94820000D02*
X153080000Y-101600000D01*
%TO.N,Net-(J5-Pad4)*%
X152400000Y-104140000D02*
X152914998Y-104140000D01*
X153080000Y-104140000D02*
X152400000Y-104140000D01*
X159860000Y-97360000D02*
X153080000Y-104140000D01*
%TO.N,Net-(C6-Pad1)*%
X163575001Y-95384001D02*
X163575001Y-85425001D01*
X162025997Y-95995001D02*
X162964001Y-95995001D01*
X162964001Y-95995001D02*
X163575001Y-95384001D01*
X161224999Y-96795999D02*
X162025997Y-95995001D01*
X159860000Y-99099002D02*
X161224999Y-97734003D01*
X161224999Y-97734003D02*
X161224999Y-96795999D01*
X159860000Y-99900000D02*
X159860000Y-99099002D01*
X161900000Y-80150000D02*
X161900000Y-82500000D01*
X161900000Y-82500000D02*
X161275000Y-83125000D01*
X161275000Y-83125000D02*
X158850000Y-80700000D01*
X163575001Y-85425001D02*
X161275000Y-83125000D01*
%TO.N,Net-(C7-Pad2)*%
X134300000Y-96800000D02*
X132600000Y-98500000D01*
X134300000Y-92300000D02*
X134300000Y-96800000D01*
X132600000Y-98500000D02*
X136700000Y-102600000D01*
X143240000Y-102600000D02*
X144780000Y-104140000D01*
X136700000Y-102600000D02*
X143240000Y-102600000D01*
%TD*%
D23*
%TO.N,GND*%
G36*
X166340001Y-111249860D02*
G01*
X129660000Y-111249860D01*
X129660000Y-108792702D01*
X161486903Y-108792702D01*
X161558486Y-109036671D01*
X161813996Y-109157571D01*
X162088184Y-109226300D01*
X162370512Y-109240217D01*
X162650130Y-109198787D01*
X162916292Y-109103603D01*
X163041514Y-109036671D01*
X163113097Y-108792702D01*
X162300000Y-107979605D01*
X161486903Y-108792702D01*
X129660000Y-108792702D01*
X129660000Y-107713982D01*
X138477963Y-107713982D01*
X138549546Y-107957951D01*
X138805056Y-108078851D01*
X139079244Y-108147580D01*
X139361572Y-108161497D01*
X139641190Y-108120067D01*
X139907352Y-108024883D01*
X140032574Y-107957951D01*
X140104157Y-107713982D01*
X140070497Y-107680322D01*
X141294823Y-107680322D01*
X141366406Y-107924291D01*
X141621916Y-108045191D01*
X141896104Y-108113920D01*
X142178432Y-108127837D01*
X142458050Y-108086407D01*
X142724212Y-107991223D01*
X142849434Y-107924291D01*
X142921017Y-107680322D01*
X142107920Y-106867225D01*
X141294823Y-107680322D01*
X140070497Y-107680322D01*
X139291060Y-106900885D01*
X138477963Y-107713982D01*
X129660000Y-107713982D01*
X129660000Y-106791792D01*
X137850843Y-106791792D01*
X137892273Y-107071410D01*
X137987457Y-107337572D01*
X138054389Y-107462794D01*
X138298358Y-107534377D01*
X139111455Y-106721280D01*
X139470665Y-106721280D01*
X140283762Y-107534377D01*
X140527731Y-107462794D01*
X140648631Y-107207284D01*
X140702444Y-106992603D01*
X140709133Y-107037750D01*
X140804317Y-107303912D01*
X140871249Y-107429134D01*
X141115218Y-107500717D01*
X141928315Y-106687620D01*
X141115218Y-105874523D01*
X140871249Y-105946106D01*
X140750349Y-106201616D01*
X140696536Y-106416297D01*
X140689847Y-106371150D01*
X140594663Y-106104988D01*
X140527731Y-105979766D01*
X140283762Y-105908183D01*
X139470665Y-106721280D01*
X139111455Y-106721280D01*
X138298358Y-105908183D01*
X138054389Y-105979766D01*
X137933489Y-106235276D01*
X137864760Y-106509464D01*
X137850843Y-106791792D01*
X129660000Y-106791792D01*
X129660000Y-84752492D01*
X132910188Y-84752492D01*
X132951035Y-85022238D01*
X133043723Y-85278832D01*
X133104140Y-85391863D01*
X133343007Y-85457388D01*
X134120395Y-84680000D01*
X134479605Y-84680000D01*
X135256993Y-85457388D01*
X135495860Y-85391863D01*
X135611760Y-85144884D01*
X135677250Y-84880040D01*
X135689812Y-84607508D01*
X135648965Y-84337762D01*
X135556277Y-84081168D01*
X135495860Y-83968137D01*
X135256993Y-83902612D01*
X134479605Y-84680000D01*
X134120395Y-84680000D01*
X133343007Y-83902612D01*
X133104140Y-83968137D01*
X132988240Y-84215116D01*
X132922750Y-84479960D01*
X132910188Y-84752492D01*
X129660000Y-84752492D01*
X129660000Y-83723007D01*
X133522612Y-83723007D01*
X134300000Y-84500395D01*
X135077388Y-83723007D01*
X135011863Y-83484140D01*
X134764884Y-83368240D01*
X134500040Y-83302750D01*
X134227508Y-83290188D01*
X133957762Y-83331035D01*
X133701168Y-83423723D01*
X133588137Y-83484140D01*
X133522612Y-83723007D01*
X129660000Y-83723007D01*
X129660000Y-73468210D01*
X136287484Y-73468210D01*
X136408805Y-73698100D01*
X137601960Y-73698100D01*
X137601960Y-72504286D01*
X137372069Y-72383619D01*
X137097708Y-72480943D01*
X136847605Y-72629922D01*
X136631372Y-72824831D01*
X136457319Y-73058180D01*
X136332135Y-73321001D01*
X136287484Y-73468210D01*
X129660000Y-73468210D01*
X129660000Y-67257307D01*
X130782820Y-67257307D01*
X130782820Y-67579373D01*
X130845652Y-67895252D01*
X130968902Y-68192803D01*
X131147833Y-68460592D01*
X131375568Y-68688327D01*
X131643357Y-68867258D01*
X131940908Y-68990508D01*
X132256787Y-69053340D01*
X132578853Y-69053340D01*
X132894732Y-68990508D01*
X133192283Y-68867258D01*
X133460072Y-68688327D01*
X133687807Y-68460592D01*
X133866738Y-68192803D01*
X133872729Y-68178340D01*
X137462911Y-68178340D01*
X137468902Y-68192803D01*
X137647833Y-68460592D01*
X137875568Y-68688327D01*
X138143357Y-68867258D01*
X138440908Y-68990508D01*
X138756787Y-69053340D01*
X139078853Y-69053340D01*
X139394732Y-68990508D01*
X139692283Y-68867258D01*
X139854240Y-68759041D01*
X141192314Y-70097115D01*
X141006742Y-70134028D01*
X140736489Y-70245970D01*
X140493268Y-70408485D01*
X140286425Y-70615328D01*
X140123910Y-70858549D01*
X140011968Y-71128802D01*
X139954900Y-71415700D01*
X139954900Y-71708220D01*
X140006690Y-71968583D01*
X139973624Y-72030444D01*
X139967333Y-72051185D01*
X139930167Y-72173704D01*
X139919170Y-72285357D01*
X139919170Y-72285368D01*
X139915494Y-72322690D01*
X139919170Y-72360012D01*
X139919170Y-72747028D01*
X139160418Y-73505781D01*
X139143114Y-73519982D01*
X139170436Y-73468210D01*
X139125785Y-73321001D01*
X139000601Y-73058180D01*
X138826548Y-72824831D01*
X138610315Y-72629922D01*
X138360212Y-72480943D01*
X138085851Y-72383619D01*
X137855960Y-72504286D01*
X137855960Y-73698100D01*
X137875960Y-73698100D01*
X137875960Y-73952100D01*
X137855960Y-73952100D01*
X137855960Y-73972100D01*
X137601960Y-73972100D01*
X137601960Y-73952100D01*
X136408805Y-73952100D01*
X136287484Y-74181990D01*
X136332135Y-74329199D01*
X136457319Y-74592020D01*
X136631372Y-74825369D01*
X136715426Y-74901134D01*
X136634780Y-74925598D01*
X136524466Y-74984563D01*
X136427775Y-75063915D01*
X136348423Y-75160606D01*
X136289458Y-75270920D01*
X136253148Y-75390618D01*
X136240888Y-75515100D01*
X136240888Y-77215100D01*
X136253148Y-77339582D01*
X136289458Y-77459280D01*
X136348423Y-77569594D01*
X136427775Y-77666285D01*
X136524466Y-77745637D01*
X136634780Y-77804602D01*
X136754478Y-77840912D01*
X136878960Y-77853172D01*
X136968961Y-77853172D01*
X136968960Y-85240638D01*
X136965284Y-85277960D01*
X136968960Y-85315282D01*
X136968960Y-85315292D01*
X136979957Y-85426945D01*
X137023414Y-85570206D01*
X137093986Y-85702236D01*
X137121861Y-85736201D01*
X137188959Y-85817961D01*
X137217963Y-85841764D01*
X140748555Y-89372357D01*
X140727200Y-89479714D01*
X140727200Y-89742686D01*
X140778504Y-90000605D01*
X140879139Y-90243559D01*
X141025238Y-90462213D01*
X141211187Y-90648162D01*
X141429841Y-90794261D01*
X141672795Y-90894896D01*
X141930714Y-90946200D01*
X142193686Y-90946200D01*
X142451605Y-90894896D01*
X142694559Y-90794261D01*
X142913213Y-90648162D01*
X143099162Y-90462213D01*
X143159975Y-90371200D01*
X143989231Y-90371200D01*
X143966903Y-90447298D01*
X144780000Y-91260395D01*
X145593097Y-90447298D01*
X145521514Y-90203329D01*
X145457008Y-90172806D01*
X145459727Y-90171680D01*
X145694759Y-90014637D01*
X145894637Y-89814759D01*
X145998043Y-89660000D01*
X149100001Y-89660000D01*
X149100000Y-91402677D01*
X149096324Y-91440000D01*
X149100000Y-91477322D01*
X149100000Y-91477332D01*
X149110997Y-91588985D01*
X149149587Y-91716201D01*
X149154454Y-91732246D01*
X149225026Y-91864276D01*
X149264871Y-91912826D01*
X149319999Y-91980001D01*
X149349003Y-92003804D01*
X151001312Y-93656114D01*
X150965000Y-93838665D01*
X150965000Y-94121335D01*
X151020147Y-94398574D01*
X151128320Y-94659727D01*
X151285363Y-94894759D01*
X151485241Y-95094637D01*
X151717759Y-95250000D01*
X151485241Y-95405363D01*
X151285363Y-95605241D01*
X151128320Y-95840273D01*
X151020147Y-96101426D01*
X150965000Y-96378665D01*
X150965000Y-96661335D01*
X151020147Y-96938574D01*
X151128320Y-97199727D01*
X151285363Y-97434759D01*
X151485241Y-97634637D01*
X151717759Y-97790000D01*
X151485241Y-97945363D01*
X151285363Y-98145241D01*
X151128320Y-98380273D01*
X151020147Y-98641426D01*
X150965000Y-98918665D01*
X150965000Y-99201335D01*
X151020147Y-99478574D01*
X151128320Y-99739727D01*
X151285363Y-99974759D01*
X151485241Y-100174637D01*
X151717759Y-100330000D01*
X151485241Y-100485363D01*
X151285363Y-100685241D01*
X151128320Y-100920273D01*
X151020147Y-101181426D01*
X150965000Y-101458665D01*
X150965000Y-101741335D01*
X151020147Y-102018574D01*
X151128320Y-102279727D01*
X151285363Y-102514759D01*
X151485241Y-102714637D01*
X151717759Y-102870000D01*
X151485241Y-103025363D01*
X151285363Y-103225241D01*
X151128320Y-103460273D01*
X151020147Y-103721426D01*
X150965000Y-103998665D01*
X150965000Y-104281335D01*
X151020147Y-104558574D01*
X151128320Y-104819727D01*
X151285363Y-105054759D01*
X151485241Y-105254637D01*
X151717759Y-105410000D01*
X151485241Y-105565363D01*
X151285363Y-105765241D01*
X151128320Y-106000273D01*
X151020147Y-106261426D01*
X150965000Y-106538665D01*
X150965000Y-106821335D01*
X151009491Y-107045001D01*
X146219803Y-107045001D01*
X146178688Y-107003886D01*
X146215000Y-106821335D01*
X146215000Y-106538665D01*
X146159853Y-106261426D01*
X146051680Y-106000273D01*
X145894637Y-105765241D01*
X145694759Y-105565363D01*
X145462241Y-105410000D01*
X145694759Y-105254637D01*
X145894637Y-105054759D01*
X146051680Y-104819727D01*
X146159853Y-104558574D01*
X146215000Y-104281335D01*
X146215000Y-103998665D01*
X146159853Y-103721426D01*
X146051680Y-103460273D01*
X145894637Y-103225241D01*
X145694759Y-103025363D01*
X145462241Y-102870000D01*
X145694759Y-102714637D01*
X145894637Y-102514759D01*
X146051680Y-102279727D01*
X146159853Y-102018574D01*
X146215000Y-101741335D01*
X146215000Y-101458665D01*
X146159853Y-101181426D01*
X146051680Y-100920273D01*
X145894637Y-100685241D01*
X145694759Y-100485363D01*
X145462241Y-100330000D01*
X145694759Y-100174637D01*
X145894637Y-99974759D01*
X146051680Y-99739727D01*
X146159853Y-99478574D01*
X146215000Y-99201335D01*
X146215000Y-98918665D01*
X146159853Y-98641426D01*
X146051680Y-98380273D01*
X145894637Y-98145241D01*
X145694759Y-97945363D01*
X145462241Y-97790000D01*
X145694759Y-97634637D01*
X145894637Y-97434759D01*
X146051680Y-97199727D01*
X146159853Y-96938574D01*
X146215000Y-96661335D01*
X146215000Y-96378665D01*
X146159853Y-96101426D01*
X146051680Y-95840273D01*
X145894637Y-95605241D01*
X145694759Y-95405363D01*
X145462241Y-95250000D01*
X145694759Y-95094637D01*
X145894637Y-94894759D01*
X146051680Y-94659727D01*
X146159853Y-94398574D01*
X146215000Y-94121335D01*
X146215000Y-93838665D01*
X146159853Y-93561426D01*
X146051680Y-93300273D01*
X145894637Y-93065241D01*
X145694759Y-92865363D01*
X145460872Y-92709085D01*
X145521514Y-92676671D01*
X145593097Y-92432702D01*
X144780000Y-91619605D01*
X143966903Y-92432702D01*
X144038486Y-92676671D01*
X144102992Y-92707194D01*
X144100273Y-92708320D01*
X143865241Y-92865363D01*
X143665363Y-93065241D01*
X143508320Y-93300273D01*
X143400147Y-93561426D01*
X143396317Y-93580680D01*
X141414169Y-93580680D01*
X141332059Y-93457794D01*
X141139146Y-93264881D01*
X140912303Y-93113309D01*
X140660249Y-93008905D01*
X140392671Y-92955680D01*
X140119849Y-92955680D01*
X139852271Y-93008905D01*
X139600217Y-93113309D01*
X139373374Y-93264881D01*
X139180461Y-93457794D01*
X139028889Y-93684637D01*
X138924485Y-93936691D01*
X138871260Y-94204269D01*
X138871260Y-94477091D01*
X138924485Y-94744669D01*
X139028889Y-94996723D01*
X139180461Y-95223566D01*
X139373374Y-95416479D01*
X139600217Y-95568051D01*
X139852271Y-95672455D01*
X140119849Y-95725680D01*
X140392671Y-95725680D01*
X140660249Y-95672455D01*
X140912303Y-95568051D01*
X141139146Y-95416479D01*
X141332059Y-95223566D01*
X141414169Y-95100680D01*
X143874285Y-95100680D01*
X144097759Y-95250000D01*
X143865241Y-95405363D01*
X143665363Y-95605241D01*
X143561957Y-95760000D01*
X143014273Y-95760000D01*
X142976940Y-95756323D01*
X142939607Y-95760000D01*
X142827954Y-95770997D01*
X142684693Y-95814454D01*
X142552664Y-95885026D01*
X142436939Y-95979999D01*
X142413141Y-96008997D01*
X140537625Y-97884513D01*
X140392671Y-97855680D01*
X140119849Y-97855680D01*
X139852271Y-97908905D01*
X139600217Y-98013309D01*
X139373374Y-98164881D01*
X139180461Y-98357794D01*
X139028889Y-98584637D01*
X138924485Y-98836691D01*
X138871260Y-99104269D01*
X138871260Y-99377091D01*
X138900900Y-99526098D01*
X137860000Y-98485199D01*
X137860000Y-92597323D01*
X137863676Y-92560000D01*
X137860000Y-92522677D01*
X137860000Y-92522667D01*
X137849003Y-92411014D01*
X137805546Y-92267753D01*
X137759450Y-92181514D01*
X137734974Y-92135723D01*
X137663799Y-92048997D01*
X137640001Y-92019999D01*
X137611004Y-91996202D01*
X137125314Y-91510512D01*
X143339783Y-91510512D01*
X143381213Y-91790130D01*
X143476397Y-92056292D01*
X143543329Y-92181514D01*
X143787298Y-92253097D01*
X144600395Y-91440000D01*
X144959605Y-91440000D01*
X145772702Y-92253097D01*
X146016671Y-92181514D01*
X146137571Y-91926004D01*
X146206300Y-91651816D01*
X146220217Y-91369488D01*
X146178787Y-91089870D01*
X146083603Y-90823708D01*
X146016671Y-90698486D01*
X145772702Y-90626903D01*
X144959605Y-91440000D01*
X144600395Y-91440000D01*
X143787298Y-90626903D01*
X143543329Y-90698486D01*
X143422429Y-90953996D01*
X143353700Y-91228184D01*
X143339783Y-91510512D01*
X137125314Y-91510512D01*
X135656167Y-90041365D01*
X135685000Y-89896411D01*
X135685000Y-89623589D01*
X135631775Y-89356011D01*
X135527371Y-89103957D01*
X135375799Y-88877114D01*
X135182886Y-88684201D01*
X134956043Y-88532629D01*
X134853127Y-88490000D01*
X134956043Y-88447371D01*
X135182886Y-88295799D01*
X135375799Y-88102886D01*
X135527371Y-87876043D01*
X135631775Y-87623989D01*
X135685000Y-87356411D01*
X135685000Y-87083589D01*
X135631775Y-86816011D01*
X135527371Y-86563957D01*
X135375799Y-86337114D01*
X135182886Y-86144201D01*
X134956043Y-85992629D01*
X134856721Y-85951489D01*
X134898832Y-85936277D01*
X135011863Y-85875860D01*
X135077388Y-85636993D01*
X134300000Y-84859605D01*
X133522612Y-85636993D01*
X133588137Y-85875860D01*
X133746477Y-85950164D01*
X133643957Y-85992629D01*
X133417114Y-86144201D01*
X133224201Y-86337114D01*
X133072629Y-86563957D01*
X132968225Y-86816011D01*
X132915000Y-87083589D01*
X132915000Y-87356411D01*
X132968225Y-87623989D01*
X133072629Y-87876043D01*
X133224201Y-88102886D01*
X133417114Y-88295799D01*
X133643957Y-88447371D01*
X133746873Y-88490000D01*
X133643957Y-88532629D01*
X133417114Y-88684201D01*
X133224201Y-88877114D01*
X133072629Y-89103957D01*
X132968225Y-89356011D01*
X132915000Y-89623589D01*
X132915000Y-89896411D01*
X132968225Y-90163989D01*
X133072629Y-90416043D01*
X133224201Y-90642886D01*
X133417114Y-90835799D01*
X133533483Y-90913555D01*
X133425518Y-90924188D01*
X133305820Y-90960498D01*
X133195506Y-91019463D01*
X133098815Y-91098815D01*
X133019463Y-91195506D01*
X132960498Y-91305820D01*
X132924188Y-91425518D01*
X132911928Y-91550000D01*
X132911928Y-93050000D01*
X132924188Y-93174482D01*
X132960498Y-93294180D01*
X133019463Y-93404494D01*
X133098815Y-93501185D01*
X133195506Y-93580537D01*
X133305820Y-93639502D01*
X133425518Y-93675812D01*
X133540000Y-93687087D01*
X133540001Y-96485197D01*
X132923886Y-97101312D01*
X132741335Y-97065000D01*
X132458665Y-97065000D01*
X132181426Y-97120147D01*
X131920273Y-97228320D01*
X131685241Y-97385363D01*
X131485363Y-97585241D01*
X131328320Y-97820273D01*
X131220147Y-98081426D01*
X131165000Y-98358665D01*
X131165000Y-98641335D01*
X131220147Y-98918574D01*
X131328320Y-99179727D01*
X131485363Y-99414759D01*
X131685241Y-99614637D01*
X131920273Y-99771680D01*
X132181426Y-99879853D01*
X132458665Y-99935000D01*
X132741335Y-99935000D01*
X132923887Y-99898688D01*
X136136200Y-103111002D01*
X136159999Y-103140001D01*
X136188997Y-103163799D01*
X136275724Y-103234974D01*
X136407753Y-103305546D01*
X136551014Y-103349003D01*
X136700000Y-103363677D01*
X136737333Y-103360000D01*
X138140690Y-103360000D01*
X138019380Y-103541553D01*
X137911207Y-103802706D01*
X137856060Y-104079945D01*
X137856060Y-104362615D01*
X137911207Y-104639854D01*
X138019380Y-104901007D01*
X138176423Y-105136039D01*
X138376301Y-105335917D01*
X138576929Y-105469972D01*
X138549546Y-105484609D01*
X138477963Y-105728578D01*
X139291060Y-106541675D01*
X140104157Y-105728578D01*
X140032574Y-105484609D01*
X140003719Y-105470956D01*
X140205819Y-105335917D01*
X140405697Y-105136039D01*
X140562740Y-104901007D01*
X140670913Y-104639854D01*
X140702838Y-104479360D01*
X140728067Y-104606194D01*
X140836240Y-104867347D01*
X140993283Y-105102379D01*
X141193161Y-105302257D01*
X141393789Y-105436312D01*
X141366406Y-105450949D01*
X141294823Y-105694918D01*
X142107920Y-106508015D01*
X142921017Y-105694918D01*
X142849434Y-105450949D01*
X142820579Y-105437296D01*
X143022679Y-105302257D01*
X143222557Y-105102379D01*
X143379600Y-104867347D01*
X143453822Y-104688158D01*
X143508320Y-104819727D01*
X143665363Y-105054759D01*
X143865241Y-105254637D01*
X144097759Y-105410000D01*
X143865241Y-105565363D01*
X143665363Y-105765241D01*
X143508320Y-106000273D01*
X143442736Y-106158608D01*
X143411523Y-106071328D01*
X143344591Y-105946106D01*
X143100622Y-105874523D01*
X142287525Y-106687620D01*
X143100622Y-107500717D01*
X143344591Y-107429134D01*
X143447224Y-107212229D01*
X143508320Y-107359727D01*
X143665363Y-107594759D01*
X143865241Y-107794637D01*
X144100273Y-107951680D01*
X144361426Y-108059853D01*
X144638665Y-108115000D01*
X144921335Y-108115000D01*
X145103886Y-108078688D01*
X145341202Y-108316004D01*
X145365000Y-108345002D01*
X145480725Y-108439975D01*
X145612754Y-108510547D01*
X145756015Y-108554004D01*
X145867668Y-108565001D01*
X145867676Y-108565001D01*
X145905001Y-108568677D01*
X145942326Y-108565001D01*
X153656679Y-108565001D01*
X153694001Y-108568677D01*
X153731323Y-108565001D01*
X153731334Y-108565001D01*
X153842987Y-108554004D01*
X153986248Y-108510547D01*
X154118277Y-108439975D01*
X154234002Y-108345002D01*
X154257805Y-108315998D01*
X154644103Y-107929700D01*
X156524908Y-107929700D01*
X156537168Y-108054182D01*
X156573478Y-108173880D01*
X156632443Y-108284194D01*
X156711795Y-108380885D01*
X156808486Y-108460237D01*
X156918800Y-108519202D01*
X157038498Y-108555512D01*
X157162980Y-108567772D01*
X157402230Y-108564700D01*
X157560980Y-108405950D01*
X157560980Y-107581700D01*
X156686730Y-107581700D01*
X156527980Y-107740450D01*
X156524908Y-107929700D01*
X154644103Y-107929700D01*
X155594103Y-106979700D01*
X156524908Y-106979700D01*
X156527980Y-107168950D01*
X156686730Y-107327700D01*
X157560980Y-107327700D01*
X157560980Y-106503450D01*
X157814980Y-106503450D01*
X157814980Y-107327700D01*
X157834980Y-107327700D01*
X157834980Y-107581700D01*
X157814980Y-107581700D01*
X157814980Y-108405950D01*
X157973730Y-108564700D01*
X158212980Y-108567772D01*
X158337462Y-108555512D01*
X158457160Y-108519202D01*
X158567474Y-108460237D01*
X158640141Y-108400601D01*
X158664038Y-108420212D01*
X158815413Y-108501123D01*
X158979664Y-108550948D01*
X159150480Y-108567772D01*
X159725480Y-108567772D01*
X159896296Y-108550948D01*
X160060547Y-108501123D01*
X160211922Y-108420212D01*
X160344603Y-108311323D01*
X160453492Y-108178642D01*
X160521590Y-108051238D01*
X160590481Y-107994701D01*
X160614284Y-107965697D01*
X160867577Y-107712404D01*
X160859783Y-107870512D01*
X160901213Y-108150130D01*
X160996397Y-108416292D01*
X161063329Y-108541514D01*
X161307298Y-108613097D01*
X162120395Y-107800000D01*
X162479605Y-107800000D01*
X163292702Y-108613097D01*
X163536671Y-108541514D01*
X163550324Y-108512659D01*
X163685363Y-108714759D01*
X163885241Y-108914637D01*
X164120273Y-109071680D01*
X164381426Y-109179853D01*
X164658665Y-109235000D01*
X164941335Y-109235000D01*
X165218574Y-109179853D01*
X165479727Y-109071680D01*
X165714759Y-108914637D01*
X165914637Y-108714759D01*
X166071680Y-108479727D01*
X166179853Y-108218574D01*
X166235000Y-107941335D01*
X166235000Y-107658665D01*
X166179853Y-107381426D01*
X166071680Y-107120273D01*
X165914637Y-106885241D01*
X165714759Y-106685363D01*
X165479727Y-106528320D01*
X165218574Y-106420147D01*
X164941335Y-106365000D01*
X164658665Y-106365000D01*
X164381426Y-106420147D01*
X164120273Y-106528320D01*
X163885241Y-106685363D01*
X163685363Y-106885241D01*
X163551308Y-107085869D01*
X163536671Y-107058486D01*
X163292702Y-106986903D01*
X162479605Y-107800000D01*
X162120395Y-107800000D01*
X162106253Y-107785858D01*
X162285858Y-107606253D01*
X162300000Y-107620395D01*
X163113097Y-106807298D01*
X163041514Y-106563329D01*
X162786004Y-106442429D01*
X162511816Y-106373700D01*
X162229488Y-106359783D01*
X162218583Y-106361399D01*
X162695083Y-105884899D01*
X162724081Y-105861101D01*
X162750412Y-105829017D01*
X162819054Y-105745377D01*
X162889626Y-105613347D01*
X162903541Y-105567473D01*
X162933083Y-105470086D01*
X162942876Y-105370659D01*
X163035093Y-105309042D01*
X163221042Y-105123093D01*
X163367141Y-104904439D01*
X163467776Y-104661485D01*
X163519080Y-104403566D01*
X163519080Y-104140594D01*
X163467776Y-103882675D01*
X163367141Y-103639721D01*
X163221042Y-103421067D01*
X163035093Y-103235118D01*
X162816439Y-103089019D01*
X162573485Y-102988384D01*
X162315566Y-102937080D01*
X162052594Y-102937080D01*
X161794675Y-102988384D01*
X161551721Y-103089019D01*
X161333067Y-103235118D01*
X161147118Y-103421067D01*
X161001019Y-103639721D01*
X160900384Y-103882675D01*
X160849080Y-104140594D01*
X160849080Y-104403566D01*
X160900384Y-104661485D01*
X161001019Y-104904439D01*
X161147118Y-105123093D01*
X161227202Y-105203177D01*
X160031050Y-106399329D01*
X159896296Y-106358452D01*
X159725480Y-106341628D01*
X159150480Y-106341628D01*
X158979664Y-106358452D01*
X158815413Y-106408277D01*
X158664038Y-106489188D01*
X158640141Y-106508799D01*
X158567474Y-106449163D01*
X158457160Y-106390198D01*
X158337462Y-106353888D01*
X158212980Y-106341628D01*
X157973730Y-106344700D01*
X157814980Y-106503450D01*
X157560980Y-106503450D01*
X157402230Y-106344700D01*
X157162980Y-106341628D01*
X157038498Y-106353888D01*
X156918800Y-106390198D01*
X156808486Y-106449163D01*
X156711795Y-106528515D01*
X156632443Y-106625206D01*
X156573478Y-106735520D01*
X156537168Y-106855218D01*
X156524908Y-106979700D01*
X155594103Y-106979700D01*
X161259214Y-101314590D01*
X161305820Y-101339502D01*
X161425518Y-101375812D01*
X161550000Y-101388072D01*
X162114250Y-101385000D01*
X162273000Y-101226250D01*
X162273000Y-100027000D01*
X162527000Y-100027000D01*
X162527000Y-101226250D01*
X162685750Y-101385000D01*
X163250000Y-101388072D01*
X163374482Y-101375812D01*
X163494180Y-101339502D01*
X163604494Y-101280537D01*
X163701185Y-101201185D01*
X163780537Y-101104494D01*
X163839502Y-100994180D01*
X163875812Y-100874482D01*
X163888072Y-100750000D01*
X163885000Y-100185750D01*
X163726250Y-100027000D01*
X162527000Y-100027000D01*
X162273000Y-100027000D01*
X162253000Y-100027000D01*
X162253000Y-99773000D01*
X162273000Y-99773000D01*
X162273000Y-99753000D01*
X162527000Y-99753000D01*
X162527000Y-99773000D01*
X163726250Y-99773000D01*
X163885000Y-99614250D01*
X163888072Y-99050000D01*
X163875812Y-98925518D01*
X163839502Y-98805820D01*
X163780537Y-98695506D01*
X163701185Y-98598815D01*
X163604494Y-98519463D01*
X163494180Y-98460498D01*
X163421620Y-98438487D01*
X163553475Y-98306632D01*
X163715990Y-98063411D01*
X163827932Y-97793158D01*
X163885000Y-97506260D01*
X163885000Y-97213740D01*
X163827932Y-96926842D01*
X163715990Y-96656589D01*
X163580296Y-96453508D01*
X164086010Y-95947795D01*
X164115002Y-95924002D01*
X164138796Y-95895009D01*
X164138800Y-95895005D01*
X164209974Y-95808278D01*
X164209975Y-95808277D01*
X164280547Y-95676248D01*
X164324004Y-95532987D01*
X164335001Y-95421334D01*
X164335001Y-95421325D01*
X164338677Y-95384002D01*
X164335001Y-95346679D01*
X164335001Y-85462334D01*
X164338678Y-85425001D01*
X164324004Y-85276015D01*
X164280547Y-85132754D01*
X164209975Y-85000725D01*
X164138800Y-84913998D01*
X164115002Y-84885000D01*
X164086004Y-84861202D01*
X162349802Y-83125001D01*
X162411008Y-83063795D01*
X162440001Y-83040001D01*
X162463795Y-83011008D01*
X162463799Y-83011004D01*
X162534973Y-82924277D01*
X162534974Y-82924276D01*
X162605546Y-82792247D01*
X162649003Y-82648986D01*
X162660000Y-82537333D01*
X162660000Y-82537324D01*
X162663676Y-82500001D01*
X162660000Y-82462678D01*
X162660000Y-81287087D01*
X162774482Y-81275812D01*
X162894180Y-81239502D01*
X163004494Y-81180537D01*
X163101185Y-81101185D01*
X163180537Y-81004494D01*
X163239502Y-80894180D01*
X163275812Y-80774482D01*
X163288072Y-80650000D01*
X163288072Y-79650000D01*
X163275812Y-79525518D01*
X163268071Y-79500000D01*
X163275812Y-79474482D01*
X163288072Y-79350000D01*
X163288072Y-78350000D01*
X163275812Y-78225518D01*
X163239502Y-78105820D01*
X163180537Y-77995506D01*
X163101185Y-77898815D01*
X163004494Y-77819463D01*
X162894180Y-77760498D01*
X162774482Y-77724188D01*
X162650000Y-77711928D01*
X161836730Y-77711928D01*
X160885001Y-76760200D01*
X160885001Y-76512332D01*
X160888678Y-76474999D01*
X160885001Y-76437666D01*
X160885001Y-67942323D01*
X160888677Y-67905000D01*
X160885001Y-67867677D01*
X160885001Y-67867668D01*
X160874004Y-67756015D01*
X160830547Y-67612754D01*
X160759975Y-67480725D01*
X160665002Y-67365000D01*
X160635999Y-67341198D01*
X160473804Y-67179003D01*
X160473799Y-67178997D01*
X159418688Y-66123886D01*
X159455000Y-65941335D01*
X159455000Y-65658665D01*
X159408733Y-65426068D01*
X161515000Y-63319802D01*
X161515000Y-63427002D01*
X161673748Y-63427002D01*
X161515000Y-63585750D01*
X161511928Y-64150000D01*
X161524188Y-64274482D01*
X161560498Y-64394180D01*
X161619463Y-64504494D01*
X161698815Y-64601185D01*
X161795506Y-64680537D01*
X161905820Y-64739502D01*
X162025518Y-64775812D01*
X162150000Y-64788072D01*
X162714250Y-64785000D01*
X162873000Y-64626250D01*
X162873000Y-63427000D01*
X163127000Y-63427000D01*
X163127000Y-64626250D01*
X163285750Y-64785000D01*
X163850000Y-64788072D01*
X163974482Y-64775812D01*
X164094180Y-64739502D01*
X164204494Y-64680537D01*
X164301185Y-64601185D01*
X164380537Y-64504494D01*
X164439502Y-64394180D01*
X164475812Y-64274482D01*
X164488072Y-64150000D01*
X164485000Y-63585750D01*
X164326250Y-63427000D01*
X163127000Y-63427000D01*
X162873000Y-63427000D01*
X162853000Y-63427000D01*
X162853000Y-63173000D01*
X162873000Y-63173000D01*
X162873000Y-63153000D01*
X163127000Y-63153000D01*
X163127000Y-63173000D01*
X164326250Y-63173000D01*
X164485000Y-63014250D01*
X164488072Y-62450000D01*
X164475812Y-62325518D01*
X164439502Y-62205820D01*
X164380537Y-62095506D01*
X164301185Y-61998815D01*
X164204494Y-61919463D01*
X164094180Y-61860498D01*
X164021620Y-61838487D01*
X164153475Y-61706632D01*
X164315990Y-61463411D01*
X164427932Y-61193158D01*
X164485000Y-60906260D01*
X164485000Y-60613740D01*
X164427932Y-60326842D01*
X164315990Y-60056589D01*
X164153475Y-59813368D01*
X163946632Y-59606525D01*
X163703411Y-59444010D01*
X163433158Y-59332068D01*
X163146260Y-59275000D01*
X162853740Y-59275000D01*
X162566842Y-59332068D01*
X162296589Y-59444010D01*
X162053368Y-59606525D01*
X161846525Y-59813368D01*
X161684010Y-60056589D01*
X161572068Y-60326842D01*
X161515000Y-60613740D01*
X161515000Y-60906260D01*
X161558790Y-61126408D01*
X158293841Y-64391357D01*
X158161335Y-64365000D01*
X157878665Y-64365000D01*
X157696114Y-64401312D01*
X152909801Y-59615000D01*
X153081335Y-59615000D01*
X153358574Y-59559853D01*
X153619727Y-59451680D01*
X153854759Y-59294637D01*
X154054637Y-59094759D01*
X154210000Y-58862241D01*
X154365363Y-59094759D01*
X154565241Y-59294637D01*
X154800273Y-59451680D01*
X155061426Y-59559853D01*
X155338665Y-59615000D01*
X155621335Y-59615000D01*
X155898574Y-59559853D01*
X156159727Y-59451680D01*
X156394759Y-59294637D01*
X156594637Y-59094759D01*
X156750000Y-58862241D01*
X156905363Y-59094759D01*
X157105241Y-59294637D01*
X157340273Y-59451680D01*
X157601426Y-59559853D01*
X157878665Y-59615000D01*
X158161335Y-59615000D01*
X158438574Y-59559853D01*
X158699727Y-59451680D01*
X158934759Y-59294637D01*
X159134637Y-59094759D01*
X159291680Y-58859727D01*
X159399853Y-58598574D01*
X159455000Y-58321335D01*
X159455000Y-58038665D01*
X159399853Y-57761426D01*
X159291680Y-57500273D01*
X159134637Y-57265241D01*
X158934759Y-57065363D01*
X158699727Y-56908320D01*
X158438574Y-56800147D01*
X158161335Y-56745000D01*
X157878665Y-56745000D01*
X157601426Y-56800147D01*
X157340273Y-56908320D01*
X157105241Y-57065363D01*
X156905363Y-57265241D01*
X156750000Y-57497759D01*
X156594637Y-57265241D01*
X156394759Y-57065363D01*
X156159727Y-56908320D01*
X155898574Y-56800147D01*
X155621335Y-56745000D01*
X155338665Y-56745000D01*
X155061426Y-56800147D01*
X154800273Y-56908320D01*
X154565241Y-57065363D01*
X154365363Y-57265241D01*
X154210000Y-57497759D01*
X154054637Y-57265241D01*
X153854759Y-57065363D01*
X153619727Y-56908320D01*
X153358574Y-56800147D01*
X153081335Y-56745000D01*
X152798665Y-56745000D01*
X152521426Y-56800147D01*
X152260273Y-56908320D01*
X152025241Y-57065363D01*
X151825363Y-57265241D01*
X151670000Y-57497759D01*
X151514637Y-57265241D01*
X151314759Y-57065363D01*
X151079727Y-56908320D01*
X150818574Y-56800147D01*
X150541335Y-56745000D01*
X150258665Y-56745000D01*
X149981426Y-56800147D01*
X149720273Y-56908320D01*
X149485241Y-57065363D01*
X149285363Y-57265241D01*
X149128320Y-57500273D01*
X149020147Y-57761426D01*
X148965000Y-58038665D01*
X148965000Y-58321335D01*
X149020147Y-58598574D01*
X149128320Y-58859727D01*
X149285363Y-59094759D01*
X149485241Y-59294637D01*
X149720273Y-59451680D01*
X149981426Y-59559853D01*
X150258665Y-59615000D01*
X150541335Y-59615000D01*
X150723887Y-59578688D01*
X155510198Y-64365000D01*
X155338665Y-64365000D01*
X155061426Y-64420147D01*
X154800273Y-64528320D01*
X154565241Y-64685363D01*
X154365363Y-64885241D01*
X154210000Y-65117759D01*
X154054637Y-64885241D01*
X153854759Y-64685363D01*
X153619727Y-64528320D01*
X153358574Y-64420147D01*
X153081335Y-64365000D01*
X152798665Y-64365000D01*
X152521426Y-64420147D01*
X152260273Y-64528320D01*
X152025241Y-64685363D01*
X151826643Y-64883961D01*
X151825812Y-64875518D01*
X151789502Y-64755820D01*
X151730537Y-64645506D01*
X151651185Y-64548815D01*
X151554494Y-64469463D01*
X151444180Y-64410498D01*
X151324482Y-64374188D01*
X151200000Y-64361928D01*
X150685750Y-64365000D01*
X150527000Y-64523750D01*
X150527000Y-65673000D01*
X150547000Y-65673000D01*
X150547000Y-65927000D01*
X150527000Y-65927000D01*
X150527000Y-67076250D01*
X150685750Y-67235000D01*
X151200000Y-67238072D01*
X151324482Y-67225812D01*
X151444180Y-67189502D01*
X151554494Y-67130537D01*
X151651185Y-67051185D01*
X151730537Y-66954494D01*
X151789502Y-66844180D01*
X151825812Y-66724482D01*
X151826643Y-66716039D01*
X152025241Y-66914637D01*
X152260273Y-67071680D01*
X152521426Y-67179853D01*
X152798665Y-67235000D01*
X153081335Y-67235000D01*
X153263887Y-67198688D01*
X155913426Y-69848227D01*
X155891023Y-69870630D01*
X156007296Y-69986903D01*
X155763329Y-70058486D01*
X155642429Y-70313996D01*
X155573700Y-70588184D01*
X155559783Y-70870512D01*
X155601213Y-71150130D01*
X155696397Y-71416292D01*
X155763329Y-71541514D01*
X156007298Y-71613097D01*
X156820395Y-70800000D01*
X156806253Y-70785858D01*
X156985858Y-70606253D01*
X157000000Y-70620395D01*
X157014143Y-70606253D01*
X157193748Y-70785858D01*
X157179605Y-70800000D01*
X157193748Y-70814143D01*
X157014143Y-70993748D01*
X157000000Y-70979605D01*
X156186903Y-71792702D01*
X156258486Y-72036671D01*
X156513996Y-72157571D01*
X156788184Y-72226300D01*
X157070512Y-72240217D01*
X157350130Y-72198787D01*
X157616292Y-72103603D01*
X157738309Y-72038384D01*
X157748815Y-72051185D01*
X157845506Y-72130537D01*
X157955820Y-72189502D01*
X158075518Y-72225812D01*
X158200000Y-72238072D01*
X159365002Y-72238072D01*
X159365002Y-76160196D01*
X157913271Y-77611928D01*
X157500000Y-77611928D01*
X157375518Y-77624188D01*
X157255820Y-77660498D01*
X157145506Y-77719463D01*
X157048815Y-77798815D01*
X156969463Y-77895506D01*
X156910498Y-78005820D01*
X156874188Y-78125518D01*
X156861928Y-78250000D01*
X156861928Y-79150000D01*
X156874188Y-79274482D01*
X156910498Y-79394180D01*
X156969463Y-79504494D01*
X157048815Y-79601185D01*
X157140001Y-79676019D01*
X157140001Y-79710749D01*
X157077000Y-79773750D01*
X157077000Y-80573000D01*
X157097000Y-80573000D01*
X157097000Y-80827000D01*
X157077000Y-80827000D01*
X157077000Y-81626250D01*
X157140001Y-81689251D01*
X157140000Y-85261928D01*
X156700000Y-85261928D01*
X156575518Y-85274188D01*
X156455820Y-85310498D01*
X156345506Y-85369463D01*
X156248815Y-85448815D01*
X156238193Y-85461758D01*
X155986004Y-85342429D01*
X155711816Y-85273700D01*
X155429488Y-85259783D01*
X155149870Y-85301213D01*
X154883708Y-85396397D01*
X154758486Y-85463329D01*
X154686903Y-85707298D01*
X155500000Y-86520395D01*
X155514143Y-86506253D01*
X155693748Y-86685858D01*
X155679605Y-86700000D01*
X155693748Y-86714143D01*
X155514143Y-86893748D01*
X155500000Y-86879605D01*
X154686903Y-87692702D01*
X154758486Y-87936671D01*
X155013996Y-88057571D01*
X155288184Y-88126300D01*
X155570512Y-88140217D01*
X155850130Y-88098787D01*
X156116292Y-88003603D01*
X156238309Y-87938384D01*
X156248815Y-87951185D01*
X156345506Y-88030537D01*
X156455820Y-88089502D01*
X156575518Y-88125812D01*
X156700000Y-88138072D01*
X156740000Y-88138072D01*
X156740000Y-88565198D01*
X153835000Y-91470199D01*
X153835000Y-91298665D01*
X153779853Y-91021426D01*
X153671680Y-90760273D01*
X153514637Y-90525241D01*
X153314759Y-90325363D01*
X153080872Y-90169085D01*
X153141514Y-90136671D01*
X153213097Y-89892702D01*
X152400000Y-89079605D01*
X151586903Y-89892702D01*
X151658486Y-90136671D01*
X151722992Y-90167194D01*
X151720273Y-90168320D01*
X151485241Y-90325363D01*
X151285363Y-90525241D01*
X151128320Y-90760273D01*
X151020147Y-91021426D01*
X150965000Y-91298665D01*
X150965000Y-91470199D01*
X150620000Y-91125199D01*
X150620000Y-88970512D01*
X150959783Y-88970512D01*
X151001213Y-89250130D01*
X151096397Y-89516292D01*
X151163329Y-89641514D01*
X151407298Y-89713097D01*
X152220395Y-88900000D01*
X152579605Y-88900000D01*
X153392702Y-89713097D01*
X153636671Y-89641514D01*
X153757571Y-89386004D01*
X153826300Y-89111816D01*
X153840217Y-88829488D01*
X153798787Y-88549870D01*
X153703603Y-88283708D01*
X153636671Y-88158486D01*
X153392702Y-88086903D01*
X152579605Y-88900000D01*
X152220395Y-88900000D01*
X151407298Y-88086903D01*
X151163329Y-88158486D01*
X151042429Y-88413996D01*
X150973700Y-88688184D01*
X150959783Y-88970512D01*
X150620000Y-88970512D01*
X150620000Y-88937333D01*
X150623677Y-88900000D01*
X150609003Y-88751014D01*
X150565546Y-88607753D01*
X150494974Y-88475724D01*
X150400001Y-88359999D01*
X150284276Y-88265026D01*
X150152247Y-88194454D01*
X150008986Y-88150997D01*
X149897333Y-88140000D01*
X149860000Y-88136323D01*
X149822667Y-88140000D01*
X145998043Y-88140000D01*
X145894637Y-87985241D01*
X145694759Y-87785363D01*
X145462241Y-87630000D01*
X145694759Y-87474637D01*
X145894637Y-87274759D01*
X146051680Y-87039727D01*
X146159853Y-86778574D01*
X146215000Y-86501335D01*
X146215000Y-86218665D01*
X146159853Y-85941426D01*
X146051680Y-85680273D01*
X145894637Y-85445241D01*
X145694759Y-85245363D01*
X145462241Y-85090000D01*
X145694759Y-84934637D01*
X145894637Y-84734759D01*
X146051680Y-84499727D01*
X146159853Y-84238574D01*
X146215000Y-83961335D01*
X146215000Y-83678665D01*
X146159853Y-83401426D01*
X146051680Y-83140273D01*
X145894637Y-82905241D01*
X145694759Y-82705363D01*
X145462241Y-82550000D01*
X145694759Y-82394637D01*
X145894637Y-82194759D01*
X146051680Y-81959727D01*
X146159853Y-81698574D01*
X146215000Y-81421335D01*
X146215000Y-81138665D01*
X146159853Y-80861426D01*
X146051680Y-80600273D01*
X145894637Y-80365241D01*
X145694759Y-80165363D01*
X145462241Y-80010000D01*
X145694759Y-79854637D01*
X145894637Y-79654759D01*
X146051680Y-79419727D01*
X146159853Y-79158574D01*
X146215000Y-78881335D01*
X146215000Y-78598665D01*
X146159853Y-78321426D01*
X146051680Y-78060273D01*
X145894637Y-77825241D01*
X145694759Y-77625363D01*
X145462241Y-77470000D01*
X145694759Y-77314637D01*
X145894637Y-77114759D01*
X146051680Y-76879727D01*
X146159853Y-76618574D01*
X146215000Y-76341335D01*
X146215000Y-76058665D01*
X146159853Y-75781426D01*
X146051680Y-75520273D01*
X145894637Y-75285241D01*
X145696039Y-75086643D01*
X145704482Y-75085812D01*
X145824180Y-75049502D01*
X145934494Y-74990537D01*
X146031185Y-74911185D01*
X146110537Y-74814494D01*
X146169502Y-74704180D01*
X146205812Y-74584482D01*
X146218072Y-74460000D01*
X146218072Y-73518665D01*
X150965000Y-73518665D01*
X150965000Y-73801335D01*
X151020147Y-74078574D01*
X151128320Y-74339727D01*
X151285363Y-74574759D01*
X151485241Y-74774637D01*
X151717759Y-74930000D01*
X151485241Y-75085363D01*
X151285363Y-75285241D01*
X151128320Y-75520273D01*
X151020147Y-75781426D01*
X150965000Y-76058665D01*
X150965000Y-76341335D01*
X151020147Y-76618574D01*
X151128320Y-76879727D01*
X151285363Y-77114759D01*
X151485241Y-77314637D01*
X151717759Y-77470000D01*
X151485241Y-77625363D01*
X151285363Y-77825241D01*
X151128320Y-78060273D01*
X151020147Y-78321426D01*
X150965000Y-78598665D01*
X150965000Y-78881335D01*
X151020147Y-79158574D01*
X151128320Y-79419727D01*
X151285363Y-79654759D01*
X151485241Y-79854637D01*
X151717759Y-80010000D01*
X151485241Y-80165363D01*
X151285363Y-80365241D01*
X151128320Y-80600273D01*
X151020147Y-80861426D01*
X150965000Y-81138665D01*
X150965000Y-81421335D01*
X151020147Y-81698574D01*
X151128320Y-81959727D01*
X151285363Y-82194759D01*
X151485241Y-82394637D01*
X151717759Y-82550000D01*
X151485241Y-82705363D01*
X151285363Y-82905241D01*
X151128320Y-83140273D01*
X151020147Y-83401426D01*
X150965000Y-83678665D01*
X150965000Y-83961335D01*
X151020147Y-84238574D01*
X151128320Y-84499727D01*
X151285363Y-84734759D01*
X151485241Y-84934637D01*
X151717759Y-85090000D01*
X151485241Y-85245363D01*
X151285363Y-85445241D01*
X151128320Y-85680273D01*
X151020147Y-85941426D01*
X150965000Y-86218665D01*
X150965000Y-86501335D01*
X151020147Y-86778574D01*
X151128320Y-87039727D01*
X151285363Y-87274759D01*
X151485241Y-87474637D01*
X151719128Y-87630915D01*
X151658486Y-87663329D01*
X151586903Y-87907298D01*
X152400000Y-88720395D01*
X153213097Y-87907298D01*
X153141514Y-87663329D01*
X153077008Y-87632806D01*
X153079727Y-87631680D01*
X153314759Y-87474637D01*
X153514637Y-87274759D01*
X153671680Y-87039727D01*
X153779853Y-86778574D01*
X153781456Y-86770512D01*
X154059783Y-86770512D01*
X154101213Y-87050130D01*
X154196397Y-87316292D01*
X154263329Y-87441514D01*
X154507298Y-87513097D01*
X155320395Y-86700000D01*
X154507298Y-85886903D01*
X154263329Y-85958486D01*
X154142429Y-86213996D01*
X154073700Y-86488184D01*
X154059783Y-86770512D01*
X153781456Y-86770512D01*
X153835000Y-86501335D01*
X153835000Y-86218665D01*
X153779853Y-85941426D01*
X153671680Y-85680273D01*
X153514637Y-85445241D01*
X153314759Y-85245363D01*
X153082241Y-85090000D01*
X153314759Y-84934637D01*
X153514637Y-84734759D01*
X153671680Y-84499727D01*
X153779853Y-84238574D01*
X153835000Y-83961335D01*
X153835000Y-83678665D01*
X153779853Y-83401426D01*
X153671680Y-83140273D01*
X153514637Y-82905241D01*
X153314759Y-82705363D01*
X153082241Y-82550000D01*
X153314759Y-82394637D01*
X153514637Y-82194759D01*
X153671680Y-81959727D01*
X153779853Y-81698574D01*
X153835000Y-81421335D01*
X153835000Y-81150000D01*
X155911928Y-81150000D01*
X155924188Y-81274482D01*
X155960498Y-81394180D01*
X156019463Y-81504494D01*
X156098815Y-81601185D01*
X156195506Y-81680537D01*
X156305820Y-81739502D01*
X156425518Y-81775812D01*
X156550000Y-81788072D01*
X156664250Y-81785000D01*
X156823000Y-81626250D01*
X156823000Y-80827000D01*
X156073750Y-80827000D01*
X155915000Y-80985750D01*
X155911928Y-81150000D01*
X153835000Y-81150000D01*
X153835000Y-81138665D01*
X153779853Y-80861426D01*
X153671680Y-80600273D01*
X153514637Y-80365241D01*
X153399396Y-80250000D01*
X155911928Y-80250000D01*
X155915000Y-80414250D01*
X156073750Y-80573000D01*
X156823000Y-80573000D01*
X156823000Y-79773750D01*
X156664250Y-79615000D01*
X156550000Y-79611928D01*
X156425518Y-79624188D01*
X156305820Y-79660498D01*
X156195506Y-79719463D01*
X156098815Y-79798815D01*
X156019463Y-79895506D01*
X155960498Y-80005820D01*
X155924188Y-80125518D01*
X155911928Y-80250000D01*
X153399396Y-80250000D01*
X153314759Y-80165363D01*
X153082241Y-80010000D01*
X153314759Y-79854637D01*
X153514637Y-79654759D01*
X153671680Y-79419727D01*
X153779853Y-79158574D01*
X153835000Y-78881335D01*
X153835000Y-78598665D01*
X153779853Y-78321426D01*
X153671680Y-78060273D01*
X153514637Y-77825241D01*
X153314759Y-77625363D01*
X153082241Y-77470000D01*
X153314759Y-77314637D01*
X153514637Y-77114759D01*
X153671680Y-76879727D01*
X153779853Y-76618574D01*
X153835000Y-76341335D01*
X153835000Y-76058665D01*
X153779853Y-75781426D01*
X153671680Y-75520273D01*
X153514637Y-75285241D01*
X153314759Y-75085363D01*
X153082241Y-74930000D01*
X153314759Y-74774637D01*
X153514637Y-74574759D01*
X153671680Y-74339727D01*
X153779853Y-74078574D01*
X153835000Y-73801335D01*
X153835000Y-73518665D01*
X153779853Y-73241426D01*
X153671680Y-72980273D01*
X153514637Y-72745241D01*
X153314759Y-72545363D01*
X153079727Y-72388320D01*
X152818574Y-72280147D01*
X152541335Y-72225000D01*
X152258665Y-72225000D01*
X151981426Y-72280147D01*
X151720273Y-72388320D01*
X151485241Y-72545363D01*
X151285363Y-72745241D01*
X151128320Y-72980273D01*
X151020147Y-73241426D01*
X150965000Y-73518665D01*
X146218072Y-73518665D01*
X146218072Y-72860000D01*
X146205812Y-72735518D01*
X146169502Y-72615820D01*
X146110537Y-72505506D01*
X146031185Y-72408815D01*
X145934494Y-72329463D01*
X145824180Y-72270498D01*
X145704482Y-72234188D01*
X145580000Y-72221928D01*
X145434326Y-72221928D01*
X145414974Y-72185723D01*
X145343799Y-72098997D01*
X145320001Y-72069999D01*
X145291003Y-72046201D01*
X140552820Y-67308019D01*
X140552820Y-67257307D01*
X140489988Y-66941428D01*
X140366738Y-66643877D01*
X140187807Y-66376088D01*
X139960072Y-66148353D01*
X139692283Y-65969422D01*
X139394732Y-65846172D01*
X139078853Y-65783340D01*
X138756787Y-65783340D01*
X138440908Y-65846172D01*
X138143357Y-65969422D01*
X137875568Y-66148353D01*
X137647833Y-66376088D01*
X137468902Y-66643877D01*
X137462911Y-66658340D01*
X133872729Y-66658340D01*
X133866738Y-66643877D01*
X133687807Y-66376088D01*
X133460072Y-66148353D01*
X133192283Y-65969422D01*
X132894732Y-65846172D01*
X132578853Y-65783340D01*
X132256787Y-65783340D01*
X131940908Y-65846172D01*
X131643357Y-65969422D01*
X131375568Y-66148353D01*
X131147833Y-66376088D01*
X130968902Y-66643877D01*
X130845652Y-66941428D01*
X130782820Y-67257307D01*
X129660000Y-67257307D01*
X129660000Y-65660674D01*
X142763480Y-65660674D01*
X142763480Y-65923646D01*
X142814784Y-66181565D01*
X142915419Y-66424519D01*
X143061518Y-66643173D01*
X143247467Y-66829122D01*
X143466121Y-66975221D01*
X143709075Y-67075856D01*
X143966994Y-67127160D01*
X144229966Y-67127160D01*
X144487885Y-67075856D01*
X144730839Y-66975221D01*
X144949493Y-66829122D01*
X145135442Y-66643173D01*
X145281541Y-66424519D01*
X145382176Y-66181565D01*
X145433480Y-65923646D01*
X145433480Y-65660674D01*
X145615900Y-65660674D01*
X145615900Y-65923646D01*
X145667204Y-66181565D01*
X145767839Y-66424519D01*
X145913938Y-66643173D01*
X146099887Y-66829122D01*
X146318541Y-66975221D01*
X146561495Y-67075856D01*
X146819414Y-67127160D01*
X147082386Y-67127160D01*
X147340305Y-67075856D01*
X147583259Y-66975221D01*
X147801913Y-66829122D01*
X147987862Y-66643173D01*
X148016709Y-66600000D01*
X148961928Y-66600000D01*
X148974188Y-66724482D01*
X149010498Y-66844180D01*
X149069463Y-66954494D01*
X149148815Y-67051185D01*
X149245506Y-67130537D01*
X149355820Y-67189502D01*
X149475518Y-67225812D01*
X149600000Y-67238072D01*
X150114250Y-67235000D01*
X150273000Y-67076250D01*
X150273000Y-65927000D01*
X149123750Y-65927000D01*
X148965000Y-66085750D01*
X148961928Y-66600000D01*
X148016709Y-66600000D01*
X148133961Y-66424519D01*
X148234596Y-66181565D01*
X148285900Y-65923646D01*
X148285900Y-65660674D01*
X148234596Y-65402755D01*
X148133961Y-65159801D01*
X148027187Y-65000000D01*
X148961928Y-65000000D01*
X148965000Y-65514250D01*
X149123750Y-65673000D01*
X150273000Y-65673000D01*
X150273000Y-64523750D01*
X150114250Y-64365000D01*
X149600000Y-64361928D01*
X149475518Y-64374188D01*
X149355820Y-64410498D01*
X149245506Y-64469463D01*
X149148815Y-64548815D01*
X149069463Y-64645506D01*
X149010498Y-64755820D01*
X148974188Y-64875518D01*
X148961928Y-65000000D01*
X148027187Y-65000000D01*
X147987862Y-64941147D01*
X147801913Y-64755198D01*
X147583259Y-64609099D01*
X147340305Y-64508464D01*
X147082386Y-64457160D01*
X146819414Y-64457160D01*
X146561495Y-64508464D01*
X146318541Y-64609099D01*
X146099887Y-64755198D01*
X145913938Y-64941147D01*
X145767839Y-65159801D01*
X145667204Y-65402755D01*
X145615900Y-65660674D01*
X145433480Y-65660674D01*
X145382176Y-65402755D01*
X145281541Y-65159801D01*
X145135442Y-64941147D01*
X144949493Y-64755198D01*
X144730839Y-64609099D01*
X144487885Y-64508464D01*
X144229966Y-64457160D01*
X143966994Y-64457160D01*
X143709075Y-64508464D01*
X143466121Y-64609099D01*
X143247467Y-64755198D01*
X143061518Y-64941147D01*
X142915419Y-65159801D01*
X142814784Y-65402755D01*
X142763480Y-65660674D01*
X129660000Y-65660674D01*
X129660000Y-64053753D01*
X131462012Y-64053753D01*
X131557776Y-64318154D01*
X131847391Y-64459044D01*
X132158928Y-64540724D01*
X132480415Y-64560058D01*
X132799495Y-64516301D01*
X133103908Y-64411135D01*
X133277864Y-64318154D01*
X133373628Y-64053753D01*
X137962012Y-64053753D01*
X138057776Y-64318154D01*
X138347391Y-64459044D01*
X138658928Y-64540724D01*
X138980415Y-64560058D01*
X139299495Y-64516301D01*
X139603908Y-64411135D01*
X139777864Y-64318154D01*
X139873628Y-64053753D01*
X138917820Y-63097945D01*
X137962012Y-64053753D01*
X133373628Y-64053753D01*
X132417820Y-63097945D01*
X131462012Y-64053753D01*
X129660000Y-64053753D01*
X129660000Y-62980935D01*
X130776102Y-62980935D01*
X130819859Y-63300015D01*
X130925025Y-63604428D01*
X131018006Y-63778384D01*
X131282407Y-63874148D01*
X132238215Y-62918340D01*
X132597425Y-62918340D01*
X133553233Y-63874148D01*
X133817634Y-63778384D01*
X133958524Y-63488769D01*
X134040204Y-63177232D01*
X134052009Y-62980935D01*
X137276102Y-62980935D01*
X137319859Y-63300015D01*
X137425025Y-63604428D01*
X137518006Y-63778384D01*
X137782407Y-63874148D01*
X138738215Y-62918340D01*
X139097425Y-62918340D01*
X140053233Y-63874148D01*
X140317634Y-63778384D01*
X140458524Y-63488769D01*
X140540204Y-63177232D01*
X140559538Y-62855745D01*
X140515781Y-62536665D01*
X140410615Y-62232252D01*
X140317634Y-62058296D01*
X140053233Y-61962532D01*
X139097425Y-62918340D01*
X138738215Y-62918340D01*
X137782407Y-61962532D01*
X137518006Y-62058296D01*
X137377116Y-62347911D01*
X137295436Y-62659448D01*
X137276102Y-62980935D01*
X134052009Y-62980935D01*
X134059538Y-62855745D01*
X134015781Y-62536665D01*
X133910615Y-62232252D01*
X133817634Y-62058296D01*
X133553233Y-61962532D01*
X132597425Y-62918340D01*
X132238215Y-62918340D01*
X131282407Y-61962532D01*
X131018006Y-62058296D01*
X130877116Y-62347911D01*
X130795436Y-62659448D01*
X130776102Y-62980935D01*
X129660000Y-62980935D01*
X129660000Y-61782927D01*
X131462012Y-61782927D01*
X132417820Y-62738735D01*
X133373628Y-61782927D01*
X137962012Y-61782927D01*
X138917820Y-62738735D01*
X139873628Y-61782927D01*
X139777864Y-61518526D01*
X139488249Y-61377636D01*
X139176712Y-61295956D01*
X138855225Y-61276622D01*
X138536145Y-61320379D01*
X138231732Y-61425545D01*
X138057776Y-61518526D01*
X137962012Y-61782927D01*
X133373628Y-61782927D01*
X133277864Y-61518526D01*
X132988249Y-61377636D01*
X132676712Y-61295956D01*
X132355225Y-61276622D01*
X132036145Y-61320379D01*
X131731732Y-61425545D01*
X131557776Y-61518526D01*
X131462012Y-61782927D01*
X129660000Y-61782927D01*
X129660000Y-58040674D01*
X142763480Y-58040674D01*
X142763480Y-58303646D01*
X142814784Y-58561565D01*
X142915419Y-58804519D01*
X143061518Y-59023173D01*
X143247467Y-59209122D01*
X143466121Y-59355221D01*
X143709075Y-59455856D01*
X143966994Y-59507160D01*
X144229966Y-59507160D01*
X144487885Y-59455856D01*
X144730839Y-59355221D01*
X144949493Y-59209122D01*
X145135442Y-59023173D01*
X145281541Y-58804519D01*
X145382176Y-58561565D01*
X145433480Y-58303646D01*
X145433480Y-58040674D01*
X145615900Y-58040674D01*
X145615900Y-58303646D01*
X145667204Y-58561565D01*
X145767839Y-58804519D01*
X145913938Y-59023173D01*
X146099887Y-59209122D01*
X146318541Y-59355221D01*
X146561495Y-59455856D01*
X146819414Y-59507160D01*
X147082386Y-59507160D01*
X147340305Y-59455856D01*
X147583259Y-59355221D01*
X147801913Y-59209122D01*
X147987862Y-59023173D01*
X148133961Y-58804519D01*
X148234596Y-58561565D01*
X148285900Y-58303646D01*
X148285900Y-58040674D01*
X148234596Y-57782755D01*
X148133961Y-57539801D01*
X147987862Y-57321147D01*
X147801913Y-57135198D01*
X147583259Y-56989099D01*
X147340305Y-56888464D01*
X147082386Y-56837160D01*
X146819414Y-56837160D01*
X146561495Y-56888464D01*
X146318541Y-56989099D01*
X146099887Y-57135198D01*
X145913938Y-57321147D01*
X145767839Y-57539801D01*
X145667204Y-57782755D01*
X145615900Y-58040674D01*
X145433480Y-58040674D01*
X145382176Y-57782755D01*
X145281541Y-57539801D01*
X145135442Y-57321147D01*
X144949493Y-57135198D01*
X144730839Y-56989099D01*
X144487885Y-56888464D01*
X144229966Y-56837160D01*
X143966994Y-56837160D01*
X143709075Y-56888464D01*
X143466121Y-56989099D01*
X143247467Y-57135198D01*
X143061518Y-57321147D01*
X142915419Y-57539801D01*
X142814784Y-57782755D01*
X142763480Y-58040674D01*
X129660000Y-58040674D01*
X129660000Y-56160000D01*
X166340000Y-56160000D01*
X166340001Y-111249860D01*
G37*
X166340001Y-111249860D02*
X129660000Y-111249860D01*
X129660000Y-108792702D01*
X161486903Y-108792702D01*
X161558486Y-109036671D01*
X161813996Y-109157571D01*
X162088184Y-109226300D01*
X162370512Y-109240217D01*
X162650130Y-109198787D01*
X162916292Y-109103603D01*
X163041514Y-109036671D01*
X163113097Y-108792702D01*
X162300000Y-107979605D01*
X161486903Y-108792702D01*
X129660000Y-108792702D01*
X129660000Y-107713982D01*
X138477963Y-107713982D01*
X138549546Y-107957951D01*
X138805056Y-108078851D01*
X139079244Y-108147580D01*
X139361572Y-108161497D01*
X139641190Y-108120067D01*
X139907352Y-108024883D01*
X140032574Y-107957951D01*
X140104157Y-107713982D01*
X140070497Y-107680322D01*
X141294823Y-107680322D01*
X141366406Y-107924291D01*
X141621916Y-108045191D01*
X141896104Y-108113920D01*
X142178432Y-108127837D01*
X142458050Y-108086407D01*
X142724212Y-107991223D01*
X142849434Y-107924291D01*
X142921017Y-107680322D01*
X142107920Y-106867225D01*
X141294823Y-107680322D01*
X140070497Y-107680322D01*
X139291060Y-106900885D01*
X138477963Y-107713982D01*
X129660000Y-107713982D01*
X129660000Y-106791792D01*
X137850843Y-106791792D01*
X137892273Y-107071410D01*
X137987457Y-107337572D01*
X138054389Y-107462794D01*
X138298358Y-107534377D01*
X139111455Y-106721280D01*
X139470665Y-106721280D01*
X140283762Y-107534377D01*
X140527731Y-107462794D01*
X140648631Y-107207284D01*
X140702444Y-106992603D01*
X140709133Y-107037750D01*
X140804317Y-107303912D01*
X140871249Y-107429134D01*
X141115218Y-107500717D01*
X141928315Y-106687620D01*
X141115218Y-105874523D01*
X140871249Y-105946106D01*
X140750349Y-106201616D01*
X140696536Y-106416297D01*
X140689847Y-106371150D01*
X140594663Y-106104988D01*
X140527731Y-105979766D01*
X140283762Y-105908183D01*
X139470665Y-106721280D01*
X139111455Y-106721280D01*
X138298358Y-105908183D01*
X138054389Y-105979766D01*
X137933489Y-106235276D01*
X137864760Y-106509464D01*
X137850843Y-106791792D01*
X129660000Y-106791792D01*
X129660000Y-84752492D01*
X132910188Y-84752492D01*
X132951035Y-85022238D01*
X133043723Y-85278832D01*
X133104140Y-85391863D01*
X133343007Y-85457388D01*
X134120395Y-84680000D01*
X134479605Y-84680000D01*
X135256993Y-85457388D01*
X135495860Y-85391863D01*
X135611760Y-85144884D01*
X135677250Y-84880040D01*
X135689812Y-84607508D01*
X135648965Y-84337762D01*
X135556277Y-84081168D01*
X135495860Y-83968137D01*
X135256993Y-83902612D01*
X134479605Y-84680000D01*
X134120395Y-84680000D01*
X133343007Y-83902612D01*
X133104140Y-83968137D01*
X132988240Y-84215116D01*
X132922750Y-84479960D01*
X132910188Y-84752492D01*
X129660000Y-84752492D01*
X129660000Y-83723007D01*
X133522612Y-83723007D01*
X134300000Y-84500395D01*
X135077388Y-83723007D01*
X135011863Y-83484140D01*
X134764884Y-83368240D01*
X134500040Y-83302750D01*
X134227508Y-83290188D01*
X133957762Y-83331035D01*
X133701168Y-83423723D01*
X133588137Y-83484140D01*
X133522612Y-83723007D01*
X129660000Y-83723007D01*
X129660000Y-73468210D01*
X136287484Y-73468210D01*
X136408805Y-73698100D01*
X137601960Y-73698100D01*
X137601960Y-72504286D01*
X137372069Y-72383619D01*
X137097708Y-72480943D01*
X136847605Y-72629922D01*
X136631372Y-72824831D01*
X136457319Y-73058180D01*
X136332135Y-73321001D01*
X136287484Y-73468210D01*
X129660000Y-73468210D01*
X129660000Y-67257307D01*
X130782820Y-67257307D01*
X130782820Y-67579373D01*
X130845652Y-67895252D01*
X130968902Y-68192803D01*
X131147833Y-68460592D01*
X131375568Y-68688327D01*
X131643357Y-68867258D01*
X131940908Y-68990508D01*
X132256787Y-69053340D01*
X132578853Y-69053340D01*
X132894732Y-68990508D01*
X133192283Y-68867258D01*
X133460072Y-68688327D01*
X133687807Y-68460592D01*
X133866738Y-68192803D01*
X133872729Y-68178340D01*
X137462911Y-68178340D01*
X137468902Y-68192803D01*
X137647833Y-68460592D01*
X137875568Y-68688327D01*
X138143357Y-68867258D01*
X138440908Y-68990508D01*
X138756787Y-69053340D01*
X139078853Y-69053340D01*
X139394732Y-68990508D01*
X139692283Y-68867258D01*
X139854240Y-68759041D01*
X141192314Y-70097115D01*
X141006742Y-70134028D01*
X140736489Y-70245970D01*
X140493268Y-70408485D01*
X140286425Y-70615328D01*
X140123910Y-70858549D01*
X140011968Y-71128802D01*
X139954900Y-71415700D01*
X139954900Y-71708220D01*
X140006690Y-71968583D01*
X139973624Y-72030444D01*
X139967333Y-72051185D01*
X139930167Y-72173704D01*
X139919170Y-72285357D01*
X139919170Y-72285368D01*
X139915494Y-72322690D01*
X139919170Y-72360012D01*
X139919170Y-72747028D01*
X139160418Y-73505781D01*
X139143114Y-73519982D01*
X139170436Y-73468210D01*
X139125785Y-73321001D01*
X139000601Y-73058180D01*
X138826548Y-72824831D01*
X138610315Y-72629922D01*
X138360212Y-72480943D01*
X138085851Y-72383619D01*
X137855960Y-72504286D01*
X137855960Y-73698100D01*
X137875960Y-73698100D01*
X137875960Y-73952100D01*
X137855960Y-73952100D01*
X137855960Y-73972100D01*
X137601960Y-73972100D01*
X137601960Y-73952100D01*
X136408805Y-73952100D01*
X136287484Y-74181990D01*
X136332135Y-74329199D01*
X136457319Y-74592020D01*
X136631372Y-74825369D01*
X136715426Y-74901134D01*
X136634780Y-74925598D01*
X136524466Y-74984563D01*
X136427775Y-75063915D01*
X136348423Y-75160606D01*
X136289458Y-75270920D01*
X136253148Y-75390618D01*
X136240888Y-75515100D01*
X136240888Y-77215100D01*
X136253148Y-77339582D01*
X136289458Y-77459280D01*
X136348423Y-77569594D01*
X136427775Y-77666285D01*
X136524466Y-77745637D01*
X136634780Y-77804602D01*
X136754478Y-77840912D01*
X136878960Y-77853172D01*
X136968961Y-77853172D01*
X136968960Y-85240638D01*
X136965284Y-85277960D01*
X136968960Y-85315282D01*
X136968960Y-85315292D01*
X136979957Y-85426945D01*
X137023414Y-85570206D01*
X137093986Y-85702236D01*
X137121861Y-85736201D01*
X137188959Y-85817961D01*
X137217963Y-85841764D01*
X140748555Y-89372357D01*
X140727200Y-89479714D01*
X140727200Y-89742686D01*
X140778504Y-90000605D01*
X140879139Y-90243559D01*
X141025238Y-90462213D01*
X141211187Y-90648162D01*
X141429841Y-90794261D01*
X141672795Y-90894896D01*
X141930714Y-90946200D01*
X142193686Y-90946200D01*
X142451605Y-90894896D01*
X142694559Y-90794261D01*
X142913213Y-90648162D01*
X143099162Y-90462213D01*
X143159975Y-90371200D01*
X143989231Y-90371200D01*
X143966903Y-90447298D01*
X144780000Y-91260395D01*
X145593097Y-90447298D01*
X145521514Y-90203329D01*
X145457008Y-90172806D01*
X145459727Y-90171680D01*
X145694759Y-90014637D01*
X145894637Y-89814759D01*
X145998043Y-89660000D01*
X149100001Y-89660000D01*
X149100000Y-91402677D01*
X149096324Y-91440000D01*
X149100000Y-91477322D01*
X149100000Y-91477332D01*
X149110997Y-91588985D01*
X149149587Y-91716201D01*
X149154454Y-91732246D01*
X149225026Y-91864276D01*
X149264871Y-91912826D01*
X149319999Y-91980001D01*
X149349003Y-92003804D01*
X151001312Y-93656114D01*
X150965000Y-93838665D01*
X150965000Y-94121335D01*
X151020147Y-94398574D01*
X151128320Y-94659727D01*
X151285363Y-94894759D01*
X151485241Y-95094637D01*
X151717759Y-95250000D01*
X151485241Y-95405363D01*
X151285363Y-95605241D01*
X151128320Y-95840273D01*
X151020147Y-96101426D01*
X150965000Y-96378665D01*
X150965000Y-96661335D01*
X151020147Y-96938574D01*
X151128320Y-97199727D01*
X151285363Y-97434759D01*
X151485241Y-97634637D01*
X151717759Y-97790000D01*
X151485241Y-97945363D01*
X151285363Y-98145241D01*
X151128320Y-98380273D01*
X151020147Y-98641426D01*
X150965000Y-98918665D01*
X150965000Y-99201335D01*
X151020147Y-99478574D01*
X151128320Y-99739727D01*
X151285363Y-99974759D01*
X151485241Y-100174637D01*
X151717759Y-100330000D01*
X151485241Y-100485363D01*
X151285363Y-100685241D01*
X151128320Y-100920273D01*
X151020147Y-101181426D01*
X150965000Y-101458665D01*
X150965000Y-101741335D01*
X151020147Y-102018574D01*
X151128320Y-102279727D01*
X151285363Y-102514759D01*
X151485241Y-102714637D01*
X151717759Y-102870000D01*
X151485241Y-103025363D01*
X151285363Y-103225241D01*
X151128320Y-103460273D01*
X151020147Y-103721426D01*
X150965000Y-103998665D01*
X150965000Y-104281335D01*
X151020147Y-104558574D01*
X151128320Y-104819727D01*
X151285363Y-105054759D01*
X151485241Y-105254637D01*
X151717759Y-105410000D01*
X151485241Y-105565363D01*
X151285363Y-105765241D01*
X151128320Y-106000273D01*
X151020147Y-106261426D01*
X150965000Y-106538665D01*
X150965000Y-106821335D01*
X151009491Y-107045001D01*
X146219803Y-107045001D01*
X146178688Y-107003886D01*
X146215000Y-106821335D01*
X146215000Y-106538665D01*
X146159853Y-106261426D01*
X146051680Y-106000273D01*
X145894637Y-105765241D01*
X145694759Y-105565363D01*
X145462241Y-105410000D01*
X145694759Y-105254637D01*
X145894637Y-105054759D01*
X146051680Y-104819727D01*
X146159853Y-104558574D01*
X146215000Y-104281335D01*
X146215000Y-103998665D01*
X146159853Y-103721426D01*
X146051680Y-103460273D01*
X145894637Y-103225241D01*
X145694759Y-103025363D01*
X145462241Y-102870000D01*
X145694759Y-102714637D01*
X145894637Y-102514759D01*
X146051680Y-102279727D01*
X146159853Y-102018574D01*
X146215000Y-101741335D01*
X146215000Y-101458665D01*
X146159853Y-101181426D01*
X146051680Y-100920273D01*
X145894637Y-100685241D01*
X145694759Y-100485363D01*
X145462241Y-100330000D01*
X145694759Y-100174637D01*
X145894637Y-99974759D01*
X146051680Y-99739727D01*
X146159853Y-99478574D01*
X146215000Y-99201335D01*
X146215000Y-98918665D01*
X146159853Y-98641426D01*
X146051680Y-98380273D01*
X145894637Y-98145241D01*
X145694759Y-97945363D01*
X145462241Y-97790000D01*
X145694759Y-97634637D01*
X145894637Y-97434759D01*
X146051680Y-97199727D01*
X146159853Y-96938574D01*
X146215000Y-96661335D01*
X146215000Y-96378665D01*
X146159853Y-96101426D01*
X146051680Y-95840273D01*
X145894637Y-95605241D01*
X145694759Y-95405363D01*
X145462241Y-95250000D01*
X145694759Y-95094637D01*
X145894637Y-94894759D01*
X146051680Y-94659727D01*
X146159853Y-94398574D01*
X146215000Y-94121335D01*
X146215000Y-93838665D01*
X146159853Y-93561426D01*
X146051680Y-93300273D01*
X145894637Y-93065241D01*
X145694759Y-92865363D01*
X145460872Y-92709085D01*
X145521514Y-92676671D01*
X145593097Y-92432702D01*
X144780000Y-91619605D01*
X143966903Y-92432702D01*
X144038486Y-92676671D01*
X144102992Y-92707194D01*
X144100273Y-92708320D01*
X143865241Y-92865363D01*
X143665363Y-93065241D01*
X143508320Y-93300273D01*
X143400147Y-93561426D01*
X143396317Y-93580680D01*
X141414169Y-93580680D01*
X141332059Y-93457794D01*
X141139146Y-93264881D01*
X140912303Y-93113309D01*
X140660249Y-93008905D01*
X140392671Y-92955680D01*
X140119849Y-92955680D01*
X139852271Y-93008905D01*
X139600217Y-93113309D01*
X139373374Y-93264881D01*
X139180461Y-93457794D01*
X139028889Y-93684637D01*
X138924485Y-93936691D01*
X138871260Y-94204269D01*
X138871260Y-94477091D01*
X138924485Y-94744669D01*
X139028889Y-94996723D01*
X139180461Y-95223566D01*
X139373374Y-95416479D01*
X139600217Y-95568051D01*
X139852271Y-95672455D01*
X140119849Y-95725680D01*
X140392671Y-95725680D01*
X140660249Y-95672455D01*
X140912303Y-95568051D01*
X141139146Y-95416479D01*
X141332059Y-95223566D01*
X141414169Y-95100680D01*
X143874285Y-95100680D01*
X144097759Y-95250000D01*
X143865241Y-95405363D01*
X143665363Y-95605241D01*
X143561957Y-95760000D01*
X143014273Y-95760000D01*
X142976940Y-95756323D01*
X142939607Y-95760000D01*
X142827954Y-95770997D01*
X142684693Y-95814454D01*
X142552664Y-95885026D01*
X142436939Y-95979999D01*
X142413141Y-96008997D01*
X140537625Y-97884513D01*
X140392671Y-97855680D01*
X140119849Y-97855680D01*
X139852271Y-97908905D01*
X139600217Y-98013309D01*
X139373374Y-98164881D01*
X139180461Y-98357794D01*
X139028889Y-98584637D01*
X138924485Y-98836691D01*
X138871260Y-99104269D01*
X138871260Y-99377091D01*
X138900900Y-99526098D01*
X137860000Y-98485199D01*
X137860000Y-92597323D01*
X137863676Y-92560000D01*
X137860000Y-92522677D01*
X137860000Y-92522667D01*
X137849003Y-92411014D01*
X137805546Y-92267753D01*
X137759450Y-92181514D01*
X137734974Y-92135723D01*
X137663799Y-92048997D01*
X137640001Y-92019999D01*
X137611004Y-91996202D01*
X137125314Y-91510512D01*
X143339783Y-91510512D01*
X143381213Y-91790130D01*
X143476397Y-92056292D01*
X143543329Y-92181514D01*
X143787298Y-92253097D01*
X144600395Y-91440000D01*
X144959605Y-91440000D01*
X145772702Y-92253097D01*
X146016671Y-92181514D01*
X146137571Y-91926004D01*
X146206300Y-91651816D01*
X146220217Y-91369488D01*
X146178787Y-91089870D01*
X146083603Y-90823708D01*
X146016671Y-90698486D01*
X145772702Y-90626903D01*
X144959605Y-91440000D01*
X144600395Y-91440000D01*
X143787298Y-90626903D01*
X143543329Y-90698486D01*
X143422429Y-90953996D01*
X143353700Y-91228184D01*
X143339783Y-91510512D01*
X137125314Y-91510512D01*
X135656167Y-90041365D01*
X135685000Y-89896411D01*
X135685000Y-89623589D01*
X135631775Y-89356011D01*
X135527371Y-89103957D01*
X135375799Y-88877114D01*
X135182886Y-88684201D01*
X134956043Y-88532629D01*
X134853127Y-88490000D01*
X134956043Y-88447371D01*
X135182886Y-88295799D01*
X135375799Y-88102886D01*
X135527371Y-87876043D01*
X135631775Y-87623989D01*
X135685000Y-87356411D01*
X135685000Y-87083589D01*
X135631775Y-86816011D01*
X135527371Y-86563957D01*
X135375799Y-86337114D01*
X135182886Y-86144201D01*
X134956043Y-85992629D01*
X134856721Y-85951489D01*
X134898832Y-85936277D01*
X135011863Y-85875860D01*
X135077388Y-85636993D01*
X134300000Y-84859605D01*
X133522612Y-85636993D01*
X133588137Y-85875860D01*
X133746477Y-85950164D01*
X133643957Y-85992629D01*
X133417114Y-86144201D01*
X133224201Y-86337114D01*
X133072629Y-86563957D01*
X132968225Y-86816011D01*
X132915000Y-87083589D01*
X132915000Y-87356411D01*
X132968225Y-87623989D01*
X133072629Y-87876043D01*
X133224201Y-88102886D01*
X133417114Y-88295799D01*
X133643957Y-88447371D01*
X133746873Y-88490000D01*
X133643957Y-88532629D01*
X133417114Y-88684201D01*
X133224201Y-88877114D01*
X133072629Y-89103957D01*
X132968225Y-89356011D01*
X132915000Y-89623589D01*
X132915000Y-89896411D01*
X132968225Y-90163989D01*
X133072629Y-90416043D01*
X133224201Y-90642886D01*
X133417114Y-90835799D01*
X133533483Y-90913555D01*
X133425518Y-90924188D01*
X133305820Y-90960498D01*
X133195506Y-91019463D01*
X133098815Y-91098815D01*
X133019463Y-91195506D01*
X132960498Y-91305820D01*
X132924188Y-91425518D01*
X132911928Y-91550000D01*
X132911928Y-93050000D01*
X132924188Y-93174482D01*
X132960498Y-93294180D01*
X133019463Y-93404494D01*
X133098815Y-93501185D01*
X133195506Y-93580537D01*
X133305820Y-93639502D01*
X133425518Y-93675812D01*
X133540000Y-93687087D01*
X133540001Y-96485197D01*
X132923886Y-97101312D01*
X132741335Y-97065000D01*
X132458665Y-97065000D01*
X132181426Y-97120147D01*
X131920273Y-97228320D01*
X131685241Y-97385363D01*
X131485363Y-97585241D01*
X131328320Y-97820273D01*
X131220147Y-98081426D01*
X131165000Y-98358665D01*
X131165000Y-98641335D01*
X131220147Y-98918574D01*
X131328320Y-99179727D01*
X131485363Y-99414759D01*
X131685241Y-99614637D01*
X131920273Y-99771680D01*
X132181426Y-99879853D01*
X132458665Y-99935000D01*
X132741335Y-99935000D01*
X132923887Y-99898688D01*
X136136200Y-103111002D01*
X136159999Y-103140001D01*
X136188997Y-103163799D01*
X136275724Y-103234974D01*
X136407753Y-103305546D01*
X136551014Y-103349003D01*
X136700000Y-103363677D01*
X136737333Y-103360000D01*
X138140690Y-103360000D01*
X138019380Y-103541553D01*
X137911207Y-103802706D01*
X137856060Y-104079945D01*
X137856060Y-104362615D01*
X137911207Y-104639854D01*
X138019380Y-104901007D01*
X138176423Y-105136039D01*
X138376301Y-105335917D01*
X138576929Y-105469972D01*
X138549546Y-105484609D01*
X138477963Y-105728578D01*
X139291060Y-106541675D01*
X140104157Y-105728578D01*
X140032574Y-105484609D01*
X140003719Y-105470956D01*
X140205819Y-105335917D01*
X140405697Y-105136039D01*
X140562740Y-104901007D01*
X140670913Y-104639854D01*
X140702838Y-104479360D01*
X140728067Y-104606194D01*
X140836240Y-104867347D01*
X140993283Y-105102379D01*
X141193161Y-105302257D01*
X141393789Y-105436312D01*
X141366406Y-105450949D01*
X141294823Y-105694918D01*
X142107920Y-106508015D01*
X142921017Y-105694918D01*
X142849434Y-105450949D01*
X142820579Y-105437296D01*
X143022679Y-105302257D01*
X143222557Y-105102379D01*
X143379600Y-104867347D01*
X143453822Y-104688158D01*
X143508320Y-104819727D01*
X143665363Y-105054759D01*
X143865241Y-105254637D01*
X144097759Y-105410000D01*
X143865241Y-105565363D01*
X143665363Y-105765241D01*
X143508320Y-106000273D01*
X143442736Y-106158608D01*
X143411523Y-106071328D01*
X143344591Y-105946106D01*
X143100622Y-105874523D01*
X142287525Y-106687620D01*
X143100622Y-107500717D01*
X143344591Y-107429134D01*
X143447224Y-107212229D01*
X143508320Y-107359727D01*
X143665363Y-107594759D01*
X143865241Y-107794637D01*
X144100273Y-107951680D01*
X144361426Y-108059853D01*
X144638665Y-108115000D01*
X144921335Y-108115000D01*
X145103886Y-108078688D01*
X145341202Y-108316004D01*
X145365000Y-108345002D01*
X145480725Y-108439975D01*
X145612754Y-108510547D01*
X145756015Y-108554004D01*
X145867668Y-108565001D01*
X145867676Y-108565001D01*
X145905001Y-108568677D01*
X145942326Y-108565001D01*
X153656679Y-108565001D01*
X153694001Y-108568677D01*
X153731323Y-108565001D01*
X153731334Y-108565001D01*
X153842987Y-108554004D01*
X153986248Y-108510547D01*
X154118277Y-108439975D01*
X154234002Y-108345002D01*
X154257805Y-108315998D01*
X154644103Y-107929700D01*
X156524908Y-107929700D01*
X156537168Y-108054182D01*
X156573478Y-108173880D01*
X156632443Y-108284194D01*
X156711795Y-108380885D01*
X156808486Y-108460237D01*
X156918800Y-108519202D01*
X157038498Y-108555512D01*
X157162980Y-108567772D01*
X157402230Y-108564700D01*
X157560980Y-108405950D01*
X157560980Y-107581700D01*
X156686730Y-107581700D01*
X156527980Y-107740450D01*
X156524908Y-107929700D01*
X154644103Y-107929700D01*
X155594103Y-106979700D01*
X156524908Y-106979700D01*
X156527980Y-107168950D01*
X156686730Y-107327700D01*
X157560980Y-107327700D01*
X157560980Y-106503450D01*
X157814980Y-106503450D01*
X157814980Y-107327700D01*
X157834980Y-107327700D01*
X157834980Y-107581700D01*
X157814980Y-107581700D01*
X157814980Y-108405950D01*
X157973730Y-108564700D01*
X158212980Y-108567772D01*
X158337462Y-108555512D01*
X158457160Y-108519202D01*
X158567474Y-108460237D01*
X158640141Y-108400601D01*
X158664038Y-108420212D01*
X158815413Y-108501123D01*
X158979664Y-108550948D01*
X159150480Y-108567772D01*
X159725480Y-108567772D01*
X159896296Y-108550948D01*
X160060547Y-108501123D01*
X160211922Y-108420212D01*
X160344603Y-108311323D01*
X160453492Y-108178642D01*
X160521590Y-108051238D01*
X160590481Y-107994701D01*
X160614284Y-107965697D01*
X160867577Y-107712404D01*
X160859783Y-107870512D01*
X160901213Y-108150130D01*
X160996397Y-108416292D01*
X161063329Y-108541514D01*
X161307298Y-108613097D01*
X162120395Y-107800000D01*
X162479605Y-107800000D01*
X163292702Y-108613097D01*
X163536671Y-108541514D01*
X163550324Y-108512659D01*
X163685363Y-108714759D01*
X163885241Y-108914637D01*
X164120273Y-109071680D01*
X164381426Y-109179853D01*
X164658665Y-109235000D01*
X164941335Y-109235000D01*
X165218574Y-109179853D01*
X165479727Y-109071680D01*
X165714759Y-108914637D01*
X165914637Y-108714759D01*
X166071680Y-108479727D01*
X166179853Y-108218574D01*
X166235000Y-107941335D01*
X166235000Y-107658665D01*
X166179853Y-107381426D01*
X166071680Y-107120273D01*
X165914637Y-106885241D01*
X165714759Y-106685363D01*
X165479727Y-106528320D01*
X165218574Y-106420147D01*
X164941335Y-106365000D01*
X164658665Y-106365000D01*
X164381426Y-106420147D01*
X164120273Y-106528320D01*
X163885241Y-106685363D01*
X163685363Y-106885241D01*
X163551308Y-107085869D01*
X163536671Y-107058486D01*
X163292702Y-106986903D01*
X162479605Y-107800000D01*
X162120395Y-107800000D01*
X162106253Y-107785858D01*
X162285858Y-107606253D01*
X162300000Y-107620395D01*
X163113097Y-106807298D01*
X163041514Y-106563329D01*
X162786004Y-106442429D01*
X162511816Y-106373700D01*
X162229488Y-106359783D01*
X162218583Y-106361399D01*
X162695083Y-105884899D01*
X162724081Y-105861101D01*
X162750412Y-105829017D01*
X162819054Y-105745377D01*
X162889626Y-105613347D01*
X162903541Y-105567473D01*
X162933083Y-105470086D01*
X162942876Y-105370659D01*
X163035093Y-105309042D01*
X163221042Y-105123093D01*
X163367141Y-104904439D01*
X163467776Y-104661485D01*
X163519080Y-104403566D01*
X163519080Y-104140594D01*
X163467776Y-103882675D01*
X163367141Y-103639721D01*
X163221042Y-103421067D01*
X163035093Y-103235118D01*
X162816439Y-103089019D01*
X162573485Y-102988384D01*
X162315566Y-102937080D01*
X162052594Y-102937080D01*
X161794675Y-102988384D01*
X161551721Y-103089019D01*
X161333067Y-103235118D01*
X161147118Y-103421067D01*
X161001019Y-103639721D01*
X160900384Y-103882675D01*
X160849080Y-104140594D01*
X160849080Y-104403566D01*
X160900384Y-104661485D01*
X161001019Y-104904439D01*
X161147118Y-105123093D01*
X161227202Y-105203177D01*
X160031050Y-106399329D01*
X159896296Y-106358452D01*
X159725480Y-106341628D01*
X159150480Y-106341628D01*
X158979664Y-106358452D01*
X158815413Y-106408277D01*
X158664038Y-106489188D01*
X158640141Y-106508799D01*
X158567474Y-106449163D01*
X158457160Y-106390198D01*
X158337462Y-106353888D01*
X158212980Y-106341628D01*
X157973730Y-106344700D01*
X157814980Y-106503450D01*
X157560980Y-106503450D01*
X157402230Y-106344700D01*
X157162980Y-106341628D01*
X157038498Y-106353888D01*
X156918800Y-106390198D01*
X156808486Y-106449163D01*
X156711795Y-106528515D01*
X156632443Y-106625206D01*
X156573478Y-106735520D01*
X156537168Y-106855218D01*
X156524908Y-106979700D01*
X155594103Y-106979700D01*
X161259214Y-101314590D01*
X161305820Y-101339502D01*
X161425518Y-101375812D01*
X161550000Y-101388072D01*
X162114250Y-101385000D01*
X162273000Y-101226250D01*
X162273000Y-100027000D01*
X162527000Y-100027000D01*
X162527000Y-101226250D01*
X162685750Y-101385000D01*
X163250000Y-101388072D01*
X163374482Y-101375812D01*
X163494180Y-101339502D01*
X163604494Y-101280537D01*
X163701185Y-101201185D01*
X163780537Y-101104494D01*
X163839502Y-100994180D01*
X163875812Y-100874482D01*
X163888072Y-100750000D01*
X163885000Y-100185750D01*
X163726250Y-100027000D01*
X162527000Y-100027000D01*
X162273000Y-100027000D01*
X162253000Y-100027000D01*
X162253000Y-99773000D01*
X162273000Y-99773000D01*
X162273000Y-99753000D01*
X162527000Y-99753000D01*
X162527000Y-99773000D01*
X163726250Y-99773000D01*
X163885000Y-99614250D01*
X163888072Y-99050000D01*
X163875812Y-98925518D01*
X163839502Y-98805820D01*
X163780537Y-98695506D01*
X163701185Y-98598815D01*
X163604494Y-98519463D01*
X163494180Y-98460498D01*
X163421620Y-98438487D01*
X163553475Y-98306632D01*
X163715990Y-98063411D01*
X163827932Y-97793158D01*
X163885000Y-97506260D01*
X163885000Y-97213740D01*
X163827932Y-96926842D01*
X163715990Y-96656589D01*
X163580296Y-96453508D01*
X164086010Y-95947795D01*
X164115002Y-95924002D01*
X164138796Y-95895009D01*
X164138800Y-95895005D01*
X164209974Y-95808278D01*
X164209975Y-95808277D01*
X164280547Y-95676248D01*
X164324004Y-95532987D01*
X164335001Y-95421334D01*
X164335001Y-95421325D01*
X164338677Y-95384002D01*
X164335001Y-95346679D01*
X164335001Y-85462334D01*
X164338678Y-85425001D01*
X164324004Y-85276015D01*
X164280547Y-85132754D01*
X164209975Y-85000725D01*
X164138800Y-84913998D01*
X164115002Y-84885000D01*
X164086004Y-84861202D01*
X162349802Y-83125001D01*
X162411008Y-83063795D01*
X162440001Y-83040001D01*
X162463795Y-83011008D01*
X162463799Y-83011004D01*
X162534973Y-82924277D01*
X162534974Y-82924276D01*
X162605546Y-82792247D01*
X162649003Y-82648986D01*
X162660000Y-82537333D01*
X162660000Y-82537324D01*
X162663676Y-82500001D01*
X162660000Y-82462678D01*
X162660000Y-81287087D01*
X162774482Y-81275812D01*
X162894180Y-81239502D01*
X163004494Y-81180537D01*
X163101185Y-81101185D01*
X163180537Y-81004494D01*
X163239502Y-80894180D01*
X163275812Y-80774482D01*
X163288072Y-80650000D01*
X163288072Y-79650000D01*
X163275812Y-79525518D01*
X163268071Y-79500000D01*
X163275812Y-79474482D01*
X163288072Y-79350000D01*
X163288072Y-78350000D01*
X163275812Y-78225518D01*
X163239502Y-78105820D01*
X163180537Y-77995506D01*
X163101185Y-77898815D01*
X163004494Y-77819463D01*
X162894180Y-77760498D01*
X162774482Y-77724188D01*
X162650000Y-77711928D01*
X161836730Y-77711928D01*
X160885001Y-76760200D01*
X160885001Y-76512332D01*
X160888678Y-76474999D01*
X160885001Y-76437666D01*
X160885001Y-67942323D01*
X160888677Y-67905000D01*
X160885001Y-67867677D01*
X160885001Y-67867668D01*
X160874004Y-67756015D01*
X160830547Y-67612754D01*
X160759975Y-67480725D01*
X160665002Y-67365000D01*
X160635999Y-67341198D01*
X160473804Y-67179003D01*
X160473799Y-67178997D01*
X159418688Y-66123886D01*
X159455000Y-65941335D01*
X159455000Y-65658665D01*
X159408733Y-65426068D01*
X161515000Y-63319802D01*
X161515000Y-63427002D01*
X161673748Y-63427002D01*
X161515000Y-63585750D01*
X161511928Y-64150000D01*
X161524188Y-64274482D01*
X161560498Y-64394180D01*
X161619463Y-64504494D01*
X161698815Y-64601185D01*
X161795506Y-64680537D01*
X161905820Y-64739502D01*
X162025518Y-64775812D01*
X162150000Y-64788072D01*
X162714250Y-64785000D01*
X162873000Y-64626250D01*
X162873000Y-63427000D01*
X163127000Y-63427000D01*
X163127000Y-64626250D01*
X163285750Y-64785000D01*
X163850000Y-64788072D01*
X163974482Y-64775812D01*
X164094180Y-64739502D01*
X164204494Y-64680537D01*
X164301185Y-64601185D01*
X164380537Y-64504494D01*
X164439502Y-64394180D01*
X164475812Y-64274482D01*
X164488072Y-64150000D01*
X164485000Y-63585750D01*
X164326250Y-63427000D01*
X163127000Y-63427000D01*
X162873000Y-63427000D01*
X162853000Y-63427000D01*
X162853000Y-63173000D01*
X162873000Y-63173000D01*
X162873000Y-63153000D01*
X163127000Y-63153000D01*
X163127000Y-63173000D01*
X164326250Y-63173000D01*
X164485000Y-63014250D01*
X164488072Y-62450000D01*
X164475812Y-62325518D01*
X164439502Y-62205820D01*
X164380537Y-62095506D01*
X164301185Y-61998815D01*
X164204494Y-61919463D01*
X164094180Y-61860498D01*
X164021620Y-61838487D01*
X164153475Y-61706632D01*
X164315990Y-61463411D01*
X164427932Y-61193158D01*
X164485000Y-60906260D01*
X164485000Y-60613740D01*
X164427932Y-60326842D01*
X164315990Y-60056589D01*
X164153475Y-59813368D01*
X163946632Y-59606525D01*
X163703411Y-59444010D01*
X163433158Y-59332068D01*
X163146260Y-59275000D01*
X162853740Y-59275000D01*
X162566842Y-59332068D01*
X162296589Y-59444010D01*
X162053368Y-59606525D01*
X161846525Y-59813368D01*
X161684010Y-60056589D01*
X161572068Y-60326842D01*
X161515000Y-60613740D01*
X161515000Y-60906260D01*
X161558790Y-61126408D01*
X158293841Y-64391357D01*
X158161335Y-64365000D01*
X157878665Y-64365000D01*
X157696114Y-64401312D01*
X152909801Y-59615000D01*
X153081335Y-59615000D01*
X153358574Y-59559853D01*
X153619727Y-59451680D01*
X153854759Y-59294637D01*
X154054637Y-59094759D01*
X154210000Y-58862241D01*
X154365363Y-59094759D01*
X154565241Y-59294637D01*
X154800273Y-59451680D01*
X155061426Y-59559853D01*
X155338665Y-59615000D01*
X155621335Y-59615000D01*
X155898574Y-59559853D01*
X156159727Y-59451680D01*
X156394759Y-59294637D01*
X156594637Y-59094759D01*
X156750000Y-58862241D01*
X156905363Y-59094759D01*
X157105241Y-59294637D01*
X157340273Y-59451680D01*
X157601426Y-59559853D01*
X157878665Y-59615000D01*
X158161335Y-59615000D01*
X158438574Y-59559853D01*
X158699727Y-59451680D01*
X158934759Y-59294637D01*
X159134637Y-59094759D01*
X159291680Y-58859727D01*
X159399853Y-58598574D01*
X159455000Y-58321335D01*
X159455000Y-58038665D01*
X159399853Y-57761426D01*
X159291680Y-57500273D01*
X159134637Y-57265241D01*
X158934759Y-57065363D01*
X158699727Y-56908320D01*
X158438574Y-56800147D01*
X158161335Y-56745000D01*
X157878665Y-56745000D01*
X157601426Y-56800147D01*
X157340273Y-56908320D01*
X157105241Y-57065363D01*
X156905363Y-57265241D01*
X156750000Y-57497759D01*
X156594637Y-57265241D01*
X156394759Y-57065363D01*
X156159727Y-56908320D01*
X155898574Y-56800147D01*
X155621335Y-56745000D01*
X155338665Y-56745000D01*
X155061426Y-56800147D01*
X154800273Y-56908320D01*
X154565241Y-57065363D01*
X154365363Y-57265241D01*
X154210000Y-57497759D01*
X154054637Y-57265241D01*
X153854759Y-57065363D01*
X153619727Y-56908320D01*
X153358574Y-56800147D01*
X153081335Y-56745000D01*
X152798665Y-56745000D01*
X152521426Y-56800147D01*
X152260273Y-56908320D01*
X152025241Y-57065363D01*
X151825363Y-57265241D01*
X151670000Y-57497759D01*
X151514637Y-57265241D01*
X151314759Y-57065363D01*
X151079727Y-56908320D01*
X150818574Y-56800147D01*
X150541335Y-56745000D01*
X150258665Y-56745000D01*
X149981426Y-56800147D01*
X149720273Y-56908320D01*
X149485241Y-57065363D01*
X149285363Y-57265241D01*
X149128320Y-57500273D01*
X149020147Y-57761426D01*
X148965000Y-58038665D01*
X148965000Y-58321335D01*
X149020147Y-58598574D01*
X149128320Y-58859727D01*
X149285363Y-59094759D01*
X149485241Y-59294637D01*
X149720273Y-59451680D01*
X149981426Y-59559853D01*
X150258665Y-59615000D01*
X150541335Y-59615000D01*
X150723887Y-59578688D01*
X155510198Y-64365000D01*
X155338665Y-64365000D01*
X155061426Y-64420147D01*
X154800273Y-64528320D01*
X154565241Y-64685363D01*
X154365363Y-64885241D01*
X154210000Y-65117759D01*
X154054637Y-64885241D01*
X153854759Y-64685363D01*
X153619727Y-64528320D01*
X153358574Y-64420147D01*
X153081335Y-64365000D01*
X152798665Y-64365000D01*
X152521426Y-64420147D01*
X152260273Y-64528320D01*
X152025241Y-64685363D01*
X151826643Y-64883961D01*
X151825812Y-64875518D01*
X151789502Y-64755820D01*
X151730537Y-64645506D01*
X151651185Y-64548815D01*
X151554494Y-64469463D01*
X151444180Y-64410498D01*
X151324482Y-64374188D01*
X151200000Y-64361928D01*
X150685750Y-64365000D01*
X150527000Y-64523750D01*
X150527000Y-65673000D01*
X150547000Y-65673000D01*
X150547000Y-65927000D01*
X150527000Y-65927000D01*
X150527000Y-67076250D01*
X150685750Y-67235000D01*
X151200000Y-67238072D01*
X151324482Y-67225812D01*
X151444180Y-67189502D01*
X151554494Y-67130537D01*
X151651185Y-67051185D01*
X151730537Y-66954494D01*
X151789502Y-66844180D01*
X151825812Y-66724482D01*
X151826643Y-66716039D01*
X152025241Y-66914637D01*
X152260273Y-67071680D01*
X152521426Y-67179853D01*
X152798665Y-67235000D01*
X153081335Y-67235000D01*
X153263887Y-67198688D01*
X155913426Y-69848227D01*
X155891023Y-69870630D01*
X156007296Y-69986903D01*
X155763329Y-70058486D01*
X155642429Y-70313996D01*
X155573700Y-70588184D01*
X155559783Y-70870512D01*
X155601213Y-71150130D01*
X155696397Y-71416292D01*
X155763329Y-71541514D01*
X156007298Y-71613097D01*
X156820395Y-70800000D01*
X156806253Y-70785858D01*
X156985858Y-70606253D01*
X157000000Y-70620395D01*
X157014143Y-70606253D01*
X157193748Y-70785858D01*
X157179605Y-70800000D01*
X157193748Y-70814143D01*
X157014143Y-70993748D01*
X157000000Y-70979605D01*
X156186903Y-71792702D01*
X156258486Y-72036671D01*
X156513996Y-72157571D01*
X156788184Y-72226300D01*
X157070512Y-72240217D01*
X157350130Y-72198787D01*
X157616292Y-72103603D01*
X157738309Y-72038384D01*
X157748815Y-72051185D01*
X157845506Y-72130537D01*
X157955820Y-72189502D01*
X158075518Y-72225812D01*
X158200000Y-72238072D01*
X159365002Y-72238072D01*
X159365002Y-76160196D01*
X157913271Y-77611928D01*
X157500000Y-77611928D01*
X157375518Y-77624188D01*
X157255820Y-77660498D01*
X157145506Y-77719463D01*
X157048815Y-77798815D01*
X156969463Y-77895506D01*
X156910498Y-78005820D01*
X156874188Y-78125518D01*
X156861928Y-78250000D01*
X156861928Y-79150000D01*
X156874188Y-79274482D01*
X156910498Y-79394180D01*
X156969463Y-79504494D01*
X157048815Y-79601185D01*
X157140001Y-79676019D01*
X157140001Y-79710749D01*
X157077000Y-79773750D01*
X157077000Y-80573000D01*
X157097000Y-80573000D01*
X157097000Y-80827000D01*
X157077000Y-80827000D01*
X157077000Y-81626250D01*
X157140001Y-81689251D01*
X157140000Y-85261928D01*
X156700000Y-85261928D01*
X156575518Y-85274188D01*
X156455820Y-85310498D01*
X156345506Y-85369463D01*
X156248815Y-85448815D01*
X156238193Y-85461758D01*
X155986004Y-85342429D01*
X155711816Y-85273700D01*
X155429488Y-85259783D01*
X155149870Y-85301213D01*
X154883708Y-85396397D01*
X154758486Y-85463329D01*
X154686903Y-85707298D01*
X155500000Y-86520395D01*
X155514143Y-86506253D01*
X155693748Y-86685858D01*
X155679605Y-86700000D01*
X155693748Y-86714143D01*
X155514143Y-86893748D01*
X155500000Y-86879605D01*
X154686903Y-87692702D01*
X154758486Y-87936671D01*
X155013996Y-88057571D01*
X155288184Y-88126300D01*
X155570512Y-88140217D01*
X155850130Y-88098787D01*
X156116292Y-88003603D01*
X156238309Y-87938384D01*
X156248815Y-87951185D01*
X156345506Y-88030537D01*
X156455820Y-88089502D01*
X156575518Y-88125812D01*
X156700000Y-88138072D01*
X156740000Y-88138072D01*
X156740000Y-88565198D01*
X153835000Y-91470199D01*
X153835000Y-91298665D01*
X153779853Y-91021426D01*
X153671680Y-90760273D01*
X153514637Y-90525241D01*
X153314759Y-90325363D01*
X153080872Y-90169085D01*
X153141514Y-90136671D01*
X153213097Y-89892702D01*
X152400000Y-89079605D01*
X151586903Y-89892702D01*
X151658486Y-90136671D01*
X151722992Y-90167194D01*
X151720273Y-90168320D01*
X151485241Y-90325363D01*
X151285363Y-90525241D01*
X151128320Y-90760273D01*
X151020147Y-91021426D01*
X150965000Y-91298665D01*
X150965000Y-91470199D01*
X150620000Y-91125199D01*
X150620000Y-88970512D01*
X150959783Y-88970512D01*
X151001213Y-89250130D01*
X151096397Y-89516292D01*
X151163329Y-89641514D01*
X151407298Y-89713097D01*
X152220395Y-88900000D01*
X152579605Y-88900000D01*
X153392702Y-89713097D01*
X153636671Y-89641514D01*
X153757571Y-89386004D01*
X153826300Y-89111816D01*
X153840217Y-88829488D01*
X153798787Y-88549870D01*
X153703603Y-88283708D01*
X153636671Y-88158486D01*
X153392702Y-88086903D01*
X152579605Y-88900000D01*
X152220395Y-88900000D01*
X151407298Y-88086903D01*
X151163329Y-88158486D01*
X151042429Y-88413996D01*
X150973700Y-88688184D01*
X150959783Y-88970512D01*
X150620000Y-88970512D01*
X150620000Y-88937333D01*
X150623677Y-88900000D01*
X150609003Y-88751014D01*
X150565546Y-88607753D01*
X150494974Y-88475724D01*
X150400001Y-88359999D01*
X150284276Y-88265026D01*
X150152247Y-88194454D01*
X150008986Y-88150997D01*
X149897333Y-88140000D01*
X149860000Y-88136323D01*
X149822667Y-88140000D01*
X145998043Y-88140000D01*
X145894637Y-87985241D01*
X145694759Y-87785363D01*
X145462241Y-87630000D01*
X145694759Y-87474637D01*
X145894637Y-87274759D01*
X146051680Y-87039727D01*
X146159853Y-86778574D01*
X146215000Y-86501335D01*
X146215000Y-86218665D01*
X146159853Y-85941426D01*
X146051680Y-85680273D01*
X145894637Y-85445241D01*
X145694759Y-85245363D01*
X145462241Y-85090000D01*
X145694759Y-84934637D01*
X145894637Y-84734759D01*
X146051680Y-84499727D01*
X146159853Y-84238574D01*
X146215000Y-83961335D01*
X146215000Y-83678665D01*
X146159853Y-83401426D01*
X146051680Y-83140273D01*
X145894637Y-82905241D01*
X145694759Y-82705363D01*
X145462241Y-82550000D01*
X145694759Y-82394637D01*
X145894637Y-82194759D01*
X146051680Y-81959727D01*
X146159853Y-81698574D01*
X146215000Y-81421335D01*
X146215000Y-81138665D01*
X146159853Y-80861426D01*
X146051680Y-80600273D01*
X145894637Y-80365241D01*
X145694759Y-80165363D01*
X145462241Y-80010000D01*
X145694759Y-79854637D01*
X145894637Y-79654759D01*
X146051680Y-79419727D01*
X146159853Y-79158574D01*
X146215000Y-78881335D01*
X146215000Y-78598665D01*
X146159853Y-78321426D01*
X146051680Y-78060273D01*
X145894637Y-77825241D01*
X145694759Y-77625363D01*
X145462241Y-77470000D01*
X145694759Y-77314637D01*
X145894637Y-77114759D01*
X146051680Y-76879727D01*
X146159853Y-76618574D01*
X146215000Y-76341335D01*
X146215000Y-76058665D01*
X146159853Y-75781426D01*
X146051680Y-75520273D01*
X145894637Y-75285241D01*
X145696039Y-75086643D01*
X145704482Y-75085812D01*
X145824180Y-75049502D01*
X145934494Y-74990537D01*
X146031185Y-74911185D01*
X146110537Y-74814494D01*
X146169502Y-74704180D01*
X146205812Y-74584482D01*
X146218072Y-74460000D01*
X146218072Y-73518665D01*
X150965000Y-73518665D01*
X150965000Y-73801335D01*
X151020147Y-74078574D01*
X151128320Y-74339727D01*
X151285363Y-74574759D01*
X151485241Y-74774637D01*
X151717759Y-74930000D01*
X151485241Y-75085363D01*
X151285363Y-75285241D01*
X151128320Y-75520273D01*
X151020147Y-75781426D01*
X150965000Y-76058665D01*
X150965000Y-76341335D01*
X151020147Y-76618574D01*
X151128320Y-76879727D01*
X151285363Y-77114759D01*
X151485241Y-77314637D01*
X151717759Y-77470000D01*
X151485241Y-77625363D01*
X151285363Y-77825241D01*
X151128320Y-78060273D01*
X151020147Y-78321426D01*
X150965000Y-78598665D01*
X150965000Y-78881335D01*
X151020147Y-79158574D01*
X151128320Y-79419727D01*
X151285363Y-79654759D01*
X151485241Y-79854637D01*
X151717759Y-80010000D01*
X151485241Y-80165363D01*
X151285363Y-80365241D01*
X151128320Y-80600273D01*
X151020147Y-80861426D01*
X150965000Y-81138665D01*
X150965000Y-81421335D01*
X151020147Y-81698574D01*
X151128320Y-81959727D01*
X151285363Y-82194759D01*
X151485241Y-82394637D01*
X151717759Y-82550000D01*
X151485241Y-82705363D01*
X151285363Y-82905241D01*
X151128320Y-83140273D01*
X151020147Y-83401426D01*
X150965000Y-83678665D01*
X150965000Y-83961335D01*
X151020147Y-84238574D01*
X151128320Y-84499727D01*
X151285363Y-84734759D01*
X151485241Y-84934637D01*
X151717759Y-85090000D01*
X151485241Y-85245363D01*
X151285363Y-85445241D01*
X151128320Y-85680273D01*
X151020147Y-85941426D01*
X150965000Y-86218665D01*
X150965000Y-86501335D01*
X151020147Y-86778574D01*
X151128320Y-87039727D01*
X151285363Y-87274759D01*
X151485241Y-87474637D01*
X151719128Y-87630915D01*
X151658486Y-87663329D01*
X151586903Y-87907298D01*
X152400000Y-88720395D01*
X153213097Y-87907298D01*
X153141514Y-87663329D01*
X153077008Y-87632806D01*
X153079727Y-87631680D01*
X153314759Y-87474637D01*
X153514637Y-87274759D01*
X153671680Y-87039727D01*
X153779853Y-86778574D01*
X153781456Y-86770512D01*
X154059783Y-86770512D01*
X154101213Y-87050130D01*
X154196397Y-87316292D01*
X154263329Y-87441514D01*
X154507298Y-87513097D01*
X155320395Y-86700000D01*
X154507298Y-85886903D01*
X154263329Y-85958486D01*
X154142429Y-86213996D01*
X154073700Y-86488184D01*
X154059783Y-86770512D01*
X153781456Y-86770512D01*
X153835000Y-86501335D01*
X153835000Y-86218665D01*
X153779853Y-85941426D01*
X153671680Y-85680273D01*
X153514637Y-85445241D01*
X153314759Y-85245363D01*
X153082241Y-85090000D01*
X153314759Y-84934637D01*
X153514637Y-84734759D01*
X153671680Y-84499727D01*
X153779853Y-84238574D01*
X153835000Y-83961335D01*
X153835000Y-83678665D01*
X153779853Y-83401426D01*
X153671680Y-83140273D01*
X153514637Y-82905241D01*
X153314759Y-82705363D01*
X153082241Y-82550000D01*
X153314759Y-82394637D01*
X153514637Y-82194759D01*
X153671680Y-81959727D01*
X153779853Y-81698574D01*
X153835000Y-81421335D01*
X153835000Y-81150000D01*
X155911928Y-81150000D01*
X155924188Y-81274482D01*
X155960498Y-81394180D01*
X156019463Y-81504494D01*
X156098815Y-81601185D01*
X156195506Y-81680537D01*
X156305820Y-81739502D01*
X156425518Y-81775812D01*
X156550000Y-81788072D01*
X156664250Y-81785000D01*
X156823000Y-81626250D01*
X156823000Y-80827000D01*
X156073750Y-80827000D01*
X155915000Y-80985750D01*
X155911928Y-81150000D01*
X153835000Y-81150000D01*
X153835000Y-81138665D01*
X153779853Y-80861426D01*
X153671680Y-80600273D01*
X153514637Y-80365241D01*
X153399396Y-80250000D01*
X155911928Y-80250000D01*
X155915000Y-80414250D01*
X156073750Y-80573000D01*
X156823000Y-80573000D01*
X156823000Y-79773750D01*
X156664250Y-79615000D01*
X156550000Y-79611928D01*
X156425518Y-79624188D01*
X156305820Y-79660498D01*
X156195506Y-79719463D01*
X156098815Y-79798815D01*
X156019463Y-79895506D01*
X155960498Y-80005820D01*
X155924188Y-80125518D01*
X155911928Y-80250000D01*
X153399396Y-80250000D01*
X153314759Y-80165363D01*
X153082241Y-80010000D01*
X153314759Y-79854637D01*
X153514637Y-79654759D01*
X153671680Y-79419727D01*
X153779853Y-79158574D01*
X153835000Y-78881335D01*
X153835000Y-78598665D01*
X153779853Y-78321426D01*
X153671680Y-78060273D01*
X153514637Y-77825241D01*
X153314759Y-77625363D01*
X153082241Y-77470000D01*
X153314759Y-77314637D01*
X153514637Y-77114759D01*
X153671680Y-76879727D01*
X153779853Y-76618574D01*
X153835000Y-76341335D01*
X153835000Y-76058665D01*
X153779853Y-75781426D01*
X153671680Y-75520273D01*
X153514637Y-75285241D01*
X153314759Y-75085363D01*
X153082241Y-74930000D01*
X153314759Y-74774637D01*
X153514637Y-74574759D01*
X153671680Y-74339727D01*
X153779853Y-74078574D01*
X153835000Y-73801335D01*
X153835000Y-73518665D01*
X153779853Y-73241426D01*
X153671680Y-72980273D01*
X153514637Y-72745241D01*
X153314759Y-72545363D01*
X153079727Y-72388320D01*
X152818574Y-72280147D01*
X152541335Y-72225000D01*
X152258665Y-72225000D01*
X151981426Y-72280147D01*
X151720273Y-72388320D01*
X151485241Y-72545363D01*
X151285363Y-72745241D01*
X151128320Y-72980273D01*
X151020147Y-73241426D01*
X150965000Y-73518665D01*
X146218072Y-73518665D01*
X146218072Y-72860000D01*
X146205812Y-72735518D01*
X146169502Y-72615820D01*
X146110537Y-72505506D01*
X146031185Y-72408815D01*
X145934494Y-72329463D01*
X145824180Y-72270498D01*
X145704482Y-72234188D01*
X145580000Y-72221928D01*
X145434326Y-72221928D01*
X145414974Y-72185723D01*
X145343799Y-72098997D01*
X145320001Y-72069999D01*
X145291003Y-72046201D01*
X140552820Y-67308019D01*
X140552820Y-67257307D01*
X140489988Y-66941428D01*
X140366738Y-66643877D01*
X140187807Y-66376088D01*
X139960072Y-66148353D01*
X139692283Y-65969422D01*
X139394732Y-65846172D01*
X139078853Y-65783340D01*
X138756787Y-65783340D01*
X138440908Y-65846172D01*
X138143357Y-65969422D01*
X137875568Y-66148353D01*
X137647833Y-66376088D01*
X137468902Y-66643877D01*
X137462911Y-66658340D01*
X133872729Y-66658340D01*
X133866738Y-66643877D01*
X133687807Y-66376088D01*
X133460072Y-66148353D01*
X133192283Y-65969422D01*
X132894732Y-65846172D01*
X132578853Y-65783340D01*
X132256787Y-65783340D01*
X131940908Y-65846172D01*
X131643357Y-65969422D01*
X131375568Y-66148353D01*
X131147833Y-66376088D01*
X130968902Y-66643877D01*
X130845652Y-66941428D01*
X130782820Y-67257307D01*
X129660000Y-67257307D01*
X129660000Y-65660674D01*
X142763480Y-65660674D01*
X142763480Y-65923646D01*
X142814784Y-66181565D01*
X142915419Y-66424519D01*
X143061518Y-66643173D01*
X143247467Y-66829122D01*
X143466121Y-66975221D01*
X143709075Y-67075856D01*
X143966994Y-67127160D01*
X144229966Y-67127160D01*
X144487885Y-67075856D01*
X144730839Y-66975221D01*
X144949493Y-66829122D01*
X145135442Y-66643173D01*
X145281541Y-66424519D01*
X145382176Y-66181565D01*
X145433480Y-65923646D01*
X145433480Y-65660674D01*
X145615900Y-65660674D01*
X145615900Y-65923646D01*
X145667204Y-66181565D01*
X145767839Y-66424519D01*
X145913938Y-66643173D01*
X146099887Y-66829122D01*
X146318541Y-66975221D01*
X146561495Y-67075856D01*
X146819414Y-67127160D01*
X147082386Y-67127160D01*
X147340305Y-67075856D01*
X147583259Y-66975221D01*
X147801913Y-66829122D01*
X147987862Y-66643173D01*
X148016709Y-66600000D01*
X148961928Y-66600000D01*
X148974188Y-66724482D01*
X149010498Y-66844180D01*
X149069463Y-66954494D01*
X149148815Y-67051185D01*
X149245506Y-67130537D01*
X149355820Y-67189502D01*
X149475518Y-67225812D01*
X149600000Y-67238072D01*
X150114250Y-67235000D01*
X150273000Y-67076250D01*
X150273000Y-65927000D01*
X149123750Y-65927000D01*
X148965000Y-66085750D01*
X148961928Y-66600000D01*
X148016709Y-66600000D01*
X148133961Y-66424519D01*
X148234596Y-66181565D01*
X148285900Y-65923646D01*
X148285900Y-65660674D01*
X148234596Y-65402755D01*
X148133961Y-65159801D01*
X148027187Y-65000000D01*
X148961928Y-65000000D01*
X148965000Y-65514250D01*
X149123750Y-65673000D01*
X150273000Y-65673000D01*
X150273000Y-64523750D01*
X150114250Y-64365000D01*
X149600000Y-64361928D01*
X149475518Y-64374188D01*
X149355820Y-64410498D01*
X149245506Y-64469463D01*
X149148815Y-64548815D01*
X149069463Y-64645506D01*
X149010498Y-64755820D01*
X148974188Y-64875518D01*
X148961928Y-65000000D01*
X148027187Y-65000000D01*
X147987862Y-64941147D01*
X147801913Y-64755198D01*
X147583259Y-64609099D01*
X147340305Y-64508464D01*
X147082386Y-64457160D01*
X146819414Y-64457160D01*
X146561495Y-64508464D01*
X146318541Y-64609099D01*
X146099887Y-64755198D01*
X145913938Y-64941147D01*
X145767839Y-65159801D01*
X145667204Y-65402755D01*
X145615900Y-65660674D01*
X145433480Y-65660674D01*
X145382176Y-65402755D01*
X145281541Y-65159801D01*
X145135442Y-64941147D01*
X144949493Y-64755198D01*
X144730839Y-64609099D01*
X144487885Y-64508464D01*
X144229966Y-64457160D01*
X143966994Y-64457160D01*
X143709075Y-64508464D01*
X143466121Y-64609099D01*
X143247467Y-64755198D01*
X143061518Y-64941147D01*
X142915419Y-65159801D01*
X142814784Y-65402755D01*
X142763480Y-65660674D01*
X129660000Y-65660674D01*
X129660000Y-64053753D01*
X131462012Y-64053753D01*
X131557776Y-64318154D01*
X131847391Y-64459044D01*
X132158928Y-64540724D01*
X132480415Y-64560058D01*
X132799495Y-64516301D01*
X133103908Y-64411135D01*
X133277864Y-64318154D01*
X133373628Y-64053753D01*
X137962012Y-64053753D01*
X138057776Y-64318154D01*
X138347391Y-64459044D01*
X138658928Y-64540724D01*
X138980415Y-64560058D01*
X139299495Y-64516301D01*
X139603908Y-64411135D01*
X139777864Y-64318154D01*
X139873628Y-64053753D01*
X138917820Y-63097945D01*
X137962012Y-64053753D01*
X133373628Y-64053753D01*
X132417820Y-63097945D01*
X131462012Y-64053753D01*
X129660000Y-64053753D01*
X129660000Y-62980935D01*
X130776102Y-62980935D01*
X130819859Y-63300015D01*
X130925025Y-63604428D01*
X131018006Y-63778384D01*
X131282407Y-63874148D01*
X132238215Y-62918340D01*
X132597425Y-62918340D01*
X133553233Y-63874148D01*
X133817634Y-63778384D01*
X133958524Y-63488769D01*
X134040204Y-63177232D01*
X134052009Y-62980935D01*
X137276102Y-62980935D01*
X137319859Y-63300015D01*
X137425025Y-63604428D01*
X137518006Y-63778384D01*
X137782407Y-63874148D01*
X138738215Y-62918340D01*
X139097425Y-62918340D01*
X140053233Y-63874148D01*
X140317634Y-63778384D01*
X140458524Y-63488769D01*
X140540204Y-63177232D01*
X140559538Y-62855745D01*
X140515781Y-62536665D01*
X140410615Y-62232252D01*
X140317634Y-62058296D01*
X140053233Y-61962532D01*
X139097425Y-62918340D01*
X138738215Y-62918340D01*
X137782407Y-61962532D01*
X137518006Y-62058296D01*
X137377116Y-62347911D01*
X137295436Y-62659448D01*
X137276102Y-62980935D01*
X134052009Y-62980935D01*
X134059538Y-62855745D01*
X134015781Y-62536665D01*
X133910615Y-62232252D01*
X133817634Y-62058296D01*
X133553233Y-61962532D01*
X132597425Y-62918340D01*
X132238215Y-62918340D01*
X131282407Y-61962532D01*
X131018006Y-62058296D01*
X130877116Y-62347911D01*
X130795436Y-62659448D01*
X130776102Y-62980935D01*
X129660000Y-62980935D01*
X129660000Y-61782927D01*
X131462012Y-61782927D01*
X132417820Y-62738735D01*
X133373628Y-61782927D01*
X137962012Y-61782927D01*
X138917820Y-62738735D01*
X139873628Y-61782927D01*
X139777864Y-61518526D01*
X139488249Y-61377636D01*
X139176712Y-61295956D01*
X138855225Y-61276622D01*
X138536145Y-61320379D01*
X138231732Y-61425545D01*
X138057776Y-61518526D01*
X137962012Y-61782927D01*
X133373628Y-61782927D01*
X133277864Y-61518526D01*
X132988249Y-61377636D01*
X132676712Y-61295956D01*
X132355225Y-61276622D01*
X132036145Y-61320379D01*
X131731732Y-61425545D01*
X131557776Y-61518526D01*
X131462012Y-61782927D01*
X129660000Y-61782927D01*
X129660000Y-58040674D01*
X142763480Y-58040674D01*
X142763480Y-58303646D01*
X142814784Y-58561565D01*
X142915419Y-58804519D01*
X143061518Y-59023173D01*
X143247467Y-59209122D01*
X143466121Y-59355221D01*
X143709075Y-59455856D01*
X143966994Y-59507160D01*
X144229966Y-59507160D01*
X144487885Y-59455856D01*
X144730839Y-59355221D01*
X144949493Y-59209122D01*
X145135442Y-59023173D01*
X145281541Y-58804519D01*
X145382176Y-58561565D01*
X145433480Y-58303646D01*
X145433480Y-58040674D01*
X145615900Y-58040674D01*
X145615900Y-58303646D01*
X145667204Y-58561565D01*
X145767839Y-58804519D01*
X145913938Y-59023173D01*
X146099887Y-59209122D01*
X146318541Y-59355221D01*
X146561495Y-59455856D01*
X146819414Y-59507160D01*
X147082386Y-59507160D01*
X147340305Y-59455856D01*
X147583259Y-59355221D01*
X147801913Y-59209122D01*
X147987862Y-59023173D01*
X148133961Y-58804519D01*
X148234596Y-58561565D01*
X148285900Y-58303646D01*
X148285900Y-58040674D01*
X148234596Y-57782755D01*
X148133961Y-57539801D01*
X147987862Y-57321147D01*
X147801913Y-57135198D01*
X147583259Y-56989099D01*
X147340305Y-56888464D01*
X147082386Y-56837160D01*
X146819414Y-56837160D01*
X146561495Y-56888464D01*
X146318541Y-56989099D01*
X146099887Y-57135198D01*
X145913938Y-57321147D01*
X145767839Y-57539801D01*
X145667204Y-57782755D01*
X145615900Y-58040674D01*
X145433480Y-58040674D01*
X145382176Y-57782755D01*
X145281541Y-57539801D01*
X145135442Y-57321147D01*
X144949493Y-57135198D01*
X144730839Y-56989099D01*
X144487885Y-56888464D01*
X144229966Y-56837160D01*
X143966994Y-56837160D01*
X143709075Y-56888464D01*
X143466121Y-56989099D01*
X143247467Y-57135198D01*
X143061518Y-57321147D01*
X142915419Y-57539801D01*
X142814784Y-57782755D01*
X142763480Y-58040674D01*
X129660000Y-58040674D01*
X129660000Y-56160000D01*
X166340000Y-56160000D01*
X166340001Y-111249860D01*
G36*
X136340000Y-92874802D02*
G01*
X136340001Y-97764716D01*
X136336671Y-97758486D01*
X136092702Y-97686903D01*
X135279605Y-98500000D01*
X136092702Y-99313097D01*
X136336671Y-99241514D01*
X136401268Y-99104994D01*
X136465026Y-99224276D01*
X136536201Y-99311002D01*
X136560000Y-99340001D01*
X136588998Y-99363799D01*
X139065198Y-101840000D01*
X137014802Y-101840000D01*
X135112141Y-99937340D01*
X135170512Y-99940217D01*
X135450130Y-99898787D01*
X135716292Y-99803603D01*
X135841514Y-99736671D01*
X135913097Y-99492702D01*
X135100000Y-98679605D01*
X135085858Y-98693748D01*
X134906253Y-98514143D01*
X134920395Y-98500000D01*
X134906253Y-98485858D01*
X135085858Y-98306253D01*
X135100000Y-98320395D01*
X135913097Y-97507298D01*
X135841514Y-97263329D01*
X135586004Y-97142429D01*
X135311816Y-97073700D01*
X135029488Y-97059783D01*
X135014730Y-97061970D01*
X135049003Y-96948986D01*
X135060000Y-96837333D01*
X135060000Y-96837324D01*
X135063676Y-96800001D01*
X135060000Y-96762678D01*
X135060000Y-93687087D01*
X135174482Y-93675812D01*
X135294180Y-93639502D01*
X135404494Y-93580537D01*
X135501185Y-93501185D01*
X135580537Y-93404494D01*
X135639502Y-93294180D01*
X135675812Y-93174482D01*
X135688072Y-93050000D01*
X135688072Y-92222874D01*
X136340000Y-92874802D01*
G37*
X136340000Y-92874802D02*
X136340001Y-97764716D01*
X136336671Y-97758486D01*
X136092702Y-97686903D01*
X135279605Y-98500000D01*
X136092702Y-99313097D01*
X136336671Y-99241514D01*
X136401268Y-99104994D01*
X136465026Y-99224276D01*
X136536201Y-99311002D01*
X136560000Y-99340001D01*
X136588998Y-99363799D01*
X139065198Y-101840000D01*
X137014802Y-101840000D01*
X135112141Y-99937340D01*
X135170512Y-99940217D01*
X135450130Y-99898787D01*
X135716292Y-99803603D01*
X135841514Y-99736671D01*
X135913097Y-99492702D01*
X135100000Y-98679605D01*
X135085858Y-98693748D01*
X134906253Y-98514143D01*
X134920395Y-98500000D01*
X134906253Y-98485858D01*
X135085858Y-98306253D01*
X135100000Y-98320395D01*
X135913097Y-97507298D01*
X135841514Y-97263329D01*
X135586004Y-97142429D01*
X135311816Y-97073700D01*
X135029488Y-97059783D01*
X135014730Y-97061970D01*
X135049003Y-96948986D01*
X135060000Y-96837333D01*
X135060000Y-96837324D01*
X135063676Y-96800001D01*
X135060000Y-96762678D01*
X135060000Y-93687087D01*
X135174482Y-93675812D01*
X135294180Y-93639502D01*
X135404494Y-93580537D01*
X135501185Y-93501185D01*
X135580537Y-93404494D01*
X135639502Y-93294180D01*
X135675812Y-93174482D01*
X135688072Y-93050000D01*
X135688072Y-92222874D01*
X136340000Y-92874802D01*
%TD*%
M02*
