%TF.GenerationSoftware,KiCad,Pcbnew,(5.1.6-0-10_14)*%
%TF.CreationDate,2020-10-03T22:08:30-04:00*%
%TF.ProjectId,weather_external,77656174-6865-4725-9f65-787465726e61,rev?*%
%TF.SameCoordinates,Original*%
%TF.FileFunction,Legend,Top*%
%TF.FilePolarity,Positive*%
%FSLAX46Y46*%
G04 Gerber Fmt 4.6, Leading zero omitted, Abs format (unit mm)*
G04 Created by KiCad (PCBNEW (5.1.6-0-10_14)) date 2020-10-03 22:08:30*
%MOMM*%
%LPD*%
G01*
G04 APERTURE LIST*
%ADD10C,0.150000*%
%ADD11C,0.120000*%
%ADD12C,0.100000*%
G04 APERTURE END LIST*
D10*
X134228571Y-81019047D02*
X134228571Y-81780952D01*
X133619047Y-95771428D02*
X134380952Y-95771428D01*
X134000000Y-96152380D02*
X134000000Y-95390476D01*
X160180952Y-102328571D02*
X159419047Y-102328571D01*
X162219047Y-102471428D02*
X162980952Y-102471428D01*
X162600000Y-102852380D02*
X162600000Y-102090476D01*
X156763767Y-109657188D02*
X157525672Y-109657188D01*
X159669527Y-109657188D02*
X160431432Y-109657188D01*
X160050480Y-110038140D02*
X160050480Y-109276236D01*
X135542328Y-74233992D02*
X135542328Y-73472087D01*
X135204247Y-76738788D02*
X135966152Y-76738788D01*
X135585200Y-77119740D02*
X135585200Y-76357836D01*
X165671428Y-63680952D02*
X165671428Y-62919047D01*
X165219047Y-60371428D02*
X165980952Y-60371428D01*
X165600000Y-60752380D02*
X165600000Y-59990476D01*
D11*
%TO.C,JP1*%
X162900000Y-78100000D02*
X162900000Y-80900000D01*
X162900000Y-80900000D02*
X160900000Y-80900000D01*
X160900000Y-80900000D02*
X160900000Y-78100000D01*
X160900000Y-78100000D02*
X162900000Y-78100000D01*
D12*
%TO.C,Atmega328*%
X152060000Y-70760000D02*
X151660000Y-70760000D01*
X152060000Y-71160000D02*
X152060000Y-70760000D01*
X144980000Y-71760000D02*
X144980000Y-72560000D01*
X145980000Y-70760000D02*
X144980000Y-71760000D01*
X146480000Y-70760000D02*
X145980000Y-70760000D01*
X144980000Y-72560000D02*
X144180000Y-72560000D01*
X145080000Y-108250000D02*
X145480000Y-108250000D01*
X145080000Y-107850000D02*
X145080000Y-108250000D01*
X152080000Y-108250000D02*
X151580000Y-108250000D01*
X152080000Y-107850000D02*
X152080000Y-108250000D01*
D11*
%TO.C,C7*%
X134479000Y-97580000D02*
X133221000Y-97580000D01*
X134479000Y-99420000D02*
X133221000Y-99420000D01*
%TO.C,C6*%
X164179000Y-106880000D02*
X162921000Y-106880000D01*
X164179000Y-108720000D02*
X162921000Y-108720000D01*
%TO.C,NRF24L01*%
X163730000Y-101230000D02*
X162400000Y-101230000D01*
X163730000Y-99900000D02*
X163730000Y-101230000D01*
X161130000Y-101230000D02*
X158530000Y-101230000D01*
X161130000Y-98630000D02*
X161130000Y-101230000D01*
X163730000Y-98630000D02*
X161130000Y-98630000D01*
X158530000Y-101230000D02*
X158530000Y-90950000D01*
X163730000Y-98630000D02*
X163730000Y-90950000D01*
X163730000Y-90950000D02*
X158530000Y-90950000D01*
%TO.C,DHT11*%
X137170000Y-94620000D02*
X131430000Y-94620000D01*
X131420000Y-94620000D02*
X131420000Y-82360000D01*
X131420000Y-82360000D02*
X137180000Y-82360000D01*
X137180000Y-82360000D02*
X137180000Y-94610000D01*
X137460000Y-94900000D02*
X137460000Y-92900000D01*
X137460000Y-94900000D02*
X135850000Y-94900000D01*
%TO.C,U4*%
X159480000Y-78940000D02*
X158550000Y-78940000D01*
X156320000Y-78940000D02*
X157250000Y-78940000D01*
X156320000Y-78940000D02*
X156320000Y-81100000D01*
X159480000Y-78940000D02*
X159480000Y-80400000D01*
%TO.C,D1*%
X160222980Y-106719700D02*
X157762980Y-106719700D01*
X160222980Y-108189700D02*
X160222980Y-106719700D01*
X157762980Y-108189700D02*
X160222980Y-108189700D01*
%TO.C,NE555*%
X149010000Y-56850000D02*
X149010000Y-67130000D01*
X159410000Y-56850000D02*
X149010000Y-56850000D01*
X159410000Y-67130000D02*
X159410000Y-56850000D01*
X149010000Y-67130000D02*
X159410000Y-67130000D01*
X149070000Y-59340000D02*
X149070000Y-60990000D01*
X159350000Y-59340000D02*
X149070000Y-59340000D01*
X159350000Y-64640000D02*
X159350000Y-59340000D01*
X149070000Y-64640000D02*
X159350000Y-64640000D01*
X149070000Y-62990000D02*
X149070000Y-64640000D01*
X149070000Y-60990000D02*
G75*
G02*
X149070000Y-62990000I0J-1000000D01*
G01*
%TO.C,R4*%
X146950900Y-64852160D02*
X146950900Y-63902160D01*
X146950900Y-59112160D02*
X146950900Y-60062160D01*
X147870900Y-63902160D02*
X147870900Y-60062160D01*
X146030900Y-63902160D02*
X147870900Y-63902160D01*
X146030900Y-60062160D02*
X146030900Y-63902160D01*
X147870900Y-60062160D02*
X146030900Y-60062160D01*
%TO.C,R3*%
X144098480Y-64852160D02*
X144098480Y-63902160D01*
X144098480Y-59112160D02*
X144098480Y-60062160D01*
X145018480Y-63902160D02*
X145018480Y-60062160D01*
X143178480Y-63902160D02*
X145018480Y-63902160D01*
X143178480Y-60062160D02*
X143178480Y-63902160D01*
X145018480Y-60062160D02*
X143178480Y-60062160D01*
%TO.C,C5*%
X160554775Y-72525000D02*
X160554775Y-72025000D01*
X160804775Y-72275000D02*
X160304775Y-72275000D01*
X155399000Y-71084000D02*
X155399000Y-70516000D01*
X155439000Y-71318000D02*
X155439000Y-70282000D01*
X155479000Y-71477000D02*
X155479000Y-70123000D01*
X155519000Y-71605000D02*
X155519000Y-69995000D01*
X155559000Y-71715000D02*
X155559000Y-69885000D01*
X155599000Y-71811000D02*
X155599000Y-69789000D01*
X155639000Y-71898000D02*
X155639000Y-69702000D01*
X155679000Y-71978000D02*
X155679000Y-69622000D01*
X155719000Y-72051000D02*
X155719000Y-69549000D01*
X155759000Y-72119000D02*
X155759000Y-69481000D01*
X155799000Y-72183000D02*
X155799000Y-69417000D01*
X155839000Y-72243000D02*
X155839000Y-69357000D01*
X155879000Y-72300000D02*
X155879000Y-69300000D01*
X155919000Y-72354000D02*
X155919000Y-69246000D01*
X155959000Y-72405000D02*
X155959000Y-69195000D01*
X155999000Y-69760000D02*
X155999000Y-69147000D01*
X155999000Y-72453000D02*
X155999000Y-71840000D01*
X156039000Y-69760000D02*
X156039000Y-69101000D01*
X156039000Y-72499000D02*
X156039000Y-71840000D01*
X156079000Y-69760000D02*
X156079000Y-69057000D01*
X156079000Y-72543000D02*
X156079000Y-71840000D01*
X156119000Y-69760000D02*
X156119000Y-69015000D01*
X156119000Y-72585000D02*
X156119000Y-71840000D01*
X156159000Y-69760000D02*
X156159000Y-68974000D01*
X156159000Y-72626000D02*
X156159000Y-71840000D01*
X156199000Y-69760000D02*
X156199000Y-68936000D01*
X156199000Y-72664000D02*
X156199000Y-71840000D01*
X156239000Y-69760000D02*
X156239000Y-68899000D01*
X156239000Y-72701000D02*
X156239000Y-71840000D01*
X156279000Y-69760000D02*
X156279000Y-68863000D01*
X156279000Y-72737000D02*
X156279000Y-71840000D01*
X156319000Y-69760000D02*
X156319000Y-68829000D01*
X156319000Y-72771000D02*
X156319000Y-71840000D01*
X156359000Y-69760000D02*
X156359000Y-68796000D01*
X156359000Y-72804000D02*
X156359000Y-71840000D01*
X156399000Y-69760000D02*
X156399000Y-68765000D01*
X156399000Y-72835000D02*
X156399000Y-71840000D01*
X156439000Y-69760000D02*
X156439000Y-68735000D01*
X156439000Y-72865000D02*
X156439000Y-71840000D01*
X156479000Y-69760000D02*
X156479000Y-68705000D01*
X156479000Y-72895000D02*
X156479000Y-71840000D01*
X156519000Y-69760000D02*
X156519000Y-68678000D01*
X156519000Y-72922000D02*
X156519000Y-71840000D01*
X156559000Y-69760000D02*
X156559000Y-68651000D01*
X156559000Y-72949000D02*
X156559000Y-71840000D01*
X156599000Y-69760000D02*
X156599000Y-68625000D01*
X156599000Y-72975000D02*
X156599000Y-71840000D01*
X156639000Y-69760000D02*
X156639000Y-68600000D01*
X156639000Y-73000000D02*
X156639000Y-71840000D01*
X156679000Y-69760000D02*
X156679000Y-68576000D01*
X156679000Y-73024000D02*
X156679000Y-71840000D01*
X156719000Y-69760000D02*
X156719000Y-68553000D01*
X156719000Y-73047000D02*
X156719000Y-71840000D01*
X156759000Y-69760000D02*
X156759000Y-68532000D01*
X156759000Y-73068000D02*
X156759000Y-71840000D01*
X156799000Y-69760000D02*
X156799000Y-68510000D01*
X156799000Y-73090000D02*
X156799000Y-71840000D01*
X156839000Y-69760000D02*
X156839000Y-68490000D01*
X156839000Y-73110000D02*
X156839000Y-71840000D01*
X156879000Y-69760000D02*
X156879000Y-68471000D01*
X156879000Y-73129000D02*
X156879000Y-71840000D01*
X156919000Y-69760000D02*
X156919000Y-68452000D01*
X156919000Y-73148000D02*
X156919000Y-71840000D01*
X156959000Y-69760000D02*
X156959000Y-68435000D01*
X156959000Y-73165000D02*
X156959000Y-71840000D01*
X156999000Y-69760000D02*
X156999000Y-68418000D01*
X156999000Y-73182000D02*
X156999000Y-71840000D01*
X157039000Y-69760000D02*
X157039000Y-68402000D01*
X157039000Y-73198000D02*
X157039000Y-71840000D01*
X157079000Y-69760000D02*
X157079000Y-68386000D01*
X157079000Y-73214000D02*
X157079000Y-71840000D01*
X157119000Y-69760000D02*
X157119000Y-68372000D01*
X157119000Y-73228000D02*
X157119000Y-71840000D01*
X157159000Y-69760000D02*
X157159000Y-68358000D01*
X157159000Y-73242000D02*
X157159000Y-71840000D01*
X157199000Y-69760000D02*
X157199000Y-68345000D01*
X157199000Y-73255000D02*
X157199000Y-71840000D01*
X157239000Y-69760000D02*
X157239000Y-68332000D01*
X157239000Y-73268000D02*
X157239000Y-71840000D01*
X157279000Y-69760000D02*
X157279000Y-68320000D01*
X157279000Y-73280000D02*
X157279000Y-71840000D01*
X157320000Y-69760000D02*
X157320000Y-68309000D01*
X157320000Y-73291000D02*
X157320000Y-71840000D01*
X157360000Y-69760000D02*
X157360000Y-68299000D01*
X157360000Y-73301000D02*
X157360000Y-71840000D01*
X157400000Y-69760000D02*
X157400000Y-68289000D01*
X157400000Y-73311000D02*
X157400000Y-71840000D01*
X157440000Y-69760000D02*
X157440000Y-68280000D01*
X157440000Y-73320000D02*
X157440000Y-71840000D01*
X157480000Y-69760000D02*
X157480000Y-68272000D01*
X157480000Y-73328000D02*
X157480000Y-71840000D01*
X157520000Y-69760000D02*
X157520000Y-68264000D01*
X157520000Y-73336000D02*
X157520000Y-71840000D01*
X157560000Y-69760000D02*
X157560000Y-68257000D01*
X157560000Y-73343000D02*
X157560000Y-71840000D01*
X157600000Y-69760000D02*
X157600000Y-68250000D01*
X157600000Y-73350000D02*
X157600000Y-71840000D01*
X157640000Y-69760000D02*
X157640000Y-68244000D01*
X157640000Y-73356000D02*
X157640000Y-71840000D01*
X157680000Y-69760000D02*
X157680000Y-68239000D01*
X157680000Y-73361000D02*
X157680000Y-71840000D01*
X157720000Y-69760000D02*
X157720000Y-68235000D01*
X157720000Y-73365000D02*
X157720000Y-71840000D01*
X157760000Y-69760000D02*
X157760000Y-68231000D01*
X157760000Y-73369000D02*
X157760000Y-71840000D01*
X157800000Y-69760000D02*
X157800000Y-68227000D01*
X157800000Y-73373000D02*
X157800000Y-71840000D01*
X157840000Y-69760000D02*
X157840000Y-68224000D01*
X157840000Y-73376000D02*
X157840000Y-71840000D01*
X157880000Y-69760000D02*
X157880000Y-68222000D01*
X157880000Y-73378000D02*
X157880000Y-71840000D01*
X157920000Y-69760000D02*
X157920000Y-68221000D01*
X157920000Y-73379000D02*
X157920000Y-71840000D01*
X157960000Y-73380000D02*
X157960000Y-71840000D01*
X157960000Y-69760000D02*
X157960000Y-68220000D01*
X158000000Y-73380000D02*
X158000000Y-71840000D01*
X158000000Y-69760000D02*
X158000000Y-68220000D01*
X160620000Y-70800000D02*
G75*
G03*
X160620000Y-70800000I-2620000J0D01*
G01*
%TO.C,J3*%
X142769900Y-77971960D02*
X141439900Y-77971960D01*
X142769900Y-76641960D02*
X142769900Y-77971960D01*
X142769900Y-75371960D02*
X140109900Y-75371960D01*
X140109900Y-75371960D02*
X140109900Y-70231960D01*
X142769900Y-75371960D02*
X142769900Y-70231960D01*
X142769900Y-70231960D02*
X140109900Y-70231960D01*
%TO.C,J4*%
X164330000Y-64630000D02*
X163000000Y-64630000D01*
X164330000Y-63300000D02*
X164330000Y-64630000D01*
X164330000Y-62030000D02*
X161670000Y-62030000D01*
X161670000Y-62030000D02*
X161670000Y-59430000D01*
X164330000Y-62030000D02*
X164330000Y-59430000D01*
X164330000Y-59430000D02*
X161670000Y-59430000D01*
%TO.C,J2*%
X139058960Y-77695100D02*
X137728960Y-77695100D01*
X139058960Y-76365100D02*
X139058960Y-77695100D01*
X139058960Y-75095100D02*
X136398960Y-75095100D01*
X136398960Y-75095100D02*
X136398960Y-72495100D01*
X139058960Y-75095100D02*
X139058960Y-72495100D01*
X139058960Y-72495100D02*
X136398960Y-72495100D01*
%TO.C,SW1*%
X139167820Y-65918340D02*
X139167820Y-64418340D01*
X137917820Y-61918340D02*
X133417820Y-61918340D01*
X132167820Y-64418340D02*
X132167820Y-65918340D01*
X133417820Y-68418340D02*
X137917820Y-68418340D01*
%TO.C,C4*%
X141558040Y-78846160D02*
X140300040Y-78846160D01*
X141558040Y-80686160D02*
X140300040Y-80686160D01*
%TO.C,R2*%
X161244080Y-104272080D02*
X160294080Y-104272080D01*
X155504080Y-104272080D02*
X156454080Y-104272080D01*
X160294080Y-103352080D02*
X156454080Y-103352080D01*
X160294080Y-105192080D02*
X160294080Y-103352080D01*
X156454080Y-105192080D02*
X160294080Y-105192080D01*
X156454080Y-103352080D02*
X156454080Y-105192080D01*
%TO.C,16Mhz*%
X137731260Y-93665680D02*
X137731260Y-99915680D01*
X142781260Y-93665680D02*
X142781260Y-99915680D01*
X137731260Y-99915680D02*
G75*
G03*
X142781260Y-99915680I2525000J0D01*
G01*
X137731260Y-93665680D02*
G75*
G02*
X142781260Y-93665680I2525000J0D01*
G01*
%TO.C,R1*%
X142062200Y-82931200D02*
X142062200Y-83881200D01*
X142062200Y-88671200D02*
X142062200Y-87721200D01*
X141142200Y-83881200D02*
X141142200Y-87721200D01*
X142982200Y-83881200D02*
X141142200Y-83881200D01*
X142982200Y-87721200D02*
X142982200Y-83881200D01*
X141142200Y-87721200D02*
X142982200Y-87721200D01*
%TO.C,C3*%
X159054775Y-88425000D02*
X159054775Y-87925000D01*
X159304775Y-88175000D02*
X158804775Y-88175000D01*
X153899000Y-86984000D02*
X153899000Y-86416000D01*
X153939000Y-87218000D02*
X153939000Y-86182000D01*
X153979000Y-87377000D02*
X153979000Y-86023000D01*
X154019000Y-87505000D02*
X154019000Y-85895000D01*
X154059000Y-87615000D02*
X154059000Y-85785000D01*
X154099000Y-87711000D02*
X154099000Y-85689000D01*
X154139000Y-87798000D02*
X154139000Y-85602000D01*
X154179000Y-87878000D02*
X154179000Y-85522000D01*
X154219000Y-87951000D02*
X154219000Y-85449000D01*
X154259000Y-88019000D02*
X154259000Y-85381000D01*
X154299000Y-88083000D02*
X154299000Y-85317000D01*
X154339000Y-88143000D02*
X154339000Y-85257000D01*
X154379000Y-88200000D02*
X154379000Y-85200000D01*
X154419000Y-88254000D02*
X154419000Y-85146000D01*
X154459000Y-88305000D02*
X154459000Y-85095000D01*
X154499000Y-85660000D02*
X154499000Y-85047000D01*
X154499000Y-88353000D02*
X154499000Y-87740000D01*
X154539000Y-85660000D02*
X154539000Y-85001000D01*
X154539000Y-88399000D02*
X154539000Y-87740000D01*
X154579000Y-85660000D02*
X154579000Y-84957000D01*
X154579000Y-88443000D02*
X154579000Y-87740000D01*
X154619000Y-85660000D02*
X154619000Y-84915000D01*
X154619000Y-88485000D02*
X154619000Y-87740000D01*
X154659000Y-85660000D02*
X154659000Y-84874000D01*
X154659000Y-88526000D02*
X154659000Y-87740000D01*
X154699000Y-85660000D02*
X154699000Y-84836000D01*
X154699000Y-88564000D02*
X154699000Y-87740000D01*
X154739000Y-85660000D02*
X154739000Y-84799000D01*
X154739000Y-88601000D02*
X154739000Y-87740000D01*
X154779000Y-85660000D02*
X154779000Y-84763000D01*
X154779000Y-88637000D02*
X154779000Y-87740000D01*
X154819000Y-85660000D02*
X154819000Y-84729000D01*
X154819000Y-88671000D02*
X154819000Y-87740000D01*
X154859000Y-85660000D02*
X154859000Y-84696000D01*
X154859000Y-88704000D02*
X154859000Y-87740000D01*
X154899000Y-85660000D02*
X154899000Y-84665000D01*
X154899000Y-88735000D02*
X154899000Y-87740000D01*
X154939000Y-85660000D02*
X154939000Y-84635000D01*
X154939000Y-88765000D02*
X154939000Y-87740000D01*
X154979000Y-85660000D02*
X154979000Y-84605000D01*
X154979000Y-88795000D02*
X154979000Y-87740000D01*
X155019000Y-85660000D02*
X155019000Y-84578000D01*
X155019000Y-88822000D02*
X155019000Y-87740000D01*
X155059000Y-85660000D02*
X155059000Y-84551000D01*
X155059000Y-88849000D02*
X155059000Y-87740000D01*
X155099000Y-85660000D02*
X155099000Y-84525000D01*
X155099000Y-88875000D02*
X155099000Y-87740000D01*
X155139000Y-85660000D02*
X155139000Y-84500000D01*
X155139000Y-88900000D02*
X155139000Y-87740000D01*
X155179000Y-85660000D02*
X155179000Y-84476000D01*
X155179000Y-88924000D02*
X155179000Y-87740000D01*
X155219000Y-85660000D02*
X155219000Y-84453000D01*
X155219000Y-88947000D02*
X155219000Y-87740000D01*
X155259000Y-85660000D02*
X155259000Y-84432000D01*
X155259000Y-88968000D02*
X155259000Y-87740000D01*
X155299000Y-85660000D02*
X155299000Y-84410000D01*
X155299000Y-88990000D02*
X155299000Y-87740000D01*
X155339000Y-85660000D02*
X155339000Y-84390000D01*
X155339000Y-89010000D02*
X155339000Y-87740000D01*
X155379000Y-85660000D02*
X155379000Y-84371000D01*
X155379000Y-89029000D02*
X155379000Y-87740000D01*
X155419000Y-85660000D02*
X155419000Y-84352000D01*
X155419000Y-89048000D02*
X155419000Y-87740000D01*
X155459000Y-85660000D02*
X155459000Y-84335000D01*
X155459000Y-89065000D02*
X155459000Y-87740000D01*
X155499000Y-85660000D02*
X155499000Y-84318000D01*
X155499000Y-89082000D02*
X155499000Y-87740000D01*
X155539000Y-85660000D02*
X155539000Y-84302000D01*
X155539000Y-89098000D02*
X155539000Y-87740000D01*
X155579000Y-85660000D02*
X155579000Y-84286000D01*
X155579000Y-89114000D02*
X155579000Y-87740000D01*
X155619000Y-85660000D02*
X155619000Y-84272000D01*
X155619000Y-89128000D02*
X155619000Y-87740000D01*
X155659000Y-85660000D02*
X155659000Y-84258000D01*
X155659000Y-89142000D02*
X155659000Y-87740000D01*
X155699000Y-85660000D02*
X155699000Y-84245000D01*
X155699000Y-89155000D02*
X155699000Y-87740000D01*
X155739000Y-85660000D02*
X155739000Y-84232000D01*
X155739000Y-89168000D02*
X155739000Y-87740000D01*
X155779000Y-85660000D02*
X155779000Y-84220000D01*
X155779000Y-89180000D02*
X155779000Y-87740000D01*
X155820000Y-85660000D02*
X155820000Y-84209000D01*
X155820000Y-89191000D02*
X155820000Y-87740000D01*
X155860000Y-85660000D02*
X155860000Y-84199000D01*
X155860000Y-89201000D02*
X155860000Y-87740000D01*
X155900000Y-85660000D02*
X155900000Y-84189000D01*
X155900000Y-89211000D02*
X155900000Y-87740000D01*
X155940000Y-85660000D02*
X155940000Y-84180000D01*
X155940000Y-89220000D02*
X155940000Y-87740000D01*
X155980000Y-85660000D02*
X155980000Y-84172000D01*
X155980000Y-89228000D02*
X155980000Y-87740000D01*
X156020000Y-85660000D02*
X156020000Y-84164000D01*
X156020000Y-89236000D02*
X156020000Y-87740000D01*
X156060000Y-85660000D02*
X156060000Y-84157000D01*
X156060000Y-89243000D02*
X156060000Y-87740000D01*
X156100000Y-85660000D02*
X156100000Y-84150000D01*
X156100000Y-89250000D02*
X156100000Y-87740000D01*
X156140000Y-85660000D02*
X156140000Y-84144000D01*
X156140000Y-89256000D02*
X156140000Y-87740000D01*
X156180000Y-85660000D02*
X156180000Y-84139000D01*
X156180000Y-89261000D02*
X156180000Y-87740000D01*
X156220000Y-85660000D02*
X156220000Y-84135000D01*
X156220000Y-89265000D02*
X156220000Y-87740000D01*
X156260000Y-85660000D02*
X156260000Y-84131000D01*
X156260000Y-89269000D02*
X156260000Y-87740000D01*
X156300000Y-85660000D02*
X156300000Y-84127000D01*
X156300000Y-89273000D02*
X156300000Y-87740000D01*
X156340000Y-85660000D02*
X156340000Y-84124000D01*
X156340000Y-89276000D02*
X156340000Y-87740000D01*
X156380000Y-85660000D02*
X156380000Y-84122000D01*
X156380000Y-89278000D02*
X156380000Y-87740000D01*
X156420000Y-85660000D02*
X156420000Y-84121000D01*
X156420000Y-89279000D02*
X156420000Y-87740000D01*
X156460000Y-89280000D02*
X156460000Y-87740000D01*
X156460000Y-85660000D02*
X156460000Y-84120000D01*
X156500000Y-89280000D02*
X156500000Y-87740000D01*
X156500000Y-85660000D02*
X156500000Y-84120000D01*
X159120000Y-86700000D02*
G75*
G03*
X159120000Y-86700000I-2620000J0D01*
G01*
%TO.C,C2*%
X143027920Y-106066620D02*
X143027920Y-104808620D01*
X141187920Y-106066620D02*
X141187920Y-104808620D01*
%TO.C,C1*%
X138371060Y-104842280D02*
X138371060Y-106100280D01*
X140211060Y-104842280D02*
X140211060Y-106100280D01*
%TO.C,JP1*%
D10*
X163152380Y-80333333D02*
X163866666Y-80333333D01*
X164009523Y-80380952D01*
X164104761Y-80476190D01*
X164152380Y-80619047D01*
X164152380Y-80714285D01*
X164152380Y-79857142D02*
X163152380Y-79857142D01*
X163152380Y-79476190D01*
X163200000Y-79380952D01*
X163247619Y-79333333D01*
X163342857Y-79285714D01*
X163485714Y-79285714D01*
X163580952Y-79333333D01*
X163628571Y-79380952D01*
X163676190Y-79476190D01*
X163676190Y-79857142D01*
X164152380Y-78333333D02*
X164152380Y-78904761D01*
X164152380Y-78619047D02*
X163152380Y-78619047D01*
X163295238Y-78714285D01*
X163390476Y-78809523D01*
X163438095Y-78904761D01*
%TO.C,Atmega328*%
X148319786Y-91694140D02*
X148319786Y-91217950D01*
X148605500Y-91789379D02*
X147605500Y-91456045D01*
X148605500Y-91122712D01*
X147938834Y-90932236D02*
X147938834Y-90551283D01*
X147605500Y-90789379D02*
X148462643Y-90789379D01*
X148557881Y-90741760D01*
X148605500Y-90646521D01*
X148605500Y-90551283D01*
X148605500Y-90217950D02*
X147938834Y-90217950D01*
X148034072Y-90217950D02*
X147986453Y-90170331D01*
X147938834Y-90075093D01*
X147938834Y-89932236D01*
X147986453Y-89836998D01*
X148081691Y-89789379D01*
X148605500Y-89789379D01*
X148081691Y-89789379D02*
X147986453Y-89741760D01*
X147938834Y-89646521D01*
X147938834Y-89503664D01*
X147986453Y-89408426D01*
X148081691Y-89360807D01*
X148605500Y-89360807D01*
X148557881Y-88503664D02*
X148605500Y-88598902D01*
X148605500Y-88789379D01*
X148557881Y-88884617D01*
X148462643Y-88932236D01*
X148081691Y-88932236D01*
X147986453Y-88884617D01*
X147938834Y-88789379D01*
X147938834Y-88598902D01*
X147986453Y-88503664D01*
X148081691Y-88456045D01*
X148176929Y-88456045D01*
X148272167Y-88932236D01*
X147938834Y-87598902D02*
X148748358Y-87598902D01*
X148843596Y-87646521D01*
X148891215Y-87694140D01*
X148938834Y-87789379D01*
X148938834Y-87932236D01*
X148891215Y-88027474D01*
X148557881Y-87598902D02*
X148605500Y-87694140D01*
X148605500Y-87884617D01*
X148557881Y-87979855D01*
X148510262Y-88027474D01*
X148415024Y-88075093D01*
X148129310Y-88075093D01*
X148034072Y-88027474D01*
X147986453Y-87979855D01*
X147938834Y-87884617D01*
X147938834Y-87694140D01*
X147986453Y-87598902D01*
X148605500Y-86694140D02*
X148081691Y-86694140D01*
X147986453Y-86741760D01*
X147938834Y-86836998D01*
X147938834Y-87027474D01*
X147986453Y-87122712D01*
X148557881Y-86694140D02*
X148605500Y-86789379D01*
X148605500Y-87027474D01*
X148557881Y-87122712D01*
X148462643Y-87170331D01*
X148367405Y-87170331D01*
X148272167Y-87122712D01*
X148224548Y-87027474D01*
X148224548Y-86789379D01*
X148176929Y-86694140D01*
X147605500Y-86313188D02*
X147605500Y-85694140D01*
X147986453Y-86027474D01*
X147986453Y-85884617D01*
X148034072Y-85789379D01*
X148081691Y-85741760D01*
X148176929Y-85694140D01*
X148415024Y-85694140D01*
X148510262Y-85741760D01*
X148557881Y-85789379D01*
X148605500Y-85884617D01*
X148605500Y-86170331D01*
X148557881Y-86265569D01*
X148510262Y-86313188D01*
X147700739Y-85313188D02*
X147653120Y-85265569D01*
X147605500Y-85170331D01*
X147605500Y-84932236D01*
X147653120Y-84836998D01*
X147700739Y-84789379D01*
X147795977Y-84741760D01*
X147891215Y-84741760D01*
X148034072Y-84789379D01*
X148605500Y-85360807D01*
X148605500Y-84741760D01*
X148034072Y-84170331D02*
X147986453Y-84265569D01*
X147938834Y-84313188D01*
X147843596Y-84360807D01*
X147795977Y-84360807D01*
X147700739Y-84313188D01*
X147653120Y-84265569D01*
X147605500Y-84170331D01*
X147605500Y-83979855D01*
X147653120Y-83884617D01*
X147700739Y-83836998D01*
X147795977Y-83789379D01*
X147843596Y-83789379D01*
X147938834Y-83836998D01*
X147986453Y-83884617D01*
X148034072Y-83979855D01*
X148034072Y-84170331D01*
X148081691Y-84265569D01*
X148129310Y-84313188D01*
X148224548Y-84360807D01*
X148415024Y-84360807D01*
X148510262Y-84313188D01*
X148557881Y-84265569D01*
X148605500Y-84170331D01*
X148605500Y-83979855D01*
X148557881Y-83884617D01*
X148510262Y-83836998D01*
X148415024Y-83789379D01*
X148224548Y-83789379D01*
X148129310Y-83836998D01*
X148081691Y-83884617D01*
X148034072Y-83979855D01*
%TO.C,C7*%
X133683333Y-100907142D02*
X133635714Y-100954761D01*
X133492857Y-101002380D01*
X133397619Y-101002380D01*
X133254761Y-100954761D01*
X133159523Y-100859523D01*
X133111904Y-100764285D01*
X133064285Y-100573809D01*
X133064285Y-100430952D01*
X133111904Y-100240476D01*
X133159523Y-100145238D01*
X133254761Y-100050000D01*
X133397619Y-100002380D01*
X133492857Y-100002380D01*
X133635714Y-100050000D01*
X133683333Y-100097619D01*
X134016666Y-100002380D02*
X134683333Y-100002380D01*
X134254761Y-101002380D01*
%TO.C,C6*%
X163383333Y-110207142D02*
X163335714Y-110254761D01*
X163192857Y-110302380D01*
X163097619Y-110302380D01*
X162954761Y-110254761D01*
X162859523Y-110159523D01*
X162811904Y-110064285D01*
X162764285Y-109873809D01*
X162764285Y-109730952D01*
X162811904Y-109540476D01*
X162859523Y-109445238D01*
X162954761Y-109350000D01*
X163097619Y-109302380D01*
X163192857Y-109302380D01*
X163335714Y-109350000D01*
X163383333Y-109397619D01*
X164240476Y-109302380D02*
X164050000Y-109302380D01*
X163954761Y-109350000D01*
X163907142Y-109397619D01*
X163811904Y-109540476D01*
X163764285Y-109730952D01*
X163764285Y-110111904D01*
X163811904Y-110207142D01*
X163859523Y-110254761D01*
X163954761Y-110302380D01*
X164145238Y-110302380D01*
X164240476Y-110254761D01*
X164288095Y-110207142D01*
X164335714Y-110111904D01*
X164335714Y-109873809D01*
X164288095Y-109778571D01*
X164240476Y-109730952D01*
X164145238Y-109683333D01*
X163954761Y-109683333D01*
X163859523Y-109730952D01*
X163811904Y-109778571D01*
X163764285Y-109873809D01*
%TO.C,NRF24L01*%
X165652380Y-99423809D02*
X164652380Y-99423809D01*
X165652380Y-98852380D01*
X164652380Y-98852380D01*
X165652380Y-97804761D02*
X165176190Y-98138095D01*
X165652380Y-98376190D02*
X164652380Y-98376190D01*
X164652380Y-97995238D01*
X164700000Y-97900000D01*
X164747619Y-97852380D01*
X164842857Y-97804761D01*
X164985714Y-97804761D01*
X165080952Y-97852380D01*
X165128571Y-97900000D01*
X165176190Y-97995238D01*
X165176190Y-98376190D01*
X165128571Y-97042857D02*
X165128571Y-97376190D01*
X165652380Y-97376190D02*
X164652380Y-97376190D01*
X164652380Y-96900000D01*
X164747619Y-96566666D02*
X164700000Y-96519047D01*
X164652380Y-96423809D01*
X164652380Y-96185714D01*
X164700000Y-96090476D01*
X164747619Y-96042857D01*
X164842857Y-95995238D01*
X164938095Y-95995238D01*
X165080952Y-96042857D01*
X165652380Y-96614285D01*
X165652380Y-95995238D01*
X164985714Y-95138095D02*
X165652380Y-95138095D01*
X164604761Y-95376190D02*
X165319047Y-95614285D01*
X165319047Y-94995238D01*
X165652380Y-94138095D02*
X165652380Y-94614285D01*
X164652380Y-94614285D01*
X164652380Y-93614285D02*
X164652380Y-93519047D01*
X164700000Y-93423809D01*
X164747619Y-93376190D01*
X164842857Y-93328571D01*
X165033333Y-93280952D01*
X165271428Y-93280952D01*
X165461904Y-93328571D01*
X165557142Y-93376190D01*
X165604761Y-93423809D01*
X165652380Y-93519047D01*
X165652380Y-93614285D01*
X165604761Y-93709523D01*
X165557142Y-93757142D01*
X165461904Y-93804761D01*
X165271428Y-93852380D01*
X165033333Y-93852380D01*
X164842857Y-93804761D01*
X164747619Y-93757142D01*
X164700000Y-93709523D01*
X164652380Y-93614285D01*
X165652380Y-92328571D02*
X165652380Y-92900000D01*
X165652380Y-92614285D02*
X164652380Y-92614285D01*
X164795238Y-92709523D01*
X164890476Y-92804761D01*
X164938095Y-92900000D01*
%TO.C,DHT11*%
X136752380Y-92019047D02*
X135752380Y-92019047D01*
X135752380Y-91780952D01*
X135800000Y-91638095D01*
X135895238Y-91542857D01*
X135990476Y-91495238D01*
X136180952Y-91447619D01*
X136323809Y-91447619D01*
X136514285Y-91495238D01*
X136609523Y-91542857D01*
X136704761Y-91638095D01*
X136752380Y-91780952D01*
X136752380Y-92019047D01*
X136752380Y-91019047D02*
X135752380Y-91019047D01*
X136228571Y-91019047D02*
X136228571Y-90447619D01*
X136752380Y-90447619D02*
X135752380Y-90447619D01*
X135752380Y-90114285D02*
X135752380Y-89542857D01*
X136752380Y-89828571D02*
X135752380Y-89828571D01*
X136752380Y-88685714D02*
X136752380Y-89257142D01*
X136752380Y-88971428D02*
X135752380Y-88971428D01*
X135895238Y-89066666D01*
X135990476Y-89161904D01*
X136038095Y-89257142D01*
X136752380Y-87733333D02*
X136752380Y-88304761D01*
X136752380Y-88019047D02*
X135752380Y-88019047D01*
X135895238Y-88114285D01*
X135990476Y-88209523D01*
X136038095Y-88304761D01*
%TO.C,U4*%
X154852380Y-80461904D02*
X155661904Y-80461904D01*
X155757142Y-80414285D01*
X155804761Y-80366666D01*
X155852380Y-80271428D01*
X155852380Y-80080952D01*
X155804761Y-79985714D01*
X155757142Y-79938095D01*
X155661904Y-79890476D01*
X154852380Y-79890476D01*
X155185714Y-78985714D02*
X155852380Y-78985714D01*
X154804761Y-79223809D02*
X155519047Y-79461904D01*
X155519047Y-78842857D01*
%TO.C,D1*%
X157824884Y-109337080D02*
X157824884Y-108337080D01*
X158062980Y-108337080D01*
X158205837Y-108384700D01*
X158301075Y-108479938D01*
X158348694Y-108575176D01*
X158396313Y-108765652D01*
X158396313Y-108908509D01*
X158348694Y-109098985D01*
X158301075Y-109194223D01*
X158205837Y-109289461D01*
X158062980Y-109337080D01*
X157824884Y-109337080D01*
X159348694Y-109337080D02*
X158777265Y-109337080D01*
X159062980Y-109337080D02*
X159062980Y-108337080D01*
X158967741Y-108479938D01*
X158872503Y-108575176D01*
X158777265Y-108622795D01*
%TO.C,NE555*%
X154596340Y-64204926D02*
X153596340Y-64204926D01*
X154596340Y-63633498D01*
X153596340Y-63633498D01*
X154072531Y-63157307D02*
X154072531Y-62823974D01*
X154596340Y-62681117D02*
X154596340Y-63157307D01*
X153596340Y-63157307D01*
X153596340Y-62681117D01*
X153596340Y-61776355D02*
X153596340Y-62252545D01*
X154072531Y-62300164D01*
X154024912Y-62252545D01*
X153977293Y-62157307D01*
X153977293Y-61919212D01*
X154024912Y-61823974D01*
X154072531Y-61776355D01*
X154167769Y-61728736D01*
X154405864Y-61728736D01*
X154501102Y-61776355D01*
X154548721Y-61823974D01*
X154596340Y-61919212D01*
X154596340Y-62157307D01*
X154548721Y-62252545D01*
X154501102Y-62300164D01*
X153596340Y-60823974D02*
X153596340Y-61300164D01*
X154072531Y-61347783D01*
X154024912Y-61300164D01*
X153977293Y-61204926D01*
X153977293Y-60966831D01*
X154024912Y-60871593D01*
X154072531Y-60823974D01*
X154167769Y-60776355D01*
X154405864Y-60776355D01*
X154501102Y-60823974D01*
X154548721Y-60871593D01*
X154596340Y-60966831D01*
X154596340Y-61204926D01*
X154548721Y-61300164D01*
X154501102Y-61347783D01*
X153596340Y-59871593D02*
X153596340Y-60347783D01*
X154072531Y-60395402D01*
X154024912Y-60347783D01*
X153977293Y-60252545D01*
X153977293Y-60014450D01*
X154024912Y-59919212D01*
X154072531Y-59871593D01*
X154167769Y-59823974D01*
X154405864Y-59823974D01*
X154501102Y-59871593D01*
X154548721Y-59919212D01*
X154596340Y-60014450D01*
X154596340Y-60252545D01*
X154548721Y-60347783D01*
X154501102Y-60395402D01*
%TO.C,R4*%
X147347400Y-62128506D02*
X146871210Y-62461840D01*
X147347400Y-62699935D02*
X146347400Y-62699935D01*
X146347400Y-62318982D01*
X146395020Y-62223744D01*
X146442639Y-62176125D01*
X146537877Y-62128506D01*
X146680734Y-62128506D01*
X146775972Y-62176125D01*
X146823591Y-62223744D01*
X146871210Y-62318982D01*
X146871210Y-62699935D01*
X146680734Y-61271363D02*
X147347400Y-61271363D01*
X146299781Y-61509459D02*
X147014067Y-61747554D01*
X147014067Y-61128506D01*
%TO.C,R3*%
X144548320Y-62212326D02*
X144072130Y-62545660D01*
X144548320Y-62783755D02*
X143548320Y-62783755D01*
X143548320Y-62402802D01*
X143595940Y-62307564D01*
X143643559Y-62259945D01*
X143738797Y-62212326D01*
X143881654Y-62212326D01*
X143976892Y-62259945D01*
X144024511Y-62307564D01*
X144072130Y-62402802D01*
X144072130Y-62783755D01*
X143548320Y-61878993D02*
X143548320Y-61259945D01*
X143929273Y-61593279D01*
X143929273Y-61450421D01*
X143976892Y-61355183D01*
X144024511Y-61307564D01*
X144119749Y-61259945D01*
X144357844Y-61259945D01*
X144453082Y-61307564D01*
X144500701Y-61355183D01*
X144548320Y-61450421D01*
X144548320Y-61736136D01*
X144500701Y-61831374D01*
X144453082Y-61878993D01*
%TO.C,C5*%
X157833333Y-74907142D02*
X157785714Y-74954761D01*
X157642857Y-75002380D01*
X157547619Y-75002380D01*
X157404761Y-74954761D01*
X157309523Y-74859523D01*
X157261904Y-74764285D01*
X157214285Y-74573809D01*
X157214285Y-74430952D01*
X157261904Y-74240476D01*
X157309523Y-74145238D01*
X157404761Y-74050000D01*
X157547619Y-74002380D01*
X157642857Y-74002380D01*
X157785714Y-74050000D01*
X157833333Y-74097619D01*
X158738095Y-74002380D02*
X158261904Y-74002380D01*
X158214285Y-74478571D01*
X158261904Y-74430952D01*
X158357142Y-74383333D01*
X158595238Y-74383333D01*
X158690476Y-74430952D01*
X158738095Y-74478571D01*
X158785714Y-74573809D01*
X158785714Y-74811904D01*
X158738095Y-74907142D01*
X158690476Y-74954761D01*
X158595238Y-75002380D01*
X158357142Y-75002380D01*
X158261904Y-74954761D01*
X158214285Y-74907142D01*
%TO.C,J3*%
X141106566Y-78424340D02*
X141106566Y-79138626D01*
X141058947Y-79281483D01*
X140963709Y-79376721D01*
X140820852Y-79424340D01*
X140725614Y-79424340D01*
X141487519Y-78424340D02*
X142106566Y-78424340D01*
X141773233Y-78805293D01*
X141916090Y-78805293D01*
X142011328Y-78852912D01*
X142058947Y-78900531D01*
X142106566Y-78995769D01*
X142106566Y-79233864D01*
X142058947Y-79329102D01*
X142011328Y-79376721D01*
X141916090Y-79424340D01*
X141630376Y-79424340D01*
X141535138Y-79376721D01*
X141487519Y-79329102D01*
%TO.C,J4*%
X162666666Y-65082380D02*
X162666666Y-65796666D01*
X162619047Y-65939523D01*
X162523809Y-66034761D01*
X162380952Y-66082380D01*
X162285714Y-66082380D01*
X163571428Y-65415714D02*
X163571428Y-66082380D01*
X163333333Y-65034761D02*
X163095238Y-65749047D01*
X163714285Y-65749047D01*
%TO.C,J2*%
X137395626Y-78147480D02*
X137395626Y-78861766D01*
X137348007Y-79004623D01*
X137252769Y-79099861D01*
X137109912Y-79147480D01*
X137014674Y-79147480D01*
X137824198Y-78242719D02*
X137871817Y-78195100D01*
X137967055Y-78147480D01*
X138205150Y-78147480D01*
X138300388Y-78195100D01*
X138348007Y-78242719D01*
X138395626Y-78337957D01*
X138395626Y-78433195D01*
X138348007Y-78576052D01*
X137776579Y-79147480D01*
X138395626Y-79147480D01*
%TO.C,SW1*%
X134302666Y-65786901D02*
X134445523Y-65834520D01*
X134683619Y-65834520D01*
X134778857Y-65786901D01*
X134826476Y-65739282D01*
X134874095Y-65644044D01*
X134874095Y-65548806D01*
X134826476Y-65453568D01*
X134778857Y-65405949D01*
X134683619Y-65358330D01*
X134493142Y-65310711D01*
X134397904Y-65263092D01*
X134350285Y-65215473D01*
X134302666Y-65120235D01*
X134302666Y-65024997D01*
X134350285Y-64929759D01*
X134397904Y-64882140D01*
X134493142Y-64834520D01*
X134731238Y-64834520D01*
X134874095Y-64882140D01*
X135207428Y-64834520D02*
X135445523Y-65834520D01*
X135636000Y-65120235D01*
X135826476Y-65834520D01*
X136064571Y-64834520D01*
X136969333Y-65834520D02*
X136397904Y-65834520D01*
X136683619Y-65834520D02*
X136683619Y-64834520D01*
X136588380Y-64977378D01*
X136493142Y-65072616D01*
X136397904Y-65120235D01*
%TO.C,C4*%
X139433333Y-82173302D02*
X139385714Y-82220921D01*
X139242857Y-82268540D01*
X139147619Y-82268540D01*
X139004761Y-82220921D01*
X138909523Y-82125683D01*
X138861904Y-82030445D01*
X138814285Y-81839969D01*
X138814285Y-81697112D01*
X138861904Y-81506636D01*
X138909523Y-81411398D01*
X139004761Y-81316160D01*
X139147619Y-81268540D01*
X139242857Y-81268540D01*
X139385714Y-81316160D01*
X139433333Y-81363779D01*
X140290476Y-81601874D02*
X140290476Y-82268540D01*
X140052380Y-81220921D02*
X139814285Y-81935207D01*
X140433333Y-81935207D01*
%TO.C,R2*%
X158187093Y-104800660D02*
X157853760Y-104324470D01*
X157615664Y-104800660D02*
X157615664Y-103800660D01*
X157996617Y-103800660D01*
X158091855Y-103848280D01*
X158139474Y-103895899D01*
X158187093Y-103991137D01*
X158187093Y-104133994D01*
X158139474Y-104229232D01*
X158091855Y-104276851D01*
X157996617Y-104324470D01*
X157615664Y-104324470D01*
X158568045Y-103895899D02*
X158615664Y-103848280D01*
X158710902Y-103800660D01*
X158948998Y-103800660D01*
X159044236Y-103848280D01*
X159091855Y-103895899D01*
X159139474Y-103991137D01*
X159139474Y-104086375D01*
X159091855Y-104229232D01*
X158520426Y-104800660D01*
X159139474Y-104800660D01*
%TO.C,16Mhz*%
X140749280Y-98377807D02*
X140749280Y-98949236D01*
X140749280Y-98663521D02*
X139749280Y-98663521D01*
X139892138Y-98758760D01*
X139987376Y-98853998D01*
X140034995Y-98949236D01*
X139749280Y-97520664D02*
X139749280Y-97711140D01*
X139796900Y-97806379D01*
X139844519Y-97853998D01*
X139987376Y-97949236D01*
X140177852Y-97996855D01*
X140558804Y-97996855D01*
X140654042Y-97949236D01*
X140701661Y-97901617D01*
X140749280Y-97806379D01*
X140749280Y-97615902D01*
X140701661Y-97520664D01*
X140654042Y-97473045D01*
X140558804Y-97425426D01*
X140320709Y-97425426D01*
X140225471Y-97473045D01*
X140177852Y-97520664D01*
X140130233Y-97615902D01*
X140130233Y-97806379D01*
X140177852Y-97901617D01*
X140225471Y-97949236D01*
X140320709Y-97996855D01*
X140749280Y-96996855D02*
X139749280Y-96996855D01*
X140463566Y-96663521D01*
X139749280Y-96330188D01*
X140749280Y-96330188D01*
X140749280Y-95853998D02*
X139749280Y-95853998D01*
X140749280Y-95425426D02*
X140225471Y-95425426D01*
X140130233Y-95473045D01*
X140082614Y-95568283D01*
X140082614Y-95711140D01*
X140130233Y-95806379D01*
X140177852Y-95853998D01*
X140082614Y-95044474D02*
X140082614Y-94520664D01*
X140749280Y-95044474D01*
X140749280Y-94520664D01*
%TO.C,R1*%
X142466320Y-85980566D02*
X141990130Y-86313900D01*
X142466320Y-86551995D02*
X141466320Y-86551995D01*
X141466320Y-86171042D01*
X141513940Y-86075804D01*
X141561559Y-86028185D01*
X141656797Y-85980566D01*
X141799654Y-85980566D01*
X141894892Y-86028185D01*
X141942511Y-86075804D01*
X141990130Y-86171042D01*
X141990130Y-86551995D01*
X142466320Y-85028185D02*
X142466320Y-85599614D01*
X142466320Y-85313900D02*
X141466320Y-85313900D01*
X141609178Y-85409138D01*
X141704416Y-85504376D01*
X141752035Y-85599614D01*
%TO.C,C3*%
X156333333Y-90807142D02*
X156285714Y-90854761D01*
X156142857Y-90902380D01*
X156047619Y-90902380D01*
X155904761Y-90854761D01*
X155809523Y-90759523D01*
X155761904Y-90664285D01*
X155714285Y-90473809D01*
X155714285Y-90330952D01*
X155761904Y-90140476D01*
X155809523Y-90045238D01*
X155904761Y-89950000D01*
X156047619Y-89902380D01*
X156142857Y-89902380D01*
X156285714Y-89950000D01*
X156333333Y-89997619D01*
X156666666Y-89902380D02*
X157285714Y-89902380D01*
X156952380Y-90283333D01*
X157095238Y-90283333D01*
X157190476Y-90330952D01*
X157238095Y-90378571D01*
X157285714Y-90473809D01*
X157285714Y-90711904D01*
X157238095Y-90807142D01*
X157190476Y-90854761D01*
X157095238Y-90902380D01*
X156809523Y-90902380D01*
X156714285Y-90854761D01*
X156666666Y-90807142D01*
%TO.C,C2*%
X142357142Y-109266666D02*
X142404761Y-109314285D01*
X142452380Y-109457142D01*
X142452380Y-109552380D01*
X142404761Y-109695238D01*
X142309523Y-109790476D01*
X142214285Y-109838095D01*
X142023809Y-109885714D01*
X141880952Y-109885714D01*
X141690476Y-109838095D01*
X141595238Y-109790476D01*
X141500000Y-109695238D01*
X141452380Y-109552380D01*
X141452380Y-109457142D01*
X141500000Y-109314285D01*
X141547619Y-109266666D01*
X141547619Y-108885714D02*
X141500000Y-108838095D01*
X141452380Y-108742857D01*
X141452380Y-108504761D01*
X141500000Y-108409523D01*
X141547619Y-108361904D01*
X141642857Y-108314285D01*
X141738095Y-108314285D01*
X141880952Y-108361904D01*
X142452380Y-108933333D01*
X142452380Y-108314285D01*
%TO.C,C1*%
X139557142Y-109166666D02*
X139604761Y-109214285D01*
X139652380Y-109357142D01*
X139652380Y-109452380D01*
X139604761Y-109595238D01*
X139509523Y-109690476D01*
X139414285Y-109738095D01*
X139223809Y-109785714D01*
X139080952Y-109785714D01*
X138890476Y-109738095D01*
X138795238Y-109690476D01*
X138700000Y-109595238D01*
X138652380Y-109452380D01*
X138652380Y-109357142D01*
X138700000Y-109214285D01*
X138747619Y-109166666D01*
X139652380Y-108214285D02*
X139652380Y-108785714D01*
X139652380Y-108500000D02*
X138652380Y-108500000D01*
X138795238Y-108595238D01*
X138890476Y-108690476D01*
X138938095Y-108785714D01*
%TD*%
M02*
